<svg width="342" height="145" viewBox="0 0 342 145" fill="none" xmlns="http://www.w3.org/2000/svg">
<path d="M212.773 36.1569C212.773 36.3893 213.035 36.5759 213.36 36.5759H314.034C314.359 36.5759 314.62 36.3893 314.62 36.1569C314.62 35.9245 314.359 35.7379 314.034 35.7379H213.36C213.035 35.7379 212.773 35.9245 212.773 36.1569Z" fill="#E6E6E6"/>
<path d="M130.897 95.9915L131.893 122.332H129.468V125.314H136.246V122.332H134.269L134.41 95.9915H130.897Z" fill="#3F3D56"/>
<path d="M128.281 118.108C129.313 118.108 130.149 118.942 130.149 119.972V127.675C130.149 128.704 129.313 129.539 128.281 129.539C127.249 129.539 126.413 128.704 126.413 127.675V119.972C126.413 118.942 127.249 118.108 128.281 118.108Z" fill="#3F3D56"/>
<path d="M137.747 118.108C138.778 118.108 139.615 118.942 139.615 119.972V127.675C139.615 128.704 138.778 129.539 137.747 129.539C136.715 129.539 135.878 128.704 135.878 127.675V119.972C135.878 118.942 136.715 118.108 137.747 118.108Z" fill="#3F3D56"/>
<path d="M152.941 79.5798L114.581 77.8403L120.559 75.1068L154.186 75.6038L152.941 79.5798Z" fill="#002345"/>
<path d="M0 83.4424L4.63267 81.7029L148.457 85.4304L154.436 82.6969L151.945 99.5947L37.6983 87.4499L0 83.4424Z" fill="#002345"/>
<path d="M36.9897 93.2581L37.6983 87.4499L151.945 99.5947L151.322 108.168L36.9897 93.2581Z" fill="#3F3D56"/>
<path d="M113.834 110.404C120.368 110.404 125.666 104.786 125.666 97.8553C125.666 90.9246 120.368 85.3062 113.834 85.3062C107.299 85.3062 102.002 90.9246 102.002 97.8553C102.002 104.786 107.299 110.404 113.834 110.404Z" fill="#3F3D56"/>
<path d="M113.834 104.316C118.649 104.316 122.552 100.422 122.552 95.6188C122.552 90.8153 118.649 86.9214 113.834 86.9214C109.019 86.9214 105.116 90.8153 105.116 95.6188C105.116 100.422 109.019 104.316 113.834 104.316Z" fill="#002345"/>
<path d="M211.103 95.9915L210.107 122.332H212.532V125.314H205.754V122.332H207.731L207.59 95.9915H211.103Z" fill="#3F3D56"/>
<path d="M213.719 118.108H213.719C212.687 118.108 211.851 118.942 211.851 119.972V127.675C211.851 128.704 212.687 129.539 213.719 129.539H213.719C214.751 129.539 215.587 128.704 215.587 127.675V119.972C215.587 118.942 214.751 118.108 213.719 118.108Z" fill="#3F3D56"/>
<path d="M204.253 118.108H204.253C203.222 118.108 202.385 118.942 202.385 119.972V127.675C202.385 128.704 203.222 129.539 204.253 129.539H204.253C205.285 129.539 206.122 128.704 206.122 127.675V119.972C206.122 118.942 205.285 118.108 204.253 118.108Z" fill="#3F3D56"/>
<path d="M189.059 79.5798L227.419 77.8403L221.441 75.1068L187.814 75.6038L189.059 79.5798Z" fill="#002345"/>
<path d="M175.329 74.226L173.586 35.9574L170.846 41.9213L171.344 75.4685L175.329 74.226Z" fill="#002345"/>
<path d="M342 83.4424L337.367 81.7029L193.543 85.4304L187.564 82.6969L190.055 99.5947L304.302 87.4499L342 83.4424Z" fill="#002345"/>
<path d="M305.01 93.2581L304.302 87.4499L190.055 99.5947L190.678 108.168L305.01 93.2581Z" fill="#3F3D56"/>
<path d="M228.166 110.404C234.701 110.404 239.998 104.786 239.998 97.8553C239.998 90.9246 234.701 85.3062 228.166 85.3062C221.632 85.3062 216.334 90.9246 216.334 97.8553C216.334 104.786 221.632 110.404 228.166 110.404Z" fill="#3F3D56"/>
<path d="M228.166 104.316C232.981 104.316 236.884 100.422 236.884 95.6188C236.884 90.8153 232.981 86.9214 228.166 86.9214C223.351 86.9214 219.448 90.8153 219.448 95.6188C219.448 100.422 223.351 104.316 228.166 104.316Z" fill="#002345"/>
<path d="M192.733 74.8129L192.168 78.9695L191.874 101.344C191.851 103.009 191.65 104.654 191.271 106.25C190.18 110.896 187.632 115.123 183.868 118.187C180.453 120.971 175.795 123.078 169.63 122.705C153.19 121.711 151.738 107.753 151.738 107.753L152.358 82.441L152.443 78.9695L153.19 72.7056C153.19 72.7056 155.183 55.0623 173.615 55.5593C192.048 56.0563 192.733 74.8129 192.733 74.8129Z" fill="#002345"/>
<path d="M157.176 68.9781L160.912 63.0142L165.645 61.5232H181.835L185.821 63.0142L189.438 68.9781L182.832 65.9962H164.301L157.176 68.9781Z" fill="#E6E6E6"/>
<path d="M170.877 111.855L171.517 128.753H169.961V130.666H174.309V128.753H173.041L173.132 111.855H170.877Z" fill="#3F3D56"/>
<path d="M169.2 126.043C169.861 126.043 170.398 126.578 170.398 127.238V132.18C170.398 132.841 169.861 133.376 169.2 133.376C168.538 133.376 168.001 132.841 168.001 132.18V127.238C168.001 126.578 168.538 126.043 169.2 126.043Z" fill="#3F3D56"/>
<path d="M175.272 126.043C175.934 126.043 176.47 126.578 176.47 127.238V132.18C176.47 132.841 175.934 133.376 175.272 133.376C174.61 133.376 174.073 132.841 174.073 132.18V127.238C174.073 126.578 174.61 126.043 175.272 126.043Z" fill="#3F3D56"/>
<path d="M166.241 57.8604L162.799 70.2208L163.463 70.4045L166.904 58.0442L166.241 57.8604Z" fill="#002345"/>
<path d="M181.846 59.8325L181.17 59.9649L183.65 72.5525L184.325 72.42L181.846 59.8325Z" fill="#002345"/>
<path d="M252.755 40.0862C255.226 40.0862 257.229 38.0878 257.229 35.6227C257.229 33.1577 255.226 31.1593 252.755 31.1593C250.284 31.1593 248.281 33.1577 248.281 35.6227C248.281 38.0878 250.284 40.0862 252.755 40.0862Z" fill="#002345"/>
<path d="M128.922 54.6962C131.393 54.6962 133.396 52.6978 133.396 50.2328C133.396 47.7677 131.393 45.7693 128.922 45.7693C126.451 45.7693 124.448 47.7677 124.448 50.2328C124.448 52.6978 126.451 54.6962 128.922 54.6962Z" fill="#002345"/>
<path d="M27.6166 134.009C27.6166 134.241 27.8778 134.428 28.203 134.428H128.877C129.202 134.428 129.464 134.241 129.464 134.009C129.464 133.776 129.202 133.59 128.877 133.59H28.203C27.8778 133.59 27.6166 133.776 27.6166 134.009Z" fill="#E6E6E6"/>
<path d="M67.5982 137.938C70.0691 137.938 72.0722 135.94 72.0722 133.475C72.0722 131.01 70.0691 129.011 67.5982 129.011C65.1272 129.011 63.1241 131.01 63.1241 133.475C63.1241 135.94 65.1272 137.938 67.5982 137.938Z" fill="#002345"/>
</svg>
