<svg width="530" height="227" viewBox="0 0 530 227" fill="none" xmlns="http://www.w3.org/2000/svg">
<path d="M261.573 148.62H273.72V150.664H207.144V148.62H219.18L219.513 148.623C223.889 148.623 226.397 147.998 227.984 146.842C229.572 145.691 230.545 143.922 230.907 141.542C231.268 139.162 231.447 134.126 231.447 126.431L231.469 126.49V13.1096H207.144V11.015H209.101C230.963 11.015 242.468 2.91232 249.168 0.486988V126.467V126.478C249.168 134.171 249.349 139.208 249.711 141.59C250.069 143.968 251.041 145.735 252.629 146.888C254.217 148.044 257.197 148.62 261.573 148.62Z" fill="#917A2C"/>
<path d="M273.722 150.665C270.186 150.665 262.579 150.595 260.274 148.921C258.323 147.501 257.119 145.351 256.692 142.53C256.315 140.042 256.131 135.019 256.131 127.17V0.313892H259.438V127.159C259.438 134.746 259.612 139.746 259.96 142.033C260.254 143.977 260.994 145.354 262.219 146.246C263.263 147.006 269.051 148.617 273.722 148.617V150.665Z" fill="#917A2C"/>
<path d="M256.768 75.5155V73.4355H261.38C276.612 73.4355 299.629 74.0395 299.629 35.5662C299.629 1.78884 279.572 2.41551 266.299 2.41551H256.768V0.314173H273.444C320.396 0.314173 322.776 31.3528 322.776 37.5755C322.776 50.1675 317.004 60.7355 306.527 67.3368C293.621 75.5155 276.676 75.5155 268.531 75.5155H256.768Z" fill="#917A2C"/>
<path d="M8.87801 209.407C9.54335 209.493 10.1233 209.545 10.618 209.561C11.118 209.581 11.6967 209.592 12.3593 209.592C13.878 209.592 15.3127 209.363 16.666 208.911C18.0167 208.456 19.1953 207.799 20.1993 206.936C21.2007 206.072 21.9953 205.024 22.5793 203.787C23.1673 202.547 23.4567 201.147 23.4567 199.577C23.4567 197.889 23.186 196.449 22.646 195.265C22.106 194.081 21.346 193.116 20.37 192.377C19.3913 191.639 18.2233 191.101 16.8607 190.768C15.5007 190.439 14.0007 190.272 12.3593 190.272C11.4007 190.272 10.6793 190.427 10.2007 190.731C9.71935 191.036 9.37935 191.465 9.17935 192.023C8.97801 192.581 8.87801 193.248 8.87801 194.027V196.624V209.407ZM10.79 211.656H9.96335C9.59001 211.656 9.22735 211.649 8.87801 211.629V219.393C8.87801 220.375 8.86601 221.212 8.84068 221.915C8.81268 222.613 8.76468 223.189 8.69535 223.647L13.6433 223.381V225.765H0.502014V224.009C1.51401 223.977 2.27401 223.793 2.77935 223.463C3.28468 223.129 3.64468 222.676 3.85401 222.099C4.06201 221.523 4.17268 220.837 4.17935 220.044C4.18868 219.251 4.19401 218.379 4.19401 217.436V194.256C4.19401 193.52 4.20735 192.827 4.23401 192.171C4.25935 191.517 4.30735 190.919 4.37535 190.379L0.502014 190.613V188.232C2.38868 188.197 4.32335 188.175 6.31401 188.165C8.30335 188.157 10.3513 188.153 12.462 188.153C17.6633 188.153 21.618 189.027 24.322 190.772C27.218 192.672 28.666 195.455 28.666 199.119C28.666 199.869 28.582 200.701 28.4167 201.605C28.2513 202.513 27.9153 203.451 27.4073 204.423C26.902 205.387 26.21 206.315 25.3287 207.195C24.4473 208.076 23.3407 208.843 22.0047 209.496C20.6687 210.151 19.0767 210.676 17.2287 211.069C15.3767 211.46 13.2327 211.656 10.79 211.656Z" fill="#232120"/>
<path d="M48.0402 206.92C48.5975 206.954 49.1348 206.985 49.6508 207.01C50.1642 207.036 50.7362 207.034 51.3642 206.998C52.8308 206.945 54.1682 206.758 55.3815 206.434C56.5948 206.114 57.6402 205.612 58.5228 204.929C59.4028 204.25 60.0882 203.373 60.5788 202.302C61.0655 201.226 61.3108 199.914 61.3108 198.361C61.3108 195.673 60.5388 193.646 58.9935 192.276C57.4508 190.906 55.0295 190.221 51.7308 190.221C50.7175 190.221 49.9602 190.374 49.4548 190.677C48.9482 190.984 48.5908 191.414 48.3802 191.973C48.1708 192.534 48.0628 193.204 48.0535 193.989C48.0428 194.776 48.0402 195.648 48.0402 196.609V206.92ZM51.6788 209.012C51.0842 209.049 50.4842 209.061 49.8735 209.053C49.2628 209.044 48.6508 209.012 48.0402 208.961V219.396C48.0402 220.377 48.0282 221.213 48.0015 221.914C47.9735 222.614 47.9282 223.189 47.8575 223.646L51.7308 223.436V225.765H39.6642V224.009C40.6762 223.977 41.4348 223.793 41.9415 223.462C42.4468 223.129 42.8068 222.676 43.0162 222.098C43.2242 221.522 43.3335 220.837 43.3415 220.044C43.3495 219.25 43.3562 218.38 43.3562 217.437V194.256C43.3562 193.52 43.3682 192.828 43.3948 192.17C43.4215 191.517 43.4695 190.918 43.5362 190.378L39.6642 190.614V188.232C41.6882 188.197 43.7202 188.17 45.7628 188.153C47.8055 188.138 49.8642 188.144 51.9388 188.177C54.5215 188.232 56.7335 188.481 58.5735 188.926C60.4162 189.37 61.9242 190.002 63.1015 190.822C64.2815 191.644 65.1455 192.638 65.6948 193.806C66.2455 194.977 66.5175 196.302 66.5175 197.784C66.5175 198.833 66.3788 199.9 66.0975 200.992C65.8202 202.082 65.3068 203.116 64.5562 204.093C63.8055 205.07 62.7802 205.942 61.4802 206.71C60.1788 207.48 58.5108 208.069 56.4682 208.49C57.1668 208.997 57.7948 209.646 58.3508 210.429C58.9122 211.218 59.5215 212.136 60.1842 213.182L63.8468 218.925C64.3015 219.64 64.7388 220.31 65.1562 220.93C65.5788 221.552 66.0348 222.089 66.5308 222.544C67.0295 222.997 67.5882 223.356 68.2068 223.617C68.8242 223.881 69.5548 224.009 70.3935 224.009V225.765H63.6402C63.1162 225.313 62.6455 224.857 62.2268 224.402C61.8068 223.949 61.4108 223.48 61.0348 222.992C60.6575 222.502 60.2975 222 59.9495 221.485C59.5975 220.972 59.2335 220.417 58.8495 219.822L55.2628 214.092C55.0175 213.708 54.7655 213.293 54.5055 212.848C54.2442 212.402 53.9642 211.954 53.6682 211.502C53.3695 211.046 53.0562 210.606 52.7255 210.177C52.3935 209.752 52.0442 209.362 51.6788 209.012Z" fill="#232120"/>
<path d="M87.7798 194.231C87.7798 193.496 87.7931 192.806 87.8198 192.148C87.8451 191.491 87.8931 190.894 87.9638 190.351L84.0904 190.587V188.232H96.1558V189.983C95.1451 190.02 94.3851 190.207 93.8784 190.548C93.3731 190.89 93.0144 191.348 92.8064 191.926C92.5958 192.502 92.4864 193.184 92.4784 193.97C92.4704 194.758 92.4664 195.63 92.4664 196.592V219.398C92.4664 220.376 92.4518 221.215 92.4251 221.915C92.3998 222.614 92.3518 223.19 92.2824 223.647L96.1558 223.435V225.764H84.0904V224.01C85.1011 223.978 85.8611 223.794 86.3678 223.459C86.8731 223.13 87.2291 222.675 87.4411 222.098C87.6504 221.523 87.7571 220.835 87.7664 220.039C87.7771 219.244 87.7798 218.374 87.7798 217.43V194.231Z" fill="#232120"/>
<path d="M114.842 206.015C114.842 207.341 114.966 208.717 115.21 210.141C115.453 211.561 115.824 212.957 116.32 214.32C116.818 215.681 117.446 216.98 118.206 218.208C118.965 219.441 119.865 220.512 120.902 221.432C121.941 222.348 123.11 223.075 124.41 223.617C125.71 224.157 127.162 224.429 128.766 224.429C130.233 224.429 131.577 224.208 132.797 223.763C134.018 223.317 135.118 222.705 136.096 221.929C137.073 221.151 137.928 220.233 138.661 219.177C139.394 218.121 140.005 216.988 140.494 215.772C140.981 214.56 141.352 213.264 141.608 211.881C141.858 210.504 141.985 209.212 141.985 208.004C141.985 206.713 141.845 205.283 141.565 203.709C141.288 202.14 140.877 200.668 140.336 199.296C139.794 197.927 139.132 196.644 138.346 195.447C137.562 194.252 136.653 193.209 135.625 192.329C134.596 191.448 133.446 190.756 132.182 190.251C130.918 189.741 129.544 189.488 128.062 189.488C125.862 189.488 123.933 189.977 122.278 190.953C120.618 191.931 119.24 193.208 118.14 194.777C117.041 196.349 116.218 198.119 115.668 200.083C115.118 202.048 114.842 204.027 114.842 206.015ZM109.582 206.997C109.582 205.496 109.748 203.969 110.08 202.417C110.41 200.864 110.917 199.36 111.597 197.903C112.28 196.447 113.133 195.081 114.162 193.807C115.192 192.535 116.396 191.415 117.774 190.455C119.153 189.496 120.714 188.741 122.46 188.193C124.205 187.644 126.133 187.368 128.245 187.368C130.426 187.368 132.41 187.647 134.197 188.205C135.986 188.764 137.589 189.517 139.001 190.469C140.414 191.423 141.641 192.537 142.678 193.82C143.718 195.1 144.581 196.473 145.268 197.929C145.958 199.384 146.474 200.892 146.813 202.443C147.153 203.996 147.324 205.515 147.324 206.997C147.324 208.481 147.153 209.993 146.813 211.539C146.474 213.083 145.968 214.584 145.296 216.041C144.625 217.499 143.774 218.868 142.744 220.151C141.713 221.432 140.508 222.553 139.118 223.513C137.73 224.473 136.169 225.233 134.433 225.791C132.697 226.349 130.774 226.629 128.662 226.629C126.396 226.629 124.348 226.36 122.525 225.817C120.701 225.275 119.082 224.539 117.669 223.605C116.256 222.671 115.04 221.573 114.017 220.307C112.997 219.043 112.157 217.685 111.506 216.236C110.852 214.789 110.368 213.275 110.053 211.697C109.738 210.116 109.582 208.551 109.582 206.997Z" fill="#232120"/>
<path d="M167.778 206.92C168.335 206.954 168.874 206.985 169.387 207.01C169.902 207.036 170.474 207.034 171.102 206.998C172.568 206.945 173.907 206.758 175.119 206.434C176.331 206.114 177.378 205.612 178.259 204.929C179.14 204.25 179.827 203.373 180.315 202.302C180.802 201.226 181.046 199.914 181.046 198.361C181.046 195.673 180.276 193.646 178.73 192.276C177.188 190.906 174.764 190.221 171.468 190.221C170.455 190.221 169.696 190.374 169.191 190.677C168.684 190.984 168.327 191.414 168.118 191.973C167.907 192.534 167.8 193.204 167.79 193.989C167.78 194.776 167.778 195.648 167.778 196.609V206.92ZM171.416 209.012C170.822 209.049 170.22 209.061 169.611 209.053C169 209.044 168.388 209.012 167.778 208.961V219.396C167.778 220.377 167.764 221.213 167.739 221.914C167.711 222.614 167.664 223.189 167.594 223.646L171.468 223.436V225.765H159.402V224.009C160.412 223.977 161.174 223.793 161.679 223.462C162.186 223.129 162.543 222.676 162.752 222.098C162.962 221.522 163.07 220.837 163.079 220.044C163.087 219.25 163.092 218.38 163.092 217.437V194.256C163.092 193.52 163.106 192.828 163.131 192.17C163.158 191.517 163.207 190.918 163.275 190.378L159.402 190.614V188.232C161.426 188.197 163.458 188.17 165.5 188.153C167.543 188.138 169.6 188.144 171.678 188.177C174.26 188.232 176.47 188.481 178.312 188.926C180.152 189.37 181.663 190.002 182.84 190.822C184.018 191.644 184.882 192.638 185.431 193.806C185.982 194.977 186.256 196.302 186.256 197.784C186.256 198.833 186.118 199.9 185.835 200.992C185.558 202.082 185.043 203.116 184.294 204.093C183.543 205.07 182.518 205.942 181.218 206.71C179.918 207.48 178.247 208.069 176.204 208.49C176.903 208.997 177.532 209.646 178.088 210.429C178.648 211.218 179.259 212.136 179.922 213.182L183.586 218.925C184.04 219.64 184.476 220.31 184.896 220.93C185.315 221.552 185.772 222.089 186.267 222.544C186.766 222.997 187.324 223.356 187.944 223.617C188.562 223.881 189.294 224.009 190.131 224.009V225.765H183.376C182.855 225.313 182.384 224.857 181.964 224.402C181.544 223.949 181.147 223.48 180.772 222.992C180.396 222.502 180.035 222 179.688 221.485C179.338 220.972 178.97 220.417 178.587 219.822L175 214.092C174.756 213.708 174.504 213.293 174.242 212.848C173.982 212.402 173.702 211.954 173.406 211.502C173.107 211.046 172.794 210.606 172.462 210.177C172.13 209.752 171.783 209.362 171.416 209.012Z" fill="#232120"/>
<path d="M207.517 194.231C207.517 193.496 207.529 192.806 207.557 192.148C207.583 191.491 207.631 190.894 207.701 190.351L203.827 190.587V188.232H215.892V189.983C214.879 190.02 214.123 190.207 213.616 190.548C213.109 190.89 212.752 191.348 212.541 191.926C212.333 192.502 212.224 193.184 212.216 193.97C212.207 194.758 212.203 195.63 212.203 196.592V219.398C212.203 220.376 212.191 221.215 212.163 221.915C212.136 222.614 212.089 223.19 212.017 223.647L215.892 223.435V225.764H203.827V224.01C204.839 223.978 205.597 223.794 206.105 223.459C206.611 223.13 206.968 222.675 207.177 222.098C207.387 221.523 207.496 220.835 207.505 220.039C207.513 219.244 207.517 218.374 207.517 217.43V194.231Z" fill="#232120"/>
<path d="M260.62 199.564C260.585 197.978 260.462 196.592 260.253 195.416C260.045 194.238 259.677 193.26 259.153 192.483C258.629 191.708 257.925 191.13 257.034 190.746C256.144 190.362 255.01 190.168 253.632 190.168L249.102 190.195L249.025 219.403C249.025 221.32 248.973 222.736 248.866 223.647L253.318 223.435V225.764H240.729V224.01C241.722 223.978 242.472 223.783 242.978 223.434C243.484 223.086 243.842 222.619 244.052 222.035C244.261 221.45 244.366 220.764 244.366 219.98V217.436L244.445 190.248L238.896 190.272C237.762 190.272 236.806 190.462 236.03 190.836C235.253 191.212 234.62 191.782 234.133 192.551C233.644 193.318 233.289 194.282 233.072 195.442C232.853 196.602 232.745 197.978 232.745 199.564H230.756L231.069 188.232H262.32L262.636 199.564H260.62Z" fill="#232120"/>
<path d="M289.856 211.305L280.563 196.559C279.639 195.127 278.957 193.927 278.521 192.957C278.084 191.988 277.796 191.164 277.657 190.483L274.333 190.613V188.232H288.153V190.011C286.913 190.011 285.972 190.156 285.327 190.443C284.681 190.731 284.265 191.132 284.083 191.648C283.9 192.164 283.927 192.777 284.163 193.495C284.397 194.208 284.785 194.995 285.327 195.848C285.989 196.912 286.617 197.92 287.211 198.871C287.804 199.824 288.397 200.76 288.993 201.685C289.584 202.609 290.2 203.552 290.836 204.512C291.473 205.472 292.175 206.483 292.944 207.548H293.049C297.044 199.94 299.424 195.44 300.195 194.041C300.96 192.647 301.467 191.765 301.711 191.399C301.956 191.035 302.208 190.711 302.472 190.429L298.229 190.613V188.232H309.172V190.011C308.28 190.064 307.488 190.236 306.788 190.536C306.092 190.833 305.435 191.264 304.827 191.833C304.216 192.399 303.627 193.107 303.059 193.955C302.491 194.803 299.644 200.053 294.515 209.709C294.495 211.437 294.484 213.485 294.473 215.851C294.465 218.219 294.471 219.403 294.488 219.403C294.488 221.321 294.435 222.736 294.331 223.647L298.779 223.436V225.765H286.189V224.009C287.183 223.977 287.935 223.783 288.441 223.435C288.947 223.085 289.305 222.619 289.513 222.035C289.723 221.449 289.828 220.765 289.828 219.98V217.437L289.856 211.305Z" fill="#232120"/>
<path d="M360.659 209.407C361.322 209.493 361.904 209.545 362.4 209.561C362.898 209.581 363.478 209.589 364.142 209.589C365.659 209.589 367.094 209.363 368.447 208.908C369.798 208.456 370.975 207.799 371.98 206.936C372.983 206.072 373.776 205.024 374.36 203.785C374.946 202.547 375.239 201.147 375.239 199.577C375.239 197.887 374.967 196.449 374.427 195.265C373.887 194.081 373.127 193.116 372.15 192.377C371.172 191.639 370.004 191.101 368.642 190.768C367.282 190.439 365.78 190.272 364.142 190.272C363.182 190.272 362.46 190.425 361.98 190.731C361.5 191.035 361.16 191.465 360.96 192.023C360.759 192.581 360.659 193.248 360.659 194.023V196.623V209.407ZM362.571 211.656H361.746C361.37 211.656 361.01 211.648 360.659 211.629V219.393C360.659 220.375 360.646 221.212 360.622 221.915C360.595 222.611 360.546 223.189 360.475 223.647L365.423 223.381V225.764H352.283V224.009C353.295 223.977 354.055 223.792 354.562 223.46C355.067 223.129 355.424 222.675 355.632 222.099C355.844 221.523 355.952 220.835 355.96 220.041C355.97 219.251 355.975 218.379 355.975 217.436V194.256C355.975 193.52 355.987 192.827 356.014 192.171C356.04 191.516 356.087 190.919 356.156 190.379L352.283 190.613V188.231C354.168 188.195 356.104 188.175 358.095 188.165C360.083 188.157 362.134 188.153 364.244 188.153C369.446 188.153 373.398 189.027 376.103 190.769C378.999 192.672 380.447 195.453 380.447 199.119C380.447 199.869 380.364 200.699 380.199 201.605C380.032 202.513 379.696 203.451 379.19 204.419C378.684 205.387 377.988 206.315 377.108 207.195C376.23 208.076 375.12 208.843 373.787 209.496C372.452 210.151 370.858 210.676 369.01 211.067C367.16 211.46 365.012 211.656 362.571 211.656Z" fill="#232120"/>
<path d="M399.111 201.109C398.29 203.411 397.57 205.442 396.952 207.194C396.332 208.947 395.778 210.515 395.29 211.893H407.696L403.874 201.633L401.467 195.035H401.362L399.111 201.109ZM392.62 219.943C392.479 220.363 392.358 220.739 392.252 221.073C392.148 221.405 392.043 221.711 391.939 221.99C391.835 222.27 391.728 222.541 391.624 222.805C391.52 223.067 391.406 223.349 391.286 223.646L395.472 223.435V225.763H385.447V224.01C386.25 224.01 386.904 223.85 387.411 223.526C387.916 223.202 388.344 222.746 388.694 222.15C389.042 221.557 389.36 220.851 389.648 220.027C389.936 219.209 390.264 218.303 390.63 217.305L401.675 187.21H402.959L414.919 217.749C415.078 218.117 415.238 218.559 415.403 219.074C415.57 219.589 415.726 220.117 415.875 220.658C416.023 221.198 416.136 221.731 416.215 222.258C416.294 222.781 416.323 223.242 416.307 223.646L419.971 223.435V225.763H407.696V224.01C408.69 223.994 409.422 223.81 409.894 223.459C410.364 223.109 410.662 222.682 410.784 222.174C410.906 221.669 410.906 221.125 410.784 220.546C410.662 219.97 410.504 219.426 410.312 218.922L408.427 213.879L394.478 214.195C394.094 215.299 393.754 216.31 393.458 217.227C393.159 218.146 392.882 219.051 392.62 219.943Z" fill="#232120"/>
<path d="M432.22 226.181H429.447L429.132 214.769H431.199C431.304 216.36 431.644 217.749 432.22 218.947C432.796 220.141 433.551 221.14 434.484 221.943C435.418 222.745 436.506 223.352 437.744 223.763C438.983 224.173 440.307 224.376 441.722 224.376C442.768 224.376 443.759 224.231 444.692 223.944C445.626 223.657 446.446 223.229 447.152 222.66C447.859 222.096 448.418 221.392 448.827 220.556C449.238 219.717 449.443 218.76 449.443 217.676C449.443 216.369 449.154 215.244 448.58 214.3C448.004 213.357 447.24 212.527 446.29 211.803C445.338 211.077 444.255 210.424 443.043 209.837C441.831 209.252 440.595 208.668 439.34 208.083C438.083 207.499 436.85 206.879 435.638 206.225C434.423 205.569 433.342 204.813 432.391 203.949C431.439 203.084 430.676 202.077 430.099 200.927C429.526 199.772 429.236 198.403 429.236 196.817C429.236 196.205 429.307 195.551 429.447 194.853C429.586 194.155 429.816 193.456 430.139 192.76C430.463 192.061 430.89 191.384 431.423 190.731C431.955 190.075 432.622 189.499 433.424 189.004C434.227 188.504 435.179 188.108 436.278 187.813C437.376 187.515 438.651 187.368 440.098 187.368C440.796 187.368 441.538 187.411 442.323 187.497C443.108 187.585 443.907 187.733 444.719 187.941C445.53 188.153 446.336 188.436 447.139 188.793C447.942 189.152 448.71 189.6 449.443 190.144L449.235 187.837H451.956V199.592H450.018C449.931 198.296 449.683 197.041 449.272 195.824C448.862 194.608 448.264 193.535 447.479 192.597C446.695 191.66 445.726 190.909 444.574 190.34C443.422 189.772 442.062 189.488 440.49 189.488C439.375 189.488 438.39 189.657 437.534 189.999C436.679 190.34 435.963 190.799 435.388 191.376C434.811 191.952 434.375 192.621 434.079 193.379C433.782 194.14 433.635 194.941 433.635 195.78C433.635 197.004 433.926 198.064 434.511 198.965C435.095 199.868 435.867 200.665 436.827 201.365C437.787 202.064 438.876 202.703 440.098 203.28C441.32 203.856 442.568 204.436 443.842 205.02C445.116 205.605 446.363 206.233 447.584 206.907C448.804 207.577 449.896 208.355 450.856 209.235C451.816 210.116 452.587 211.144 453.172 212.313C453.756 213.48 454.05 214.86 454.05 216.447C454.05 217.929 453.77 219.296 453.211 220.543C452.654 221.791 451.842 222.863 450.778 223.763C449.712 224.66 448.4 225.363 446.839 225.869C445.276 226.375 443.502 226.627 441.512 226.627C440.71 226.627 439.886 226.572 439.038 226.457C438.192 226.343 437.356 226.173 436.526 225.947C435.696 225.72 434.894 225.432 434.119 225.083C433.342 224.733 432.622 224.332 431.96 223.879L432.22 226.181Z" fill="#232120"/>
<path d="M469.309 226.181H466.534L466.221 214.769H468.288C468.393 216.36 468.733 217.749 469.309 218.947C469.885 220.141 470.64 221.14 471.573 221.943C472.505 222.745 473.593 223.352 474.832 223.763C476.07 224.173 477.394 224.376 478.81 224.376C479.857 224.376 480.846 224.231 481.781 223.944C482.713 223.657 483.534 223.229 484.24 222.66C484.948 222.096 485.505 221.392 485.917 220.556C486.325 219.717 486.53 218.76 486.53 217.676C486.53 216.369 486.242 215.244 485.668 214.3C485.092 213.357 484.328 212.527 483.377 211.803C482.426 211.077 481.342 210.424 480.132 209.837C478.918 209.252 477.684 208.668 476.428 208.083C475.172 207.499 473.938 206.879 472.725 206.225C471.512 205.569 470.429 204.813 469.48 203.949C468.528 203.084 467.764 202.077 467.189 200.927C466.614 199.772 466.326 198.403 466.326 196.817C466.326 196.205 466.394 195.551 466.534 194.853C466.673 194.155 466.905 193.456 467.226 192.76C467.552 192.061 467.978 191.384 468.51 190.731C469.044 190.075 469.71 189.499 470.513 189.004C471.316 188.504 472.266 188.108 473.365 187.813C474.462 187.515 475.737 187.368 477.186 187.368C477.885 187.368 478.626 187.411 479.412 187.497C480.196 187.585 480.996 187.733 481.808 187.941C482.617 188.153 483.425 188.436 484.228 188.793C485.029 189.152 485.797 189.6 486.53 190.144L486.321 187.837H489.044V199.592H487.106C487.02 198.296 486.77 197.041 486.36 195.824C485.95 194.608 485.353 193.535 484.568 192.597C483.782 191.66 482.816 190.909 481.662 190.34C480.51 189.772 479.15 189.488 477.578 189.488C476.461 189.488 475.477 189.657 474.622 189.999C473.765 190.34 473.052 190.799 472.477 191.376C471.898 191.952 471.462 192.621 471.168 193.379C470.87 194.14 470.724 194.941 470.724 195.78C470.724 197.004 471.013 198.064 471.598 198.965C472.182 199.868 472.954 200.665 473.914 201.365C474.876 202.064 475.965 202.703 477.186 203.28C478.409 203.856 479.656 204.436 480.929 205.02C482.204 205.605 483.452 206.233 484.672 206.907C485.893 207.577 486.985 208.355 487.944 209.235C488.904 210.116 489.674 211.144 490.261 212.313C490.845 213.48 491.138 214.86 491.138 216.447C491.138 217.929 490.857 219.296 490.301 220.543C489.74 221.791 488.93 222.863 487.866 223.763C486.802 224.66 485.488 225.363 483.926 225.869C482.365 226.375 480.59 226.627 478.598 226.627C477.797 226.627 476.974 226.572 476.126 226.457C475.281 226.343 474.444 226.173 473.614 225.947C472.785 225.72 471.982 225.432 471.206 225.083C470.429 224.733 469.71 224.332 469.046 223.879L469.309 226.181Z" fill="#232120"/>
<path d="M512.81 187.878L512.904 191.503H511.849C511.849 190.654 511.674 190.015 511.326 189.585C510.977 189.155 510.493 188.943 509.873 188.949L509.108 188.957V196.457C509.108 196.602 509.106 196.745 509.104 196.886C509.101 197.026 509.097 197.161 509.09 197.289C509.086 197.415 509.08 197.531 509.072 197.635C509.064 197.741 509.056 197.826 509.045 197.894L510.326 197.847V199.081H505.654V198.026C505.832 198.021 505.992 198.005 506.134 197.975C506.278 197.947 506.397 197.89 506.494 197.799C506.589 197.711 506.665 197.577 506.717 197.394C506.769 197.211 506.794 196.959 506.794 196.635V188.971H506.053C505.444 188.971 504.962 189.178 504.612 189.589C504.26 190.002 504.081 190.638 504.076 191.503H503.021L503.116 187.878H512.81Z" fill="#232120"/>
<path d="M525.831 190.472L522.558 199.237H521.066L518.917 193.972C518.855 193.827 518.775 193.627 518.679 193.375C518.582 193.121 518.482 192.836 518.378 192.52C518.274 192.201 518.171 191.859 518.07 191.492C517.969 191.124 517.875 190.748 517.793 190.363H517.777C517.793 190.963 517.805 191.524 517.815 192.051C517.826 192.577 517.829 193.081 517.823 193.565L517.801 196.456C517.801 196.603 517.799 196.745 517.797 196.887C517.794 197.027 517.789 197.161 517.781 197.288C517.773 197.416 517.765 197.532 517.755 197.636C517.749 197.741 517.741 197.827 517.73 197.893L518.941 197.847V199.081H515.293V198.027C515.47 198.016 515.629 197.999 515.769 197.972C515.91 197.947 516.027 197.889 516.125 197.8C516.221 197.712 516.295 197.577 516.347 197.393C516.399 197.212 516.427 196.959 516.433 196.636L516.526 190.503C516.526 190.357 516.529 190.215 516.533 190.075C516.539 189.933 516.545 189.799 516.55 189.671C516.555 189.544 516.562 189.428 516.57 189.324C516.578 189.22 516.586 189.133 516.597 189.065L515.386 189.113V187.879H518.923L521.347 194.075C521.419 194.261 521.499 194.472 521.585 194.707C521.671 194.941 521.755 195.175 521.839 195.409C521.922 195.644 521.999 195.867 522.07 196.077C522.139 196.288 522.195 196.463 522.238 196.597H522.253C522.389 196.227 522.515 195.869 522.633 195.523C522.749 195.176 522.875 194.832 523.011 194.488L525.479 187.879H529.175V188.933C528.993 188.944 528.83 188.963 528.687 188.988C528.543 189.013 528.421 189.071 528.319 189.16C528.218 189.248 528.142 189.384 528.093 189.565C528.043 189.748 528.025 190.001 528.033 190.324L528.277 196.456C528.282 196.603 528.283 196.745 528.281 196.887C528.278 197.027 528.274 197.161 528.269 197.288C528.263 197.416 528.255 197.532 528.246 197.636C528.235 197.741 528.225 197.827 528.214 197.893L529.417 197.847V199.081H524.971V198.027C525.149 198.016 525.31 197.999 525.457 197.972C525.602 197.947 525.726 197.889 525.827 197.8C525.929 197.712 526.005 197.577 526.054 197.393C526.103 197.212 526.123 196.959 526.113 196.636L525.978 193.245C525.974 193.152 525.967 193 525.957 192.788C525.946 192.577 525.934 192.341 525.921 192.081C525.909 191.821 525.895 191.549 525.882 191.265C525.867 190.981 525.858 190.717 525.847 190.472H525.831Z" fill="#232120"/>
</svg>
