<svg width="266" height="59" viewBox="0 0 186 42" fill="none" xmlns="http://www.w3.org/2000/svg">
<path fill-rule="evenodd" clip-rule="evenodd" d="M41.4587 11.4072C37.7493 5.01443 30.3305 0.558959 21.7404 0.558959C19.4953 0.558959 17.2501 0.849503 15.2979 1.4307C21.8381 2.01177 27.4997 5.88616 30.5258 11.4072H41.4587Z" fill="#CE0058"/>
<path fill-rule="evenodd" clip-rule="evenodd" d="M20.6602 9.16711C18.7103 8.00178 16.4679 7.41911 14.128 7.41911C6.71855 7.41911 0.673828 13.4398 0.673828 20.8199C0.673828 28.2 6.71855 34.2207 14.128 34.2207C16.4679 34.2207 18.7103 33.541 20.6602 32.4729C15.493 31.1133 11.5932 26.4522 11.5932 20.8199C11.5932 15.1878 15.493 10.4295 20.6602 9.16711Z" fill="#96172E"/>
<path fill-rule="evenodd" clip-rule="evenodd" d="M16.5977 40.3634C18.5499 40.8505 20.7951 41.2402 23.0401 41.2402C31.6303 41.2402 39.0491 36.7591 42.7585 30.2323H31.8255C28.7995 35.785 23.1378 39.6816 16.5977 40.3634Z" fill="#E89CAE"/>
<path fill-rule="evenodd" clip-rule="evenodd" d="M61.38 29.1152C64.3164 29.1152 66.1761 28.0439 67.8399 26.291L66.6654 25.1223C65.0994 26.5831 63.6312 27.4596 61.38 27.4596C57.7585 27.4596 55.1158 24.5379 55.1158 20.7398C55.1158 16.9415 57.7585 14.0199 61.38 14.0199C63.6312 14.0199 65.1973 14.9938 66.5675 16.2598L67.7421 14.8963C66.1761 13.4355 64.4142 12.3643 61.38 12.3643C56.584 12.3643 53.1582 16.1625 53.1582 20.7398V20.8371C53.1582 25.5118 56.6818 29.1152 61.38 29.1152ZM77.2363 29.1152C82.2281 29.1152 85.6538 25.2197 85.6538 20.7398C85.6538 16.2598 82.326 12.3643 77.3342 12.3643C72.3424 12.3643 69.0145 16.2598 69.0145 20.7398V20.8371C69.0145 25.317 72.3423 29.1152 77.2363 29.1152ZM77.3342 27.4596C73.6148 27.4596 70.8742 24.4406 70.8742 20.7398C70.8742 17.039 73.5169 14.0199 77.2363 14.0199C80.9557 14.0199 83.6962 17.039 83.6962 20.7398V20.8371C83.6962 24.5379 81.0536 27.4596 77.3342 27.4596ZM88.5903 28.9205H99.6503V27.1674H90.4498V12.6565H88.5903V28.9205ZM102.097 28.9205H113.06V27.1674H103.957V12.6565H102.097V28.9205ZM115.702 28.9205H117.562V12.6565H115.702V28.9205ZM121.379 28.9205H123.239V15.578L133.712 28.9205H135.18V12.6565H133.418V25.6093L123.141 12.6565H121.379V28.9205ZM144.479 29.1152C147.709 29.1152 150.058 27.2649 150.058 24.5379V24.4406C150.058 22.0058 148.394 20.6423 144.772 19.8632C141.151 19.0842 140.27 18.2076 140.27 16.7467V16.6494C140.27 15.1886 141.64 14.0199 143.794 14.0199C145.457 14.0199 147.024 14.6042 148.492 15.7728L149.568 14.4094C147.904 13.0459 146.24 12.3643 143.794 12.3643C140.759 12.3643 138.508 14.3121 138.508 16.8442C138.508 19.5711 140.172 20.7398 143.989 21.6162C147.415 22.2979 148.198 23.1745 148.198 24.6353V24.7327C148.198 26.291 146.73 27.4596 144.577 27.4596C142.325 27.4596 140.661 26.6804 138.997 25.1223L137.823 26.4856C139.781 28.2387 141.934 29.1152 144.479 29.1152ZM160.433 29.1152C165.425 29.1152 168.753 25.2197 168.753 20.7398C168.753 16.2598 165.425 12.3643 160.531 12.3643C155.539 12.3643 152.113 16.2598 152.113 20.7398V20.8371C152.113 25.317 155.441 29.1152 160.433 29.1152ZM160.531 27.4596C156.811 27.4596 154.071 24.4406 154.071 20.7398C154.071 17.039 156.713 14.0199 160.433 14.0199C164.152 14.0199 166.893 17.039 166.893 20.7398V20.8371C166.893 24.5379 164.25 27.4596 160.531 27.4596ZM171.787 28.9205H173.549V15.578L184.119 28.9205H185.588V12.6565H183.728V25.6093L173.451 12.6565H171.787V28.9205Z" fill="#4B4F54"/>
</svg>
