<svg  viewBox="0 0 192 192" fill="none" xmlns="http://www.w3.org/2000/svg">
<rect width="192" height="192" rx="96" fill="white"/>
<path fill-rule="evenodd" clip-rule="evenodd" d="M164.153 63.2783C151.406 41.3103 125.913 25.9997 96.3938 25.9997C88.6789 25.9997 80.9636 26.9981 74.2549 28.9954C96.7296 30.9921 116.185 44.3059 126.584 63.2783H164.153Z" fill="#CE0058"/>
<path fill-rule="evenodd" clip-rule="evenodd" d="M92.6803 55.5806C85.9798 51.5761 78.2741 49.5738 70.2335 49.5738C44.7718 49.5738 24 70.263 24 95.6238C24 120.985 44.7718 141.674 70.2335 141.674C78.2741 141.674 85.9798 139.338 92.6803 135.668C74.9239 130.996 61.5229 114.978 61.5229 95.6238C61.5229 76.2698 74.9239 59.9187 92.6803 55.5806Z" fill="#96172E"/>
<path fill-rule="evenodd" clip-rule="evenodd" d="M78.7207 162.782C85.4294 164.456 93.1445 165.795 100.859 165.795C130.378 165.795 155.872 150.396 168.619 127.968H131.049C120.651 147.049 101.195 160.439 78.7207 162.782Z" fill="#E89CAE"/>
</svg>
