<?xml version="1.0" encoding="UTF-8" standalone="no"?>
<svg
   xmlns:dc="http://purl.org/dc/elements/1.1/"
   xmlns:cc="http://creativecommons.org/ns#"
   xmlns:rdf="http://www.w3.org/1999/02/22-rdf-syntax-ns#"
   xmlns:svg="http://www.w3.org/2000/svg"
   xmlns="http://www.w3.org/2000/svg"
   viewBox="0 0 604.724 415.74799"
   xml:space="preserve"
   id="svg2"
   version="1.1"><metadata
     id="metadata8"><rdf:RDF><cc:Work
         rdf:about=""><dc:format>image/svg+xml</dc:format><dc:type
           rdf:resource="http://purl.org/dc/dcmitype/StillImage" /></cc:Work></rdf:RDF></metadata><defs
     id="defs6"><clipPath
       id="clipPath18"
       clipPathUnits="userSpaceOnUse"><path
         id="path16"
         d="M 0,311.811 H 453.543 V 0 H 0 Z" /></clipPath></defs><g
     transform="matrix(1.3333333,0,0,-1.3333333,0,415.748)"
     id="g10"><g
       id="g12"><g
         clip-path="url(#clipPath18)"
         id="g14"><g
           transform="translate(223.93,129.8458)"
           id="g20"><path
             id="path22"
             style="fill:#917a2c;fill-opacity:1;fill-rule:nonzero;stroke:none"
             d="M 0,0 H 9.11 V -1.533 H -40.822 V 0 h 9.027 l 0.25,-0.002 c 3.282,0 5.163,0.469 6.353,1.336 1.191,0.863 1.921,2.19 2.192,3.975 0.271,1.785 0.405,5.562 0.405,11.333 l 0.017,-0.044 v 85.035 h -18.244 v 1.571 h 1.468 c 16.396,0 25.025,6.077 30.05,7.896 V 16.615 16.607 c 0,-5.77 0.136,-9.548 0.407,-11.334 C -8.628,3.489 -7.899,2.164 -6.708,1.299 -5.517,0.432 -3.282,0 0,0" /></g><g
           transform="translate(233.0413,128.3126)"
           id="g24"><path
             id="path26"
             style="fill:#917a2c;fill-opacity:1;fill-rule:nonzero;stroke:none"
             d="m 0,0 c -2.652,0 -8.357,0.052 -10.086,1.308 -1.463,1.065 -2.366,2.677 -2.686,4.793 -0.283,1.866 -0.421,5.633 -0.421,11.52 v 95.142 h 2.48 V 17.629 c 0,-5.69 0.131,-9.44 0.392,-11.155 0.22,-1.458 0.775,-2.491 1.694,-3.16 C -7.844,2.744 -3.503,1.536 0,1.536 Z" /></g><g
           transform="translate(220.326,184.6744)"
           id="g28"><path
             id="path30"
             style="fill:#917a2c;fill-opacity:1;fill-rule:nonzero;stroke:none"
             d="m 0,0 v 1.56 h 3.459 c 11.424,0 28.687,-0.453 28.687,28.402 0,25.333 -15.043,24.863 -24.998,24.863 H 0 v 1.576 h 12.507 c 35.214,0 36.999,-23.279 36.999,-27.946 0,-9.444 -4.329,-17.37 -12.187,-22.321 C 27.64,0 14.931,0 8.822,0 Z" /></g><g
           transform="translate(34.4085,84.256)"
           id="g32"><path
             id="path34"
             style="fill:#232120;fill-opacity:1;fill-rule:nonzero;stroke:none"
             d="m 0,0 c 0.499,-0.065 0.934,-0.104 1.305,-0.116 0.375,-0.015 0.809,-0.023 1.306,-0.023 1.139,0 2.215,0.172 3.23,0.511 1.013,0.341 1.897,0.834 2.65,1.481 0.751,0.648 1.347,1.434 1.785,2.362 0.441,0.93 0.658,1.98 0.658,3.157 0,1.266 -0.203,2.346 -0.608,3.234 -0.405,0.888 -0.975,1.612 -1.707,2.166 -0.734,0.554 -1.61,0.957 -2.632,1.207 -1.02,0.247 -2.145,0.372 -3.376,0.372 -0.719,0 -1.26,-0.116 -1.619,-0.344 C 0.631,13.778 0.376,13.456 0.226,13.038 0.075,12.619 0,12.119 0,11.535 V 9.587 Z m 1.434,-1.687 h -0.62 c -0.28,0 -0.552,0.005 -0.814,0.02 V -7.49 c 0,-0.736 -0.009,-1.364 -0.028,-1.891 -0.021,-0.524 -0.057,-0.956 -0.109,-1.299 l 3.711,0.199 v -1.788 h -9.856 v 1.317 c 0.759,0.024 1.329,0.162 1.708,0.41 0.379,0.25 0.649,0.59 0.806,1.023 0.156,0.432 0.239,0.946 0.244,1.541 0.007,0.595 0.011,1.249 0.011,1.956 v 17.385 c 0,0.552 0.01,1.072 0.03,1.564 0.019,0.49 0.055,0.939 0.106,1.344 l -2.905,-0.176 v 1.786 c 1.415,0.026 2.866,0.043 4.359,0.05 1.492,0.006 3.028,0.009 4.611,0.009 3.901,0 6.867,-0.655 8.895,-1.964 2.172,-1.425 3.258,-3.512 3.258,-6.26 0,-0.563 -0.063,-1.187 -0.187,-1.865 C 14.53,5.17 14.278,4.467 13.897,3.738 13.518,3.015 12.999,2.319 12.338,1.659 11.677,0.998 10.847,0.423 9.845,-0.067 8.843,-0.558 7.649,-0.952 6.263,-1.247 4.874,-1.54 3.266,-1.687 1.434,-1.687" /></g><g
           transform="translate(63.7801,86.1212)"
           id="g36"><path
             id="path38"
             style="fill:#232120;fill-opacity:1;fill-rule:nonzero;stroke:none"
             d="m 0,0 c 0.418,-0.026 0.821,-0.049 1.208,-0.068 0.385,-0.019 0.814,-0.018 1.285,0.009 1.1,0.04 2.103,0.18 3.013,0.423 0.91,0.24 1.694,0.617 2.356,1.129 0.66,0.509 1.174,1.167 1.542,1.97 0.365,0.807 0.549,1.791 0.549,2.956 0,2.016 -0.579,3.536 -1.738,4.564 -1.157,1.027 -2.973,1.541 -5.447,1.541 -0.76,0 -1.328,-0.115 -1.707,-0.342 C 0.681,11.952 0.413,11.629 0.255,11.21 0.098,10.789 0.017,10.287 0.01,9.698 0.002,9.108 0,8.454 0,7.733 Z M 2.729,-1.569 C 2.283,-1.597 1.833,-1.606 1.375,-1.6 0.917,-1.593 0.458,-1.569 0,-1.531 v -7.826 c 0,-0.736 -0.009,-1.363 -0.029,-1.889 -0.021,-0.525 -0.055,-0.956 -0.108,-1.299 l 2.905,0.158 v -1.747 h -9.05 v 1.317 c 0.759,0.024 1.328,0.162 1.708,0.41 0.379,0.25 0.649,0.59 0.806,1.023 0.156,0.432 0.238,0.946 0.244,1.541 0.006,0.595 0.011,1.248 0.011,1.955 V 9.498 c 0,0.552 0.009,1.071 0.029,1.564 0.02,0.49 0.056,0.939 0.106,1.344 l -2.904,-0.177 v 1.787 c 1.518,0.026 3.042,0.046 4.574,0.059 1.532,0.011 3.076,0.007 4.632,-0.018 1.937,-0.041 3.596,-0.228 4.976,-0.562 1.382,-0.333 2.513,-0.807 3.396,-1.422 0.885,-0.616 1.533,-1.362 1.945,-2.238 0.413,-0.878 0.617,-1.872 0.617,-2.983 0,-0.787 -0.104,-1.587 -0.315,-2.406 C 13.335,3.628 12.95,2.853 12.387,2.12 11.824,1.387 11.055,0.733 10.08,0.157 9.104,-0.42 7.853,-0.862 6.321,-1.178 c 0.524,-0.38 0.995,-0.867 1.412,-1.454 0.421,-0.592 0.878,-1.28 1.375,-2.065 l 2.747,-4.307 c 0.341,-0.536 0.669,-1.039 0.982,-1.504 0.317,-0.466 0.659,-0.869 1.031,-1.21 0.374,-0.34 0.793,-0.609 1.257,-0.805 0.463,-0.198 1.011,-0.294 1.64,-0.294 v -1.317 H 11.7 c -0.393,0.339 -0.746,0.681 -1.06,1.022 -0.315,0.34 -0.612,0.692 -0.894,1.058 -0.283,0.367 -0.553,0.744 -0.814,1.13 -0.264,0.385 -0.537,0.801 -0.825,1.247 l -2.69,4.298 c -0.184,0.288 -0.373,0.599 -0.568,0.933 -0.196,0.334 -0.406,0.67 -0.628,1.009 -0.224,0.342 -0.459,0.672 -0.707,0.994 -0.249,0.319 -0.511,0.611 -0.785,0.874" /></g><g
           transform="translate(93.5848,95.6378)"
           id="g40"><path
             id="path42"
             style="fill:#232120;fill-opacity:1;fill-rule:nonzero;stroke:none"
             d="M 0,0 C 0,0.551 0.01,1.069 0.03,1.562 0.049,2.055 0.085,2.503 0.138,2.91 L -2.767,2.733 V 4.499 H 6.282 V 3.186 C 5.524,3.158 4.954,3.018 4.574,2.762 4.195,2.506 3.926,2.162 3.77,1.729 3.612,1.297 3.53,0.785 3.524,0.196 3.518,-0.395 3.515,-1.049 3.515,-1.771 v -17.104 c 0,-0.734 -0.011,-1.363 -0.031,-1.888 -0.019,-0.524 -0.055,-0.956 -0.107,-1.299 l 2.905,0.159 v -1.747 h -9.049 v 1.316 c 0.758,0.024 1.328,0.162 1.708,0.413 0.379,0.247 0.646,0.588 0.805,1.021 0.157,0.431 0.237,0.947 0.244,1.544 0.008,0.596 0.01,1.249 0.01,1.957 z" /></g><g
           transform="translate(113.8817,86.7999)"
           id="g44"><path
             id="path46"
             style="fill:#232120;fill-opacity:1;fill-rule:nonzero;stroke:none"
             d="m 0,0 c 0,-0.995 0.093,-2.027 0.276,-3.095 0.182,-1.065 0.46,-2.112 0.832,-3.134 0.374,-1.021 0.845,-1.995 1.415,-2.916 0.569,-0.925 1.244,-1.728 2.022,-2.418 0.779,-0.687 1.656,-1.232 2.631,-1.639 0.975,-0.405 2.064,-0.609 3.267,-0.609 1.1,0 2.108,0.166 3.023,0.5 0.916,0.334 1.741,0.793 2.474,1.375 0.733,0.584 1.374,1.272 1.924,2.064 0.55,0.792 1.008,1.642 1.375,2.554 0.365,0.909 0.643,1.881 0.835,2.918 0.188,1.033 0.283,2.002 0.283,2.908 0,0.968 -0.105,2.041 -0.315,3.221 -0.208,1.177 -0.516,2.281 -0.922,3.31 -0.406,1.027 -0.903,1.989 -1.492,2.887 -0.588,0.896 -1.27,1.678 -2.041,2.338 -0.772,0.661 -1.634,1.18 -2.582,1.559 -0.948,0.382 -1.979,0.572 -3.09,0.572 -1.65,0 -3.097,-0.367 -4.338,-1.099 C 4.332,10.563 3.298,9.605 2.473,8.428 1.649,7.249 1.032,5.922 0.619,4.449 0.207,2.975 0,1.491 0,0 m -3.945,-0.737 c 0,1.126 0.124,2.271 0.373,3.435 0.248,1.165 0.628,2.293 1.138,3.386 0.512,1.092 1.152,2.116 1.924,3.072 0.772,0.954 1.675,1.794 2.709,2.514 1.034,0.719 2.205,1.285 3.514,1.696 1.309,0.412 2.755,0.619 4.339,0.619 1.636,0 3.124,-0.209 4.464,-0.628 1.342,-0.419 2.544,-0.984 3.603,-1.698 1.06,-0.715 1.98,-1.551 2.758,-2.513 0.78,-0.96 1.427,-1.99 1.942,-3.082 0.518,-1.091 0.905,-2.222 1.159,-3.385 0.255,-1.165 0.383,-2.304 0.383,-3.416 0,-1.113 -0.128,-2.247 -0.383,-3.406 -0.254,-1.158 -0.634,-2.284 -1.138,-3.377 -0.503,-1.093 -1.141,-2.12 -1.914,-3.082 -0.773,-0.961 -1.677,-1.802 -2.719,-2.522 -1.041,-0.72 -2.212,-1.29 -3.514,-1.708 -1.302,-0.419 -2.744,-0.629 -4.328,-0.629 -1.7,0 -3.236,0.202 -4.603,0.609 -1.368,0.407 -2.582,0.959 -3.642,1.659 -1.06,0.701 -1.972,1.524 -2.739,2.474 -0.765,0.948 -1.395,1.966 -1.883,3.053 -0.491,1.085 -0.854,2.221 -1.09,3.404 -0.236,1.186 -0.353,2.36 -0.353,3.525" /></g><g
           transform="translate(153.5833,86.1212)"
           id="g48"><path
             id="path50"
             style="fill:#232120;fill-opacity:1;fill-rule:nonzero;stroke:none"
             d="m 0,0 c 0.418,-0.026 0.822,-0.049 1.207,-0.068 0.386,-0.019 0.815,-0.018 1.286,0.009 1.1,0.04 2.104,0.18 3.013,0.423 0.909,0.24 1.694,0.617 2.355,1.129 0.661,0.509 1.176,1.167 1.542,1.97 0.365,0.807 0.548,1.791 0.548,2.956 0,2.016 -0.577,3.536 -1.737,4.564 C 7.058,12.01 5.24,12.524 2.768,12.524 2.008,12.524 1.439,12.409 1.06,12.182 0.68,11.952 0.412,11.629 0.255,11.21 0.097,10.789 0.017,10.287 0.009,9.698 0.002,9.108 0,8.454 0,7.733 Z M 2.729,-1.569 C 2.283,-1.597 1.832,-1.606 1.375,-1.6 0.917,-1.593 0.458,-1.569 0,-1.531 v -7.826 c 0,-0.736 -0.01,-1.363 -0.029,-1.889 -0.021,-0.525 -0.056,-0.956 -0.109,-1.299 l 2.906,0.158 v -1.747 h -9.05 v 1.317 c 0.758,0.024 1.329,0.162 1.708,0.41 0.38,0.25 0.648,0.59 0.805,1.023 0.157,0.432 0.238,0.946 0.245,1.541 0.006,0.595 0.01,1.248 0.01,1.955 V 9.498 c 0,0.552 0.01,1.071 0.029,1.564 0.02,0.49 0.057,0.939 0.108,1.344 l -2.905,-0.177 v 1.787 c 1.518,0.026 3.042,0.046 4.574,0.059 1.532,0.011 3.075,0.007 4.633,-0.018 1.937,-0.041 3.594,-0.228 4.976,-0.562 1.38,-0.333 2.513,-0.807 3.396,-1.422 0.883,-0.616 1.531,-1.362 1.943,-2.238 0.413,-0.878 0.619,-1.872 0.619,-2.983 0,-0.787 -0.104,-1.587 -0.316,-2.406 C 13.335,3.628 12.949,2.853 12.387,2.12 11.824,1.387 11.055,0.733 10.08,0.157 9.105,-0.42 7.852,-0.862 6.32,-1.178 c 0.524,-0.38 0.996,-0.867 1.413,-1.454 0.42,-0.592 0.878,-1.28 1.375,-2.065 l 2.748,-4.307 c 0.341,-0.536 0.668,-1.039 0.983,-1.504 0.314,-0.466 0.657,-0.869 1.028,-1.21 0.374,-0.34 0.793,-0.609 1.258,-0.805 0.463,-0.198 1.012,-0.294 1.64,-0.294 v -1.317 h -5.066 c -0.391,0.339 -0.744,0.681 -1.059,1.022 -0.315,0.34 -0.613,0.692 -0.894,1.058 -0.282,0.367 -0.553,0.744 -0.813,1.13 -0.263,0.385 -0.539,0.801 -0.826,1.247 l -2.69,4.298 c -0.183,0.288 -0.372,0.599 -0.569,0.933 -0.195,0.334 -0.405,0.67 -0.627,1.009 -0.224,0.342 -0.459,0.672 -0.708,0.994 -0.249,0.319 -0.509,0.611 -0.784,0.874" /></g><g
           transform="translate(183.388,95.6378)"
           id="g52"><path
             id="path54"
             style="fill:#232120;fill-opacity:1;fill-rule:nonzero;stroke:none"
             d="M 0,0 C 0,0.551 0.009,1.069 0.03,1.562 0.049,2.055 0.085,2.503 0.138,2.91 L -2.768,2.733 V 4.499 H 6.281 V 3.186 C 5.521,3.158 4.954,3.018 4.574,2.762 4.194,2.506 3.926,2.162 3.768,1.729 3.612,1.297 3.53,0.785 3.524,0.196 3.517,-0.395 3.514,-1.049 3.514,-1.771 v -17.104 c 0,-0.734 -0.009,-1.363 -0.03,-1.888 -0.02,-0.524 -0.055,-0.956 -0.109,-1.299 l 2.906,0.159 v -1.747 h -9.049 v 1.316 c 0.759,0.024 1.328,0.162 1.709,0.413 0.379,0.247 0.647,0.588 0.804,1.021 0.157,0.431 0.239,0.947 0.246,1.544 0.006,0.596 0.009,1.249 0.009,1.957 z" /></g><g
           transform="translate(223.2147,91.6378)"
           id="g56"><path
             id="path58"
             style="fill:#232120;fill-opacity:1;fill-rule:nonzero;stroke:none"
             d="m 0,0 c -0.026,1.19 -0.118,2.229 -0.275,3.111 -0.156,0.884 -0.432,1.617 -0.825,2.2 -0.393,0.581 -0.921,1.015 -1.589,1.303 -0.668,0.288 -1.518,0.433 -2.552,0.433 l -3.397,-0.02 -0.058,-21.906 c 0,-1.438 -0.039,-2.5 -0.119,-3.183 l 3.339,0.159 v -1.747 h -9.442 v 1.316 c 0.745,0.024 1.307,0.17 1.687,0.432 0.379,0.261 0.648,0.611 0.805,1.049 0.157,0.439 0.236,0.953 0.236,1.541 v 1.908 l 0.059,20.391 -4.162,-0.018 c -0.85,0 -1.567,-0.142 -2.149,-0.423 C -19.025,6.264 -19.5,5.837 -19.865,5.26 -20.232,4.685 -20.498,3.962 -20.661,3.092 -20.825,2.222 -20.906,1.19 -20.906,0 h -1.492 l 0.235,8.499 H 1.275 L 1.512,0 Z" /></g><g
           transform="translate(245.1419,82.8321)"
           id="g60"><path
             id="path62"
             style="fill:#232120;fill-opacity:1;fill-rule:nonzero;stroke:none"
             d="m 0,0 -6.97,11.06 c -0.693,1.074 -1.204,1.974 -1.531,2.701 -0.328,0.727 -0.544,1.345 -0.648,1.856 l -2.493,-0.098 v 1.786 h 10.365 v -1.334 c -0.93,0 -1.636,-0.109 -2.12,-0.324 -0.484,-0.216 -0.796,-0.517 -0.933,-0.904 -0.137,-0.387 -0.117,-0.847 0.06,-1.385 0.176,-0.535 0.467,-1.125 0.873,-1.765 0.497,-0.798 0.968,-1.554 1.413,-2.267 0.445,-0.715 0.89,-1.417 1.337,-2.111 0.443,-0.693 0.905,-1.4 1.382,-2.12 0.478,-0.72 1.004,-1.478 1.581,-2.277 h 0.079 c 2.996,5.706 4.781,9.081 5.359,10.13 0.574,1.046 0.954,1.707 1.137,1.982 0.184,0.273 0.373,0.516 0.571,0.727 L 6.28,15.519 v 1.786 h 8.207 V 15.971 C 13.818,15.931 13.224,15.802 12.699,15.577 12.177,15.354 11.684,15.031 11.228,14.604 10.77,14.18 10.328,13.649 9.902,13.013 9.476,12.377 7.341,8.439 3.494,1.197 3.479,-0.099 3.471,-1.635 3.463,-3.409 3.457,-5.185 3.461,-6.073 3.474,-6.073 c 0,-1.439 -0.04,-2.5 -0.118,-3.183 l 3.336,0.158 v -1.747 H -2.75 v 1.317 c 0.745,0.024 1.309,0.17 1.689,0.431 0.379,0.262 0.648,0.612 0.804,1.05 0.157,0.439 0.236,0.952 0.236,1.541 v 1.907 z" /></g><g
           transform="translate(298.2444,84.256)"
           id="g64"><path
             id="path66"
             style="fill:#232120;fill-opacity:1;fill-rule:nonzero;stroke:none"
             d="m 0,0 c 0.497,-0.065 0.934,-0.104 1.306,-0.116 0.373,-0.015 0.808,-0.021 1.306,-0.021 1.138,0 2.214,0.17 3.229,0.511 1.013,0.339 1.896,0.832 2.65,1.479 0.752,0.648 1.347,1.434 1.785,2.363 0.439,0.929 0.659,1.979 0.659,3.156 0,1.268 -0.204,2.346 -0.609,3.234 -0.405,0.888 -0.975,1.612 -1.708,2.166 -0.733,0.554 -1.609,0.957 -2.631,1.207 -1.02,0.247 -2.146,0.372 -3.375,0.372 -0.72,0 -1.261,-0.115 -1.621,-0.344 C 0.631,13.779 0.376,13.456 0.226,13.038 0.075,12.619 0,12.119 0,11.538 V 9.588 Z M 1.434,-1.687 H 0.815 c -0.282,0 -0.552,0.006 -0.815,0.02 V -7.49 c 0,-0.736 -0.01,-1.364 -0.028,-1.891 -0.02,-0.522 -0.057,-0.956 -0.11,-1.299 l 3.711,0.199 v -1.787 h -9.855 v 1.316 c 0.759,0.024 1.329,0.163 1.709,0.412 0.379,0.248 0.647,0.589 0.803,1.021 0.159,0.432 0.24,0.948 0.246,1.543 0.007,0.593 0.011,1.247 0.011,1.954 v 17.385 c 0,0.552 0.009,1.072 0.029,1.564 0.02,0.491 0.055,0.939 0.107,1.344 l -2.905,-0.176 v 1.787 c 1.414,0.027 2.866,0.042 4.359,0.049 1.491,0.006 3.029,0.009 4.612,0.009 3.901,0 6.865,-0.655 8.894,-1.962 2.172,-1.427 3.258,-3.513 3.258,-6.262 0,-0.563 -0.062,-1.185 -0.186,-1.865 C 14.53,5.17 14.278,4.467 13.898,3.741 13.519,3.015 12.997,2.319 12.337,1.659 11.678,0.998 10.846,0.423 9.846,-0.067 8.845,-0.558 7.649,-0.952 6.263,-1.245 4.876,-1.54 3.265,-1.687 1.434,-1.687" /></g><g
           transform="translate(327.0833,90.4796)"
           id="g68"><path
             id="path70"
             style="fill:#232120;fill-opacity:1;fill-rule:nonzero;stroke:none"
             d="M 0,0 C -0.616,-1.727 -1.156,-3.25 -1.619,-4.564 -2.084,-5.879 -2.5,-7.055 -2.866,-8.088 H 6.439 L 3.572,-0.393 1.767,4.555 H 1.688 Z m -4.868,-14.126 c -0.106,-0.315 -0.197,-0.597 -0.276,-0.847 -0.078,-0.249 -0.157,-0.479 -0.235,-0.688 -0.078,-0.21 -0.158,-0.413 -0.236,-0.611 -0.078,-0.197 -0.164,-0.408 -0.254,-0.631 l 3.14,0.158 v -1.746 h -7.519 v 1.315 c 0.602,0 1.093,0.12 1.473,0.363 0.379,0.243 0.7,0.585 0.962,1.032 0.261,0.445 0.5,0.974 0.716,1.592 0.216,0.614 0.462,1.293 0.736,2.042 l 8.284,22.571 h 0.963 l 8.97,-22.904 c 0.119,-0.276 0.239,-0.608 0.363,-0.994 0.125,-0.386 0.242,-0.782 0.354,-1.188 0.111,-0.405 0.196,-0.805 0.255,-1.2 0.059,-0.392 0.081,-0.738 0.069,-1.041 l 2.748,0.158 v -1.746 H 6.439 v 1.315 c 0.745,0.012 1.294,0.15 1.648,0.413 0.353,0.263 0.576,0.583 0.668,0.964 0.091,0.379 0.091,0.787 0,1.221 -0.092,0.432 -0.21,0.84 -0.354,1.218 L 6.987,-9.578 -3.475,-9.815 c -0.288,-0.828 -0.543,-1.586 -0.765,-2.274 -0.224,-0.689 -0.432,-1.368 -0.628,-2.037" /></g><g
           transform="translate(351.9153,71.6749)"
           id="g72"><path
             id="path74"
             style="fill:#232120;fill-opacity:1;fill-rule:nonzero;stroke:none"
             d="m 0,0 h -2.08 l -0.236,8.559 h 1.55 C -0.687,7.366 -0.432,6.324 0,5.426 0.432,4.53 0.998,3.781 1.698,3.179 2.398,2.577 3.214,2.122 4.143,1.814 5.072,1.506 6.065,1.354 7.126,1.354 c 0.785,0 1.528,0.109 2.228,0.324 0.7,0.215 1.315,0.536 1.845,0.963 0.53,0.423 0.949,0.951 1.256,1.578 0.308,0.629 0.462,1.347 0.462,2.16 0,0.98 -0.217,1.824 -0.647,2.532 -0.432,0.707 -1.005,1.33 -1.718,1.873 -0.714,0.544 -1.526,1.034 -2.435,1.474 -0.909,0.439 -1.836,0.877 -2.777,1.316 -0.943,0.438 -1.868,0.903 -2.777,1.393 -0.911,0.492 -1.722,1.059 -2.435,1.707 -0.714,0.649 -1.286,1.404 -1.719,2.267 -0.43,0.866 -0.647,1.893 -0.647,3.082 0,0.459 0.053,0.95 0.158,1.473 0.104,0.524 0.277,1.048 0.519,1.57 0.243,0.524 0.563,1.032 0.963,1.522 0.399,0.492 0.899,0.924 1.501,1.295 0.602,0.375 1.316,0.672 2.14,0.893 0.824,0.224 1.78,0.334 2.865,0.334 0.524,0 1.08,-0.032 1.669,-0.097 0.589,-0.066 1.188,-0.177 1.797,-0.333 0.608,-0.159 1.213,-0.371 1.815,-0.639 0.602,-0.269 1.178,-0.605 1.728,-1.013 l -0.156,1.73 h 2.041 v -8.816 h -1.454 c -0.065,0.972 -0.251,1.913 -0.559,2.826 -0.308,0.912 -0.756,1.717 -1.345,2.42 -0.588,0.703 -1.315,1.266 -2.179,1.693 C 8.401,27.307 7.381,27.52 6.202,27.52 5.366,27.52 4.627,27.393 3.985,27.137 3.344,26.881 2.807,26.537 2.376,26.104 1.943,25.672 1.616,25.17 1.394,24.602 1.171,24.031 1.061,23.43 1.061,22.801 c 0,-0.918 0.218,-1.713 0.657,-2.389 0.438,-0.677 1.017,-1.275 1.737,-1.8 0.72,-0.524 1.537,-1.003 2.453,-1.436 0.917,-0.432 1.853,-0.867 2.808,-1.305 0.956,-0.439 1.891,-0.91 2.807,-1.415 0.915,-0.503 1.734,-1.086 2.454,-1.746 0.72,-0.661 1.298,-1.432 1.737,-2.309 0.438,-0.875 0.658,-1.91 0.658,-3.1 0,-1.112 -0.21,-2.137 -0.629,-3.072 C 15.325,3.293 14.716,2.489 13.918,1.814 13.119,1.141 12.135,0.614 10.964,0.234 9.792,-0.145 8.461,-0.334 6.969,-0.334 c -0.602,0 -1.22,0.041 -1.856,0.127 C 4.479,-0.121 3.852,0.006 3.229,0.176 2.607,0.346 2.005,0.562 1.424,0.824 0.841,1.086 0.301,1.387 -0.195,1.727 Z" /></g><g
           transform="translate(379.7318,71.6749)"
           id="g76"><path
             id="path78"
             style="fill:#232120;fill-opacity:1;fill-rule:nonzero;stroke:none"
             d="m 0,0 h -2.081 l -0.235,8.559 h 1.55 C -0.687,7.366 -0.432,6.324 0,5.426 0.432,4.53 0.998,3.781 1.698,3.179 2.397,2.577 3.213,2.122 4.142,1.814 5.071,1.506 6.064,1.354 7.126,1.354 c 0.785,0 1.527,0.109 2.228,0.324 0.699,0.215 1.315,0.536 1.844,0.963 0.531,0.423 0.949,0.951 1.258,1.578 0.306,0.629 0.46,1.347 0.46,2.16 0,0.98 -0.216,1.824 -0.647,2.532 -0.432,0.707 -1.005,1.33 -1.718,1.873 -0.713,0.544 -1.526,1.034 -2.434,1.474 -0.91,0.439 -1.836,0.877 -2.778,1.316 -0.942,0.438 -1.867,0.903 -2.777,1.393 -0.91,0.492 -1.722,1.059 -2.434,1.707 -0.714,0.649 -1.287,1.404 -1.718,2.267 -0.431,0.866 -0.647,1.893 -0.647,3.082 0,0.459 0.051,0.95 0.156,1.473 0.104,0.524 0.278,1.048 0.519,1.57 0.244,0.524 0.564,1.032 0.963,1.522 0.4,0.492 0.9,0.924 1.502,1.295 0.602,0.375 1.315,0.672 2.139,0.893 0.823,0.224 1.779,0.334 2.866,0.334 0.524,0 1.08,-0.032 1.669,-0.097 0.588,-0.066 1.188,-0.177 1.797,-0.333 0.607,-0.159 1.213,-0.371 1.815,-0.639 0.601,-0.269 1.177,-0.605 1.727,-1.013 l -0.157,1.73 h 2.042 v -8.816 h -1.453 c -0.065,0.972 -0.252,1.913 -0.56,2.826 -0.307,0.912 -0.755,1.717 -1.344,2.42 -0.589,0.703 -1.314,1.266 -2.179,1.693 C 8.401,27.307 7.381,27.52 6.202,27.52 5.364,27.52 4.626,27.393 3.985,27.137 3.342,26.881 2.807,26.537 2.376,26.104 1.942,25.672 1.615,25.17 1.394,24.602 1.171,24.031 1.061,23.43 1.061,22.801 c 0,-0.918 0.217,-1.713 0.656,-2.389 0.438,-0.677 1.017,-1.275 1.737,-1.8 0.721,-0.524 1.538,-1.003 2.454,-1.436 0.917,-0.432 1.852,-0.867 2.807,-1.305 0.956,-0.439 1.892,-0.91 2.807,-1.415 0.916,-0.503 1.735,-1.086 2.454,-1.746 0.72,-0.661 1.298,-1.432 1.738,-2.309 0.438,-0.875 0.658,-1.91 0.658,-3.1 0,-1.112 -0.211,-2.137 -0.628,-3.072 C 15.323,3.293 14.716,2.489 13.918,1.814 13.12,1.141 12.134,0.614 10.963,0.234 9.792,-0.145 8.461,-0.334 6.967,-0.334 6.366,-0.334 5.749,-0.293 5.113,-0.207 4.479,-0.121 3.851,0.006 3.229,0.176 2.607,0.346 2.005,0.562 1.423,0.824 0.84,1.086 0.301,1.387 -0.197,1.727 Z" /></g><g
           transform="translate(412.3577,100.4025)"
           id="g80"><path
             id="path82"
             style="fill:#232120;fill-opacity:1;fill-rule:nonzero;stroke:none"
             d="m 0,0 0.07,-2.719 h -0.791 c 0,0.637 -0.131,1.116 -0.392,1.439 -0.262,0.322 -0.625,0.481 -1.09,0.477 l -0.574,-0.006 v -5.625 c 0,-0.109 -10e-4,-0.216 -0.003,-0.322 -0.002,-0.105 -0.005,-0.206 -0.01,-0.302 -0.003,-0.095 -0.008,-0.182 -0.014,-0.26 -0.006,-0.079 -0.012,-0.143 -0.02,-0.194 l 0.961,0.035 v -0.925 h -3.504 v 0.791 c 0.133,0.004 0.253,0.016 0.36,0.038 0.108,0.021 0.197,0.064 0.27,0.132 0.071,0.066 0.128,0.167 0.167,0.304 0.039,0.137 0.058,0.326 0.058,0.569 v 5.748 h -0.556 c -0.457,0 -0.818,-0.155 -1.081,-0.463 -0.264,-0.31 -0.398,-0.787 -0.402,-1.436 H -7.342 L -7.271,0 Z" /></g><g
           transform="translate(422.1234,98.4571)"
           id="g84"><path
             id="path86"
             style="fill:#232120;fill-opacity:1;fill-rule:nonzero;stroke:none"
             d="m 0,0 -2.455,-6.574 h -1.119 l -1.612,3.949 c -0.046,0.109 -0.106,0.259 -0.178,0.448 -0.073,0.19 -0.148,0.404 -0.226,0.641 -0.078,0.239 -0.155,0.496 -0.231,0.771 -0.076,0.276 -0.146,0.558 -0.208,0.847 h -0.012 c 0.012,-0.45 0.021,-0.871 0.029,-1.266 0.008,-0.395 0.01,-0.773 0.006,-1.136 l -0.017,-2.168 c 0,-0.11 -0.001,-0.217 -0.003,-0.323 -0.002,-0.105 -0.006,-0.206 -0.012,-0.301 -0.006,-0.096 -0.012,-0.183 -0.019,-0.261 -0.005,-0.079 -0.011,-0.143 -0.019,-0.193 l 0.908,0.035 v -0.926 h -2.736 v 0.791 c 0.133,0.008 0.252,0.021 0.357,0.041 0.106,0.019 0.194,0.062 0.267,0.129 0.072,0.066 0.128,0.167 0.167,0.305 0.039,0.136 0.06,0.326 0.064,0.568 l 0.07,4.6 c 0,0.109 0.002,0.216 0.005,0.321 0.005,0.106 0.009,0.207 0.013,0.303 0.004,0.095 0.009,0.182 0.015,0.26 0.006,0.078 0.012,0.143 0.02,0.194 L -7.834,1.019 v 0.926 h 2.653 l 1.818,-4.647 c 0.054,-0.14 0.114,-0.298 0.178,-0.474 0.065,-0.176 0.128,-0.351 0.191,-0.527 0.062,-0.176 0.12,-0.343 0.173,-0.501 0.052,-0.158 0.094,-0.289 0.126,-0.39 h 0.011 c 0.102,0.278 0.197,0.546 0.285,0.806 0.087,0.26 0.182,0.518 0.284,0.776 l 1.851,4.957 H 2.508 V 1.154 C 2.371,1.146 2.249,1.132 2.142,1.113 2.034,1.094 1.942,1.051 1.866,0.984 1.79,0.918 1.733,0.816 1.696,0.68 1.659,0.543 1.645,0.353 1.651,0.111 L 1.834,-4.488 C 1.838,-4.598 1.839,-4.705 1.837,-4.811 1.835,-4.916 1.832,-5.017 1.828,-5.112 1.824,-5.208 1.818,-5.295 1.811,-5.373 1.803,-5.452 1.795,-5.516 1.787,-5.566 l 0.902,0.035 v -0.926 h -3.334 v 0.791 c 0.133,0.008 0.254,0.021 0.364,0.041 0.109,0.019 0.202,0.062 0.278,0.129 0.076,0.066 0.133,0.167 0.17,0.305 0.037,0.136 0.052,0.326 0.044,0.568 L 0.11,-2.08 C 0.107,-2.01 0.102,-1.896 0.094,-1.737 0.086,-1.579 0.077,-1.402 0.067,-1.207 0.058,-1.012 0.048,-0.808 0.038,-0.595 0.027,-0.382 0.02,-0.184 0.012,0 Z" /></g></g></g></g></svg>