<?xml version="1.0" encoding="UTF-8" standalone="no"?>
<svg
   xmlns:dc="http://purl.org/dc/elements/1.1/"
   xmlns:cc="http://creativecommons.org/ns#"
   xmlns:rdf="http://www.w3.org/1999/02/22-rdf-syntax-ns#"
   xmlns:svg="http://www.w3.org/2000/svg"
   xmlns="http://www.w3.org/2000/svg"
   viewBox="0 0 203.60001 72.519997"
   xml:space="preserve"
   id="svg2"
   version="1.1"><metadata
     id="metadata8"><rdf:RDF><cc:Work
         rdf:about=""><dc:format>image/svg+xml</dc:format><dc:type
           rdf:resource="http://purl.org/dc/dcmitype/StillImage" /></cc:Work></rdf:RDF></metadata><defs
     id="defs6" /><g
     transform="matrix(1.3333333,0,0,-1.3333333,0,72.52)"
     id="g10"><g
       transform="scale(0.1)"
       id="g12"><path
         id="path14"
         style="fill:#21262f;fill-opacity:1;fill-rule:nonzero;stroke:none"
         d="m 806.863,188.898 h 12.871 v -68.121 l 65.52,68.121 h 16.625 L 852.988,139.02 904,74.8164 H 887.855 L 844.027,130.063 819.734,105.445 V 74.8164 H 806.863 V 188.898" /><path
         id="path16"
         style="fill:#21262f;fill-opacity:1;fill-rule:nonzero;stroke:none"
         d="m 924.047,188.898 h 82.463 v -11.742 h -69.584 v -38.945 h 62.262 V 126.473 H 936.926 V 86.5391 h 70.414 V 74.8164 H 924.047 V 188.898" /><path
         id="path18"
         style="fill:#21262f;fill-opacity:1;fill-rule:nonzero;stroke:none"
         d="m 1068.94,119.961 -47.43,68.941 h 15.65 l 38.46,-57.039 38.8,57.039 h 14.99 l -47.43,-68.781 V 74.8203 h -13.04 v 45.1407" /><path
         id="path20"
         style="fill:#21262f;fill-opacity:1;fill-rule:nonzero;stroke:none"
         d="m 1200.29,356.43 c 0,5.75 -1.38,8.621 -4.15,8.621 l -28.86,-0.957 c -5.21,4.902 -11.83,8.785 -19.86,11.656 -8.04,2.883 -16.19,4.309 -24.49,4.309 -15.62,0 -29.1,-5.469 -40.43,-16.434 -11.32,-10.977 -16.99,-23.809 -16.99,-38.488 0,-9.168 2.56,-17.461 7.66,-24.91 5.13,-7.461 12.24,-13.418 21.41,-17.891 -8.41,-1.496 -16.53,-4.43 -24.35,-8.797 -7.82,-4.387 -11.74,-8.488 -11.74,-12.328 0,-5.445 2.21,-10.816 6.23,-16.406 7.2,-10.008 24.23,-20.114 45.03,-20.114 l 37.05,-0.793 c 11.38,-0.218 19.51,-1.914 24.35,-5.105 4.84,-3.18 7.26,-8.43 7.26,-15.758 0,-10.832 -5.79,-19.965 -17.82,-27.39 -3.45,-2.137 -7.64,-3.95 -10.67,-5.477 V 158.66 c 7.59,2.93 14.08,6.606 20.59,11.094 18.72,12.891 27.97,27.953 27.97,45.199 0,11.387 -4.49,20.274 -13.34,26.66 -8.87,6.383 -21.29,9.739 -37.21,10.067 l -36.96,0.48 c -7.43,0.106 -13.23,1.356 -17.36,3.75 -4.15,2.403 -6.21,5.445 -6.21,9.188 0,2.965 2.49,5.632 7.48,7.871 4.98,2.234 11.71,3.394 20.2,3.394 h 6.37 c 16.23,0 29.94,5.063 41.13,15.285 11.2,10.211 16.79,22.969 16.79,38.301 0,6.278 -1.18,12.446 -3.52,18.504 l 20.29,-0.644 c 2.77,0 4.15,2.867 4.15,8.621 m -77.21,-69.942 c -9.45,0 -16.22,3.055 -20.3,9.18 -4.08,6.117 -6.13,15.945 -6.13,29.469 0,29.808 8.82,44.711 26.43,44.711 9.24,0 15.95,-3.196 20.14,-9.578 4.2,-6.399 6.29,-16.407 6.29,-30.028 0,-29.176 -8.8,-43.754 -26.43,-43.754" /><path
         id="path22"
         style="fill:#21262f;fill-opacity:1;fill-rule:nonzero;stroke:none"
         d="m 542.051,296.066 c -5,-18.746 -8.946,-38.324 -11.817,-58.757 -40.781,1.277 -69.781,1.91 -87.019,1.91 -17.043,0 -45.688,-0.633 -85.926,-1.91 -1.707,0 -2.547,1.484 -2.547,4.472 0,2.66 0.84,4.086 2.547,4.305 12.887,1.488 21.641,3.887 26.274,7.199 4.621,3.293 6.945,9.903 6.945,19.805 v 150.39 c 0,7.461 -0.938,12.7 -2.793,15.743 -1.871,3.031 -5.137,5.429 -9.828,7.195 -4.68,1.75 -11.547,3.164 -20.598,4.223 -1.707,0 -2.547,1.472 -2.547,4.398 0,2.926 0.84,4.383 2.547,4.383 7.133,0 15.656,-0.309 25.559,-0.953 9.472,-0.633 17.445,-0.957 23.949,-0.957 6.488,0 14.418,0.324 23.789,0.957 9.801,0.644 18.262,0.953 25.394,0.953 1.692,0 2.543,-1.457 2.543,-4.383 0,-2.926 -0.851,-4.398 -2.543,-4.398 -8.945,-1.059 -15.757,-2.473 -20.433,-4.223 -4.699,-1.766 -7.945,-4.137 -9.754,-7.121 -1.813,-2.984 -2.707,-8.254 -2.707,-15.817 V 268.305 c 0,-12.578 6.176,-18.864 18.519,-18.864 h 31.618 c 13.093,0 24.175,3.493 33.222,10.465 9.047,6.973 17.977,19.981 26.821,39.032 0.429,0.855 1.441,1.281 3.031,1.281 1.383,0 2.691,-0.426 3.914,-1.281 1.219,-0.852 1.84,-1.809 1.84,-2.872" /><path
         id="path24"
         style="fill:#21262f;fill-opacity:1;fill-rule:nonzero;stroke:none"
         d="m 704.77,305.328 c 0,-21.183 -6.899,-38.617 -20.704,-52.305 -13.796,-13.679 -31.675,-20.503 -53.628,-20.503 -21.961,0 -39.868,6.851 -53.715,20.597 -13.856,13.727 -20.785,31.129 -20.785,52.211 0,21.395 6.988,39.211 20.953,53.41 13.957,14.215 31.804,21.321 53.547,21.321 21.851,0 39.699,-7.079 53.554,-21.235 13.848,-14.152 20.778,-31.996 20.778,-53.496 m -32.25,0.328 c 0,19.481 -3.75,35.043 -11.27,46.696 -7.504,11.668 -17.805,17.496 -30.898,17.496 -12.989,0 -23.258,-5.856 -30.821,-17.571 -7.551,-11.707 -11.328,-27.246 -11.328,-46.621 0,-19.277 3.719,-34.574 11.18,-45.922 7.441,-11.343 17.773,-17.007 30.969,-17.007 13.199,0 23.527,5.621 30.988,16.847 7.445,11.239 11.18,26.586 11.18,46.082" /><path
         id="path26"
         style="fill:#21262f;fill-opacity:1;fill-rule:nonzero;stroke:none"
         d="m 870.59,247.758 c 0,-2.281 -0.856,-3.531 -2.559,-3.75 -19.379,-2.106 -32.636,-5.781 -39.754,-11.035 -1.5,-1.164 -2.988,-1.739 -4.472,-1.739 -2.133,0 -3.196,0.856 -3.196,2.563 l 1.282,20.113 c -15.758,-14.258 -30.032,-21.39 -42.801,-21.39 -14.594,0 -25.949,4.128 -34.09,12.386 -8.148,8.25 -12.223,19.477 -12.223,33.66 v 59.789 c 0,9.497 -1.226,15.774 -3.668,18.864 -2.453,3.09 -7.293,4.633 -14.535,4.633 -1.383,0 -2.926,-0.043 -4.633,-0.145 -1.586,0 -2.398,1.352 -2.398,4.078 0,3.34 0.855,5.016 2.559,5.016 12.3,0 28.445,2.394 48.394,7.195 1.91,0 2.867,-1.34 2.867,-4.004 v -87.816 c 0,-12.035 2.293,-20.793 6.883,-26.281 4.59,-5.489 11.805,-8.223 21.617,-8.223 6.293,0 11.84,1.18 16.657,3.516 4.793,2.355 9.925,6.503 15.371,12.476 v 70.691 c 0,9.375 -1.25,15.641 -3.75,18.79 -2.516,3.136 -7.493,4.707 -14.934,4.707 -1.281,0 -2.769,-0.043 -4.473,-0.145 -1.605,0 -2.402,1.352 -2.402,4.078 0,3.34 0.856,5.016 2.563,5.016 12.343,0 28.527,2.394 48.535,7.195 1.914,0 2.871,-1.34 2.871,-4.004 V 272.121 c 0,-7.355 1.047,-12.269 3.117,-14.769 2.074,-2.516 6.949,-4.297 14.613,-5.356 1.703,0 2.559,-1.41 2.559,-4.238" /><path
         id="path28"
         style="fill:#21262f;fill-opacity:1;fill-rule:nonzero;stroke:none"
         d="m 1047.84,241.773 c 0,-2.988 -0.85,-4.468 -2.56,-4.468 -4.25,0 -9.47,0.32 -15.64,0.957 -6.81,0.64 -12.81,0.949 -18,0.949 -5.32,0 -11.41,-0.309 -18.312,-0.949 -6.262,-0.637 -11.515,-0.957 -15.754,-0.957 -1.707,0 -2.547,1.48 -2.547,4.468 0,2.665 0.84,4.106 2.547,4.313 7.356,0.852 12.168,2.926 14.461,6.223 2.281,3.308 3.43,10.222 3.43,20.761 v 53.344 c 0,11.918 -2.34,20.645 -7.031,26.176 -4.68,5.547 -11.922,8.312 -21.719,8.312 -6.164,0 -11.621,-1.175 -16.36,-3.515 -4.742,-2.34 -9.828,-6.492 -15.257,-12.461 V 273.07 c 0,-10.539 1.148,-17.453 3.441,-20.761 2.281,-3.297 7.106,-5.371 14.449,-6.223 1.707,-0.207 2.543,-1.648 2.543,-4.313 0,-2.988 -0.836,-4.468 -2.543,-4.468 -4.371,0 -9.695,0.32 -15.976,0.957 -6.914,0.64 -12.981,0.949 -18.203,0.949 -5.102,0 -11.059,-0.309 -17.891,-0.949 -6.281,-0.637 -11.594,-0.957 -15.961,-0.957 -1.703,0 -2.559,1.48 -2.559,4.468 0,2.665 0.856,4.106 2.559,4.313 9.148,1.164 15.066,3.371 17.727,6.617 2.664,3.238 3.992,10.02 3.992,20.336 v 58.996 c 0,8.504 -1.09,14.082 -3.27,16.742 -2.191,2.653 -7.062,4.399 -14.605,5.254 -1.711,0 -2.567,1.41 -2.567,4.239 0,2.601 0.856,3.91 2.567,3.91 10.531,2.668 19.312,5.672 26.344,9.023 7.019,3.356 11.433,6.09 13.242,8.223 1.078,1.281 2.238,1.914 3.515,1.914 2.989,0 4.477,-0.856 4.477,-2.547 l -1.281,-20.129 c 15.3,14.274 29.539,21.395 42.722,21.395 14.45,0 25.75,-4.149 33.87,-12.45 8.14,-8.308 12.2,-19.476 12.2,-33.543 V 273.07 c 0,-10.433 1.3,-17.246 3.91,-20.441 2.6,-3.188 8.44,-5.363 17.48,-6.543 1.71,-0.207 2.56,-1.648 2.56,-4.313" /><path
         id="path30"
         style="fill:#21262f;fill-opacity:1;fill-rule:nonzero;stroke:none"
         d="m 1332.43,328.008 c 0,-2.985 -1.91,-4.477 -5.76,-4.477 h -87.51 c -0.63,-5.75 -0.95,-11.707 -0.95,-17.875 0,-17.152 4.07,-30.32 12.22,-39.531 8.14,-9.207 19.72,-13.816 34.73,-13.816 7.56,0 15.17,2.031 22.83,6.078 7.66,4.047 13.85,9.211 18.52,15.492 l 0.81,0.309 c 0.96,0 1.88,-0.59 2.8,-1.754 0.9,-1.176 1.35,-2.559 1.35,-4.145 0,-2.234 -3.41,-6.898 -10.23,-13.98 -6.81,-7.075 -14.2,-12.473 -22.18,-16.211 -7.99,-3.727 -16.35,-5.59 -25.07,-5.59 -19.17,0 -35.3,7.031 -48.39,21.086 -13.1,14.047 -19.64,31.304 -19.64,51.742 0,20.863 6.41,38.527 19.24,53.008 12.83,14.476 29.09,21.719 48.79,21.719 16.49,0 30.37,-5.403 41.59,-16.204 11.23,-10.808 16.85,-22.757 16.85,-35.851 m -29.06,14.051 c 0,7.988 -2.75,14.609 -8.22,19.879 -5.49,5.277 -12.54,7.914 -21.16,7.914 -8.21,0 -15.32,-3.442 -21.32,-10.301 -6.02,-6.871 -10.09,-15.891 -12.23,-27.074 l 44.41,1.281 c 6.69,0.101 11.46,0.738 14.29,1.914 2.82,1.176 4.23,3.297 4.23,6.387" /><path
         id="path32"
         style="fill:#3ab84a;fill-opacity:1;fill-rule:nonzero;stroke:none"
         d="M 318.398,543.934 0,202.289 v -66.93 l 380.766,408.575 h -62.368" /><path
         id="path34"
         style="fill:#3ab84a;fill-opacity:1;fill-rule:nonzero;stroke:none"
         d="m 1149.29,0 h 62.36 l 315.36,338.379 v 66.926 L 1149.29,0" /><path
         id="path36"
         style="fill:#21262f;fill-opacity:1;fill-rule:nonzero;stroke:none"
         d="m 1367.21,422.465 v -3.926 h -11.11 v -29.035 h -4.51 v 29.035 h -11.1 v 3.926 h 26.72" /><path
         id="path38"
         style="fill:#21262f;fill-opacity:1;fill-rule:nonzero;stroke:none"
         d="m 1372.22,422.465 h 6.39 l 9.48,-27.867 9.41,27.867 h 6.36 v -32.961 h -4.27 v 19.453 c 0,0.676 0.02,1.789 0.05,3.348 0.03,1.55 0.04,3.218 0.04,5 l -9.41,-27.801 h -4.42 l -9.5,27.801 v -1.008 c 0,-0.813 0.02,-2.039 0.07,-3.692 0.03,-1.656 0.05,-2.871 0.05,-3.648 v -19.453 h -4.25 v 32.961" /></g></g></svg>