<svg width="157" height="42" viewBox="0 0 157 42" fill="none" xmlns="http://www.w3.org/2000/svg">
<g clip-path="url(#clip0_390_99986)">
<path fill-rule="evenodd" clip-rule="evenodd" d="M53.1984 34.5751H53.3658C53.7916 34.5751 54.246 34.5183 54.246 33.9054V27.7336C54.246 27.1184 53.7916 27.0639 53.3658 27.0639H53.1995V26.7041C53.6641 26.7041 54.3758 26.7529 54.9599 26.7529C55.5543 26.7529 56.2671 26.7041 56.8251 26.7041V27.0628H56.6588C56.2318 27.0628 55.7786 27.1195 55.7786 27.7325V33.9042C55.7786 34.5195 56.2318 34.5751 56.6588 34.5751H56.8251V34.9304C56.2557 34.9304 55.5406 34.885 54.9462 34.885C54.3632 34.885 53.6641 34.9304 53.1995 34.9304L53.1984 34.5751ZM64.9952 32.609L65.0179 32.5863V28.1684C65.0179 27.2024 64.3404 27.0628 63.9817 27.0628H63.7221V26.7052C64.2801 26.7052 64.8289 26.7529 65.3869 26.7529C65.8731 26.7529 66.3627 26.7052 66.8478 26.7052V27.0628H66.6724C66.1714 27.0628 65.6112 27.1536 65.6112 28.5566V33.9178C65.6112 34.3299 65.6248 34.7408 65.6841 35.1063H65.232L59.1081 28.3455V33.197C59.1081 34.2255 59.3086 34.5751 60.2241 34.5751H60.4267V34.9304C59.9166 34.9304 59.4042 34.885 58.8918 34.885C58.36 34.885 57.8112 34.9304 57.2771 34.9304V34.5751H57.4434C58.2632 34.5751 58.5138 34.0245 58.5138 33.0801V28.1196C58.5138 27.4601 57.9649 27.0628 57.432 27.0628H57.2771V26.7052C57.7269 26.7052 58.1915 26.7529 58.6424 26.7529C59.0011 26.7529 59.3473 26.7052 59.7014 26.7052L64.9952 32.609ZM68.6287 27.2955C67.736 27.2955 67.7041 27.5077 67.5242 28.367H67.1678C67.2167 28.0378 67.2737 27.7087 67.3112 27.3647C67.3568 27.0355 67.383 26.7052 67.383 26.3658H67.6676C67.7644 26.7188 68.0605 26.7052 68.3816 26.7052H74.518C74.8368 26.7052 75.1363 26.6938 75.1602 26.3419L75.4426 26.3896C75.3993 26.7052 75.3515 27.0253 75.3139 27.3431C75.29 27.661 75.29 27.9788 75.29 28.2967L74.9347 28.4295C74.9108 27.9913 74.8493 27.2943 74.0534 27.2943H72.104V33.5637C72.104 34.4729 72.5207 34.5751 73.0912 34.5751H73.3155V34.9304C72.8532 34.9304 72.0197 34.8838 71.3775 34.8838C70.6658 34.8838 69.8312 34.9304 69.3677 34.9304V34.5751H69.5932C70.2491 34.5751 70.5793 34.5183 70.5793 33.5887V27.2955H68.6287ZM75.8241 34.5751H75.9903C76.4173 34.5751 76.8694 34.5183 76.8694 33.9054V27.7336C76.8694 27.1184 76.4173 27.0639 75.9903 27.0639H75.8241V26.7041C76.5471 26.7041 77.7883 26.7529 78.7846 26.7529C79.7844 26.7529 81.0199 26.7041 81.8249 26.7041C81.8056 27.2126 81.8181 27.9924 81.8534 28.5101L81.4936 28.6043C81.4366 27.8392 81.2943 27.2274 80.0452 27.2274H78.3963V30.3104H79.8072C80.5223 30.3104 80.6771 29.9131 80.7466 29.2774H81.1019C81.0791 29.736 81.0677 30.1946 81.0677 30.6543C81.0677 31.1027 81.0791 31.55 81.1019 31.9961L80.7466 32.0676C80.6771 31.3604 80.6407 30.9007 79.8186 30.9007H78.3952V33.6454C78.3952 34.4116 79.083 34.4116 79.8413 34.4116C81.2715 34.4116 81.9001 34.3174 82.2565 32.9745L82.589 33.0585C82.4341 33.684 82.2929 34.3038 82.1848 34.9315C81.4253 34.9315 80.0554 34.8838 78.9862 34.8838C77.9158 34.8838 76.5016 34.9304 75.8241 34.9304V34.5751ZM85.717 30.6884H86.2977C87.4876 30.6884 88.1287 30.2423 88.1287 28.8506C88.1287 27.8051 87.4512 27.1309 86.3933 27.1309C86.0335 27.1309 85.8821 27.1683 85.717 27.1785V30.6884ZM84.1957 27.955C84.1957 27.0945 83.7197 27.0616 83.3508 27.0616H83.1344V26.7052C83.5147 26.7052 84.2526 26.7529 84.9791 26.7529C85.6908 26.7529 86.2624 26.7052 86.8944 26.7052C88.3895 26.7052 89.7206 27.1059 89.7206 28.7814C89.7206 29.8404 89.01 30.4875 88.0695 30.8564L90.1055 33.869C90.4368 34.3685 90.6725 34.507 91.2555 34.5751V34.9304C90.8638 34.9304 90.4835 34.8838 90.0918 34.8838C89.7206 34.8838 89.3414 34.9304 88.9736 34.9304C88.0581 33.7419 87.2724 32.4671 86.5004 31.1118H85.717V33.6329C85.717 34.5433 86.144 34.5751 86.6894 34.5751H86.9058V34.9304C86.226 34.9304 85.537 34.8838 84.8595 34.8838C84.2902 34.8838 83.73 34.9304 83.1344 34.9304V34.5751H83.3508C83.788 34.5751 84.1957 34.3776 84.1957 33.9394V27.955ZM99.3288 32.609L99.3516 32.5863V28.1684C99.3516 27.2024 98.6741 27.0628 98.3188 27.0628H98.0569V26.7052C98.616 26.7052 99.1603 26.7529 99.7217 26.7529C100.211 26.7529 100.696 26.7052 101.185 26.7052V27.0628H101.008C100.507 27.0628 99.9483 27.1536 99.9483 28.5566V33.9178C99.9483 34.3299 99.9585 34.7408 100.017 35.1063H99.5679L93.4441 28.3455V33.197C93.4441 34.2255 93.6468 34.5751 94.5623 34.5751H94.7661V34.9304C94.2537 34.9304 93.7401 34.885 93.2289 34.885C92.6937 34.885 92.1471 34.9304 91.6131 34.9304V34.5751H91.7771C92.6003 34.5751 92.8474 34.0245 92.8474 33.0801V28.1196C92.8474 27.4601 92.3008 27.0628 91.7679 27.0628H91.6131V26.7052C92.0629 26.7052 92.5309 26.7529 92.9795 26.7529C93.3348 26.7529 93.6798 26.7052 94.0373 26.7052L99.3288 32.609ZM104.834 28.0265H104.812L103.705 31.3604H105.926L104.834 28.0265ZM103.1 33.2458C102.979 33.6454 102.834 33.9553 102.834 34.163C102.834 34.5183 103.337 34.5751 103.728 34.5751H103.86V34.9292C103.381 34.9065 102.895 34.8838 102.418 34.8838C101.99 34.8838 101.564 34.9065 101.137 34.9292V34.5751H101.205C101.67 34.5751 102.065 34.3038 102.238 33.81L104.143 28.4056C104.297 27.9675 104.514 27.3806 104.584 26.9413C104.964 26.813 105.44 26.5781 105.666 26.4362C105.703 26.4237 105.723 26.4146 105.761 26.4146C105.795 26.4146 105.818 26.4146 105.844 26.4487C105.88 26.5429 105.915 26.6484 105.953 26.7438L108.139 32.9053C108.281 33.3174 108.425 33.7544 108.577 34.1085C108.722 34.4366 108.972 34.5751 109.364 34.5751H109.434V34.9292C108.901 34.9065 108.364 34.8838 107.795 34.8838C107.214 34.8838 106.618 34.9065 106.013 34.9292V34.5751H106.144C106.415 34.5751 106.879 34.5308 106.879 34.2357C106.879 34.0813 106.774 33.7635 106.639 33.3866L106.176 32.0199H103.477L103.101 33.2458H103.1ZM109.96 27.2955C109.066 27.2955 109.032 27.5077 108.853 28.367H108.494C108.543 28.0378 108.603 27.7087 108.639 27.3647C108.687 27.0355 108.71 26.7052 108.71 26.3658H108.995C109.09 26.7188 109.388 26.7052 109.708 26.7052H115.844C116.164 26.7052 116.459 26.6938 116.484 26.3419L116.77 26.3896C116.725 26.7052 116.679 27.0253 116.64 27.3431C116.611 27.661 116.611 27.9788 116.611 28.2967L116.258 28.4295C116.238 27.9913 116.176 27.2943 115.381 27.2943H113.429V33.5637C113.429 34.4729 113.846 34.5751 114.418 34.5751H114.642V34.9304C114.18 34.9304 113.347 34.8838 112.704 34.8838C111.992 34.8838 111.157 34.9304 110.692 34.9304V34.5751H110.92C111.577 34.5751 111.91 34.5183 111.91 33.5887V27.2955H109.96ZM117.208 34.5751H117.375C117.805 34.5751 118.255 34.5183 118.255 33.9054V27.7336C118.255 27.1184 117.805 27.0639 117.375 27.0639H117.208V26.7041C117.672 26.7041 118.385 26.7529 118.967 26.7529C119.562 26.7529 120.275 26.7041 120.837 26.7041V27.0628H120.671C120.24 27.0628 119.786 27.1195 119.786 27.7325V33.9042C119.786 34.5195 120.24 34.5751 120.671 34.5751H120.837V34.9304C120.265 34.9304 119.551 34.885 118.956 34.885C118.372 34.885 117.672 34.9304 117.208 34.9304V34.5751ZM125.757 34.5887C128.067 34.5887 128.466 32.5738 128.466 30.8564C128.466 29.1344 127.531 27.0491 125.555 27.0491C123.476 27.0491 122.856 28.8869 122.856 30.4636C122.856 32.5738 123.832 34.5887 125.757 34.5887ZM125.579 26.5304C128.113 26.5304 130.134 28.0855 130.134 30.5964C130.134 33.306 128.173 35.1063 125.639 35.1063C123.115 35.1063 121.194 33.4127 121.194 30.8757C121.194 28.4295 123.108 26.5304 125.579 26.5304ZM138.148 32.609L138.172 32.5863V28.1684C138.172 27.2024 137.493 27.0628 137.133 27.0628H136.877V26.7052C137.433 26.7052 137.982 26.7529 138.539 26.7529C139.03 26.7529 139.516 26.7052 140.003 26.7052V27.0628H139.825C139.323 27.0628 138.764 27.1536 138.764 28.5566V33.9178C138.764 34.3299 138.777 34.7408 138.837 35.1063H138.383L132.261 28.3455V33.197C132.261 34.2255 132.462 34.5751 133.379 34.5751H133.58V34.9304C133.069 34.9304 132.559 34.885 132.047 34.885C131.511 34.885 130.964 34.9304 130.427 34.9304V34.5751H130.596C131.419 34.5751 131.663 34.0245 131.663 33.0801V28.1196C131.663 27.4601 131.12 27.0628 130.581 27.0628H130.427V26.7052C130.881 26.7052 131.343 26.7529 131.797 26.7529C132.153 26.7529 132.498 26.7052 132.854 26.7052L138.148 32.609ZM143.65 28.0265H143.627L142.519 31.3604H144.748L143.65 28.0265ZM141.913 33.2458C141.797 33.6454 141.653 33.9553 141.653 34.163C141.653 34.5183 142.156 34.5751 142.543 34.5751H142.676V34.9292C142.199 34.9065 141.713 34.8838 141.237 34.8838C140.804 34.8838 140.38 34.9065 139.955 34.9292V34.5751H140.02C140.487 34.5751 140.882 34.3038 141.057 33.81L142.962 28.4056C143.117 27.9675 143.329 27.3806 143.401 26.9413C143.781 26.813 144.256 26.5781 144.482 26.4362C144.519 26.4237 144.543 26.4146 144.579 26.4146C144.613 26.4146 144.635 26.4146 144.661 26.4487C144.697 26.5429 144.732 26.6484 144.771 26.7438L146.958 32.9053C147.097 33.3174 147.242 33.7544 147.397 34.1085C147.537 34.4366 147.79 34.5751 148.182 34.5751H148.252V34.9292C147.718 34.9065 147.182 34.8838 146.613 34.8838C146.029 34.8838 145.433 34.9065 144.826 34.9292V34.5751H144.959C145.23 34.5751 145.697 34.5308 145.697 34.2357C145.697 34.0813 145.588 33.7635 145.457 33.3866L144.996 32.0199H142.298L141.913 33.2458ZM151.251 33.7759C151.251 34.247 151.581 34.3889 151.962 34.4366C152.449 34.4718 152.984 34.4718 153.534 34.4139C154.03 34.356 154.461 34.0711 154.672 33.7759C154.863 33.5149 154.967 33.188 155.042 32.9269H155.387C155.254 33.5989 155.088 34.2607 154.943 34.9304C153.899 34.9304 152.852 34.8838 151.809 34.8838C150.761 34.8838 149.713 34.9304 148.668 34.9304V34.5751H148.831C149.264 34.5751 149.726 34.5183 149.726 33.7862V27.7325C149.726 27.1184 149.264 27.0628 148.831 27.0628H148.668V26.7052C149.298 26.7052 149.917 26.7529 150.545 26.7529C151.153 26.7529 151.747 26.7052 152.355 26.7052V27.0628H152.056C151.605 27.0628 151.251 27.0741 151.251 27.6984V33.7759Z" fill="white"/>
<mask id="mask0_390_99986" style="mask-type:luminance" maskUnits="userSpaceOnUse" x="153" y="26" width="4" height="3">
<path d="M153.988 26.3732H156.492V28.8523H153.988V26.3732Z" fill="#231F20"/>
</mask>
<g mask="url(#mask0_390_99986)">
<path fill-rule="evenodd" clip-rule="evenodd" d="M155.042 27.6161H155.19C155.35 27.6161 155.425 27.4958 155.425 27.3006C155.425 27.1019 155.306 27.0338 155.179 27.0338H155.043L155.042 27.6161ZM154.619 28.2711V28.2098C154.771 28.1882 154.801 28.1951 154.801 28.0974V27.1814C154.8 27.0508 154.785 27.0066 154.622 27.0134V26.9498H155.265C155.481 26.9498 155.686 27.0554 155.686 27.279C155.686 27.4663 155.563 27.5991 155.39 27.6536L155.594 27.9397C155.692 28.0645 155.8 28.1894 155.872 28.2314V28.2711H155.63C155.513 28.2711 155.412 28.0259 155.181 27.7001H155.044V28.1111C155.044 28.1951 155.072 28.1882 155.224 28.2098V28.2711H154.619ZM155.241 28.623C155.801 28.623 156.232 28.1508 156.232 27.6161C156.232 27.0826 155.81 26.6036 155.241 26.6036C154.676 26.6036 154.248 27.0815 154.248 27.6161C154.248 28.1508 154.676 28.623 155.241 28.623ZM155.241 26.3732C155.957 26.3732 156.494 26.9203 156.494 27.6161C156.494 28.3131 155.957 28.8534 155.241 28.8534C154.526 28.8534 153.988 28.3131 153.988 27.6161C153.988 26.9203 154.526 26.3732 155.241 26.3732Z" fill="#231F20"/>
</g>
<path fill-rule="evenodd" clip-rule="evenodd" d="M128.31 10.7929H127.763C127.35 8.26151 125.535 7.2433 123.09 7.2433C120.573 7.2433 116.923 8.90967 116.923 14.1029C116.923 18.48 120.077 21.6198 123.438 21.6198C125.602 21.6198 127.394 20.1486 127.831 17.8738L128.332 18.0021L127.831 21.1646C126.914 21.7299 124.441 22.3111 122.999 22.3111C117.886 22.3111 114.654 19.043 114.654 14.1722C114.654 9.73378 118.651 6.54973 122.936 6.54973C124.707 6.54973 126.409 7.11276 128.092 7.69622L128.31 10.7929ZM129.096 21.4234H129.513C130.126 21.4234 130.564 21.4234 130.564 20.706V8.65313C130.564 7.2433 130.236 7.20016 129.405 6.96178V6.61557C130.277 6.33292 131.196 5.94584 131.656 5.68476C131.895 5.55422 132.072 5.44411 132.136 5.44411C132.269 5.44411 132.311 5.57465 132.311 5.75059V20.7049C132.311 21.4223 132.793 21.4223 133.404 21.4223H133.775V21.9864C133.035 21.9864 132.269 21.9444 131.48 21.9444C130.695 21.9444 129.908 21.9671 129.096 21.9864V21.4234ZM143.13 20.7957C143.13 21.1873 143.369 21.2066 143.742 21.2066C144.002 21.2066 144.332 21.1873 144.617 21.1873V21.6436C143.674 21.7288 141.884 22.1828 141.466 22.3134L141.359 22.2475V20.496C140.049 21.5562 139.041 22.3122 137.487 22.3122C136.309 22.3122 135.087 21.5562 135.087 19.7389V14.1949C135.087 13.6296 134.997 13.0881 133.778 12.9814V12.5705C134.565 12.5466 136.309 12.4195 136.595 12.4195C136.837 12.4195 136.837 12.5705 136.837 13.0461V18.631C136.837 19.2791 136.837 21.1419 138.738 21.1419C139.478 21.1419 140.463 20.5777 141.379 19.8251V13.9962C141.379 13.5649 140.332 13.3288 139.546 13.1097V12.7203C141.513 12.5898 142.738 12.4195 142.955 12.4195C143.13 12.4195 143.13 12.5705 143.13 12.8089V20.7957ZM147.477 19.5402C147.477 20.3643 148.263 21.7492 149.729 21.7492C152.069 21.7492 153.052 19.4744 153.052 17.5469C153.052 15.2108 151.26 13.2618 149.556 13.2618C148.742 13.2618 148.068 13.7828 147.477 14.2823V19.5402ZM147.477 13.65C148.352 12.9167 149.534 12.0949 150.734 12.0949C153.268 12.0949 154.799 14.2823 154.799 16.6399C154.799 19.4744 152.701 22.3122 149.573 22.3122C147.956 22.3122 147.107 21.7935 146.538 21.5562L145.883 22.0523L145.425 21.815C145.618 20.538 145.728 19.2803 145.728 17.9612V8.65313C145.728 7.2433 145.401 7.19903 144.571 6.96178V6.61443C145.448 6.33405 146.362 5.94697 146.822 5.68362C147.061 5.55422 147.237 5.44524 147.304 5.44524C147.435 5.44524 147.477 5.57465 147.477 5.75059V13.6511V13.65ZM57.374 19.4324C57.374 21.101 58.5764 21.294 59.6468 21.294C64.3689 21.294 65.9164 17.766 65.9164 14.5388C65.9164 10.4921 63.2963 7.56908 59.0786 7.56908C58.1824 7.56908 57.7691 7.63151 57.374 7.65422V19.4335V19.4324ZM55.2332 9.27632C55.2332 7.32957 54.205 7.45784 53.2234 7.43513V6.87665C54.074 6.91524 54.9486 6.91524 55.8014 6.91524C56.7192 6.91524 57.9649 6.87665 59.5819 6.87665C65.2411 6.87665 68.3224 10.6192 68.3224 14.4537C68.3224 16.5968 67.0562 21.9876 59.32 21.9876C58.2086 21.9876 57.1781 21.9456 56.1522 21.9456C55.1683 21.9456 54.205 21.9683 53.2234 21.9876V21.4234C54.5318 21.294 55.1683 21.2509 55.2332 19.7786V9.27632ZM71.4288 8.7587C70.8571 8.7587 70.3561 8.23881 70.3561 7.67692C70.3561 7.13432 70.8799 6.63486 71.4288 6.63486C71.9936 6.63486 72.4991 7.09005 72.4991 7.67692C72.4991 8.26038 72.0175 8.7587 71.4288 8.7587ZM69.0888 21.4234H69.5032C70.1147 21.4234 70.5508 21.4234 70.5508 20.706V14.8419C70.5508 13.8895 70.2263 13.759 69.4144 13.3288V12.9814C70.4427 12.6761 71.6668 12.2685 71.7556 12.2004C71.9082 12.1164 72.038 12.0937 72.1484 12.0937C72.2566 12.0937 72.2999 12.222 72.2999 12.3957V20.706C72.2999 21.4234 72.7827 21.4234 73.393 21.4234H73.7642V21.9876C73.0207 21.9876 72.2566 21.9456 71.4709 21.9456C70.6841 21.9456 69.8972 21.9683 69.0888 21.9876V21.4234ZM75.8412 14.9713C75.8412 14.1722 75.6009 13.9553 74.575 13.5456V13.1312C75.5132 12.8282 76.4082 12.5455 77.4581 12.0937C77.5242 12.0937 77.5879 12.1357 77.5879 12.3071V13.7181C78.8348 12.8282 79.9074 12.0937 81.3718 12.0937C83.2278 12.0937 83.8848 13.4332 83.8848 15.1245V20.7071C83.8848 21.4245 84.3665 21.4245 84.9769 21.4245H85.3697V21.9876C84.6022 21.9876 83.8382 21.9456 83.0548 21.9456C82.2668 21.9456 81.48 21.9683 80.6931 21.9876V21.4245H81.0871C81.6997 21.4245 82.1336 21.4245 82.1336 20.7071V15.103C82.1336 13.8668 81.3706 13.2629 80.1238 13.2629C79.4246 13.2629 78.3121 13.8237 77.5879 14.3016V20.7071C77.5879 21.4245 78.073 21.4245 78.6845 21.4245H79.0773V21.9876C78.3121 21.9876 77.5447 21.9456 76.7567 21.9456C75.9733 21.9456 75.1853 21.9683 74.3996 21.9876V21.4245H74.7936C75.4051 21.4245 75.8412 21.4245 75.8412 20.7071V14.9713ZM90.9003 15.3186C91.4446 15.3186 91.5084 15.0371 91.5084 14.7783C91.5084 13.6716 90.832 12.785 89.609 12.785C88.2768 12.785 87.359 13.7578 87.096 15.3186H90.9003ZM87.0322 16.0134C86.9866 16.2075 86.9866 16.531 87.0322 17.2677C87.1597 19.3257 88.4954 21.0136 90.2421 21.0136C91.4446 21.0136 92.3874 20.3632 93.1936 19.5629L93.4999 19.866C92.4933 21.1862 91.2499 22.3111 89.4587 22.3111C85.9812 22.3111 85.2843 18.9772 85.2843 17.5935C85.2843 13.3492 88.1675 12.0937 89.6944 12.0937C91.4662 12.0937 93.3701 13.1959 93.3906 15.4901C93.3906 15.624 93.3906 15.7511 93.3701 15.8828L93.1708 16.0134H87.0322ZM93.8916 21.4234H94.4837C95.0952 21.4234 95.5291 21.4234 95.5291 20.706V14.6251C95.5291 13.9553 94.7229 13.8248 94.3949 13.65V13.3288C95.9891 12.6556 96.8659 12.0937 97.0629 12.0937C97.1927 12.0937 97.2576 12.1562 97.2576 12.3752V14.322H97.3043C97.8486 13.4797 98.7663 12.0937 100.1 12.0937C100.646 12.0937 101.343 12.4592 101.343 13.2402C101.343 13.8248 100.932 14.347 100.318 14.347C99.6386 14.347 99.6386 13.8248 98.8757 13.8248C98.5044 13.8248 97.2792 14.322 97.2792 15.624V20.706C97.2792 21.4234 97.7165 21.4234 98.328 21.4234H99.552V21.9876C98.3496 21.9671 97.4341 21.9456 96.4947 21.9456C95.5962 21.9456 94.6796 21.9683 93.8916 21.9876V21.4234ZM102.304 18.9783C102.591 20.4063 103.465 21.6209 105.06 21.6209C106.349 21.6209 106.827 20.8399 106.827 20.0828C106.827 17.5288 102.067 18.3483 102.067 14.8646C102.067 13.65 103.051 12.0949 105.455 12.0949C106.153 12.0949 107.092 12.2878 107.944 12.7203L108.098 14.9293H107.597C107.378 13.566 106.611 12.7839 105.212 12.7839C104.338 12.7839 103.509 13.2834 103.509 14.2142C103.509 16.7489 108.577 15.9691 108.577 19.3677C108.577 20.7957 107.419 22.3122 104.821 22.3122C103.944 22.3122 102.917 22.0103 102.153 21.5778L101.913 19.0873L102.304 18.9783Z" fill="white"/>
<mask id="mask1_390_99986" style="mask-type:luminance" maskUnits="userSpaceOnUse" x="0" y="0" width="49" height="42">
<path d="M0.5 0.420578H48.5708V41.5885H0.5V0.420578Z" fill="#004C97"/>
</mask>
<g mask="url(#mask1_390_99986)">
<path fill-rule="evenodd" clip-rule="evenodd" d="M21.4564 41.5885C9.96134 41.6407 0.5 32.4154 0.5 21.1833C0.5 8.90793 9.96134 0.417118 21.4564 0.419388H26.8446C38.203 0.417118 48.5708 8.90339 48.5708 21.1833C48.5708 32.4098 38.203 41.5885 26.8446 41.5885H21.4564Z" fill="#004C97"/>
</g>
<mask id="mask2_390_99986" style="mask-type:luminance" maskUnits="userSpaceOnUse" x="0" y="0" width="44" height="42">
<path d="M0.5 0.420578H43.0595V41.5885H0.5V0.420578Z" fill="#004C97"/>
</mask>
<g mask="url(#mask2_390_99986)">
<path fill-rule="evenodd" clip-rule="evenodd" d="M21.4564 41.5885C9.96134 41.6407 0.5 32.4154 0.5 21.1833C0.5 8.90793 9.96134 0.417118 21.4564 0.419388H21.7581C33.1154 0.417118 43.0595 8.90339 43.0595 21.1833C43.0595 32.4098 33.1154 41.5885 21.7581 41.5885H21.4564Z" fill="#004C97"/>
</g>
<path fill-rule="evenodd" clip-rule="evenodd" d="M21.5031 2.1227C10.9987 2.1261 2.487 10.5602 2.487 20.9682C2.487 31.374 10.9987 39.8069 21.5031 39.808C32.0086 39.808 40.5214 31.374 40.5248 20.9682C40.5214 10.559 32.0074 2.12497 21.5031 2.1227Z" fill="#FEFEFE"/>
<path fill-rule="evenodd" clip-rule="evenodd" d="M17.1852 32.1107V9.82118C12.6646 11.5466 9.4592 15.8805 9.44781 20.9682C9.4592 26.0536 12.6657 30.3898 17.1852 32.1107ZM33.5606 20.9682C33.5515 15.8783 30.3416 11.5386 25.8164 9.81891V32.1164C30.3416 30.3944 33.5527 26.0593 33.5606 20.9682Z" fill="#004C97"/>
</g>
<defs>
<clipPath id="clip0_390_99986">
<rect width="156" height="42" fill="white" transform="translate(0.5)"/>
</clipPath>
</defs>
</svg>
