<?xml version="1.0" encoding="UTF-8"?><svg id="Layer_1" xmlns="http://www.w3.org/2000/svg" width="190.08" height="88.38"  viewBox="0 0 190.08 88.38">
<defs><style>.cls-1{fill:#2ba944;}.cls-2{fill:#27303b;}</style></defs><polygon class="cls-2" points="99.17 50.56 100.46 50.56 100.46 57.37 107.01 50.56 108.67 50.56 103.78 55.54 108.89 61.97 107.27 61.97 102.89 56.44 100.46 58.9 100.46 61.97 99.17 61.97 99.17 50.56"/><polygon class="cls-2" points="110.89 50.56 119.14 50.56 119.14 51.73 112.18 51.73 112.18 55.63 118.4 55.63 118.4 56.8 112.18 56.8 112.18 60.79 119.22 60.79 119.22 61.97 110.89 61.97 110.89 50.56"/><polygon class="cls-2" points="125.38 57.45 120.64 50.56 122.2 50.56 126.05 56.26 129.93 50.56 131.43 50.56 126.68 57.43 126.68 61.96 125.38 61.96 125.38 57.45"/><g><path class="cls-2" d="m130.79,40.8c-.94,0-1.62-.31-2.03-.92-.41-.61-.61-1.59-.61-2.95,0-2.98.88-4.47,2.64-4.47.92,0,1.59.32,2.01.96.42.64.63,1.64.63,3,0,2.92-.88,4.38-2.64,4.38m7.72-6.99c0-.58-.14-.86-.41-.86l-2.89.1c-.52-.49-1.18-.88-1.99-1.17-.8-.29-1.62-.43-2.45-.43-1.56,0-2.91.55-4.04,1.64-1.13,1.1-1.7,2.38-1.7,3.85,0,.92.26,1.75.77,2.49.51.75,1.22,1.34,2.14,1.79-.84.15-1.65.44-2.43.88-.78.44-1.17.85-1.17,1.23,0,.54.22,1.08.62,1.64.72,1,2.42,2.01,4.5,2.01l3.7.08c1.14.02,1.95.19,2.43.51.48.32.73.84.73,1.58,0,1.08-.58,2-1.78,2.74-.34.21-.76.39-1.07.55v1.15c.76-.29,1.41-.66,2.06-1.11,1.87-1.29,2.8-2.8,2.8-4.52,0-1.14-.45-2.03-1.33-2.67-.89-.64-2.13-.97-3.72-1.01l-3.7-.05c-.74-.01-1.32-.14-1.74-.38-.41-.24-.62-.54-.62-.92,0-.3.25-.56.75-.79.5-.22,1.17-.34,2.02-.34h.64c1.62,0,2.99-.51,4.11-1.53,1.12-1.02,1.68-2.3,1.68-3.83,0-.63-.12-1.24-.35-1.85l2.03.06c.28,0,.41-.29.41-.86"/><path class="cls-2" d="m72.69,39.84c-.5,1.87-.89,3.83-1.18,5.88-4.08-.13-6.98-.19-8.7-.19s-4.57.06-8.59.19c-.17,0-.25-.15-.25-.45,0-.27.08-.41.25-.43,1.29-.15,2.16-.39,2.63-.72.46-.33.69-.99.69-1.98v-15.04c0-.75-.09-1.27-.28-1.57-.19-.3-.51-.54-.98-.72-.47-.18-1.15-.32-2.06-.42-.17,0-.25-.15-.25-.44s.08-.44.25-.44c.71,0,1.57.03,2.56.1.95.06,1.74.1,2.4.1s1.44-.03,2.38-.1c.98-.06,1.83-.1,2.54-.1.17,0,.25.15.25.44s-.09.44-.25.44c-.89.11-1.58.25-2.04.42-.47.18-.79.41-.98.71-.18.3-.27.83-.27,1.58v15.52c0,1.26.62,1.89,1.85,1.89h3.16c1.31,0,2.42-.35,3.32-1.05.9-.7,1.8-2,2.68-3.9.04-.09.14-.13.3-.13.14,0,.27.04.39.13.12.09.18.18.18.29"/><path class="cls-2" d="m85.74,38.88c0-1.95-.38-3.5-1.13-4.67-.75-1.17-1.78-1.75-3.09-1.75s-2.33.59-3.08,1.76c-.75,1.17-1.13,2.72-1.13,4.66s.37,3.46,1.12,4.59c.74,1.13,1.78,1.7,3.1,1.7s2.35-.56,3.1-1.68c.74-1.12,1.12-2.66,1.12-4.61m3.23.03c0,2.12-.69,3.86-2.07,5.23s-3.17,2.05-5.36,2.05-3.99-.69-5.37-2.06c-1.39-1.37-2.08-3.11-2.08-5.22s.7-3.92,2.1-5.34c1.4-1.42,3.18-2.13,5.36-2.13s3.97.71,5.36,2.12c1.38,1.42,2.08,3.2,2.08,5.35"/><path class="cls-2" d="m105.54,44.67c0,.23-.09.35-.26.38-1.94.21-3.26.58-3.98,1.1-.15.12-.3.17-.45.17-.21,0-.32-.09-.32-.26l.13-2.01c-1.58,1.43-3,2.14-4.28,2.14-1.46,0-2.6-.41-3.41-1.24-.82-.83-1.22-1.95-1.22-3.37v-5.98c0-.95-.12-1.58-.37-1.89-.25-.31-.73-.46-1.45-.46-.14,0-.29,0-.46.01-.16,0-.24-.14-.24-.41,0-.33.09-.5.26-.5,1.23,0,2.84-.24,4.84-.72.19,0,.29.13.29.4v8.78c0,1.2.23,2.08.69,2.63.46.55,1.18.82,2.16.82.63,0,1.18-.12,1.67-.35.48-.24.99-.65,1.54-1.25v-7.07c0-.94-.13-1.56-.38-1.88-.25-.31-.75-.47-1.49-.47-.13,0-.28,0-.45.01-.16,0-.24-.14-.24-.41,0-.33.09-.5.26-.5,1.23,0,2.85-.24,4.85-.72.19,0,.29.13.29.4v10.19c0,.74.1,1.23.31,1.48.21.25.69.43,1.46.54.17,0,.26.14.26.42"/><path class="cls-2" d="m123.27,45.27c0,.3-.09.45-.26.45-.43,0-.95-.03-1.56-.1-.68-.06-1.28-.1-1.8-.1s-1.14.03-1.83.1c-.63.06-1.15.1-1.58.1-.17,0-.25-.15-.25-.45,0-.27.08-.41.25-.43.74-.09,1.22-.29,1.45-.62.23-.33.34-1.02.34-2.08v-5.33c0-1.19-.23-2.06-.7-2.62-.47-.55-1.19-.83-2.17-.83-.62,0-1.16.12-1.64.35-.47.23-.98.65-1.53,1.25v7.19c0,1.05.11,1.74.34,2.08.23.33.71.54,1.44.62.17.02.25.16.25.43,0,.3-.08.45-.25.45-.44,0-.97-.03-1.6-.1-.69-.06-1.3-.1-1.82-.1s-1.11.03-1.79.1c-.63.06-1.16.1-1.6.1-.17,0-.26-.15-.26-.45,0-.27.09-.41.26-.43.92-.12,1.51-.34,1.77-.66.27-.32.4-1,.4-2.03v-5.9c0-.85-.11-1.41-.33-1.67-.22-.26-.71-.44-1.46-.53-.17,0-.26-.14-.26-.42,0-.26.09-.39.26-.39,1.05-.27,1.93-.57,2.64-.9.7-.34,1.14-.61,1.32-.82.11-.13.22-.19.35-.19.3,0,.45.09.45.25l-.13,2.01c1.53-1.43,2.95-2.14,4.27-2.14,1.44,0,2.57.41,3.39,1.24.81.83,1.22,1.95,1.22,3.35v6.1c0,1.04.13,1.72.39,2.04.26.32.84.54,1.75.65.17.02.26.16.26.43"/><path class="cls-2" d="m148.82,35.24c0-.8-.28-1.46-.82-1.99-.55-.53-1.25-.79-2.12-.79s-1.53.34-2.13,1.03c-.6.69-1.01,1.59-1.22,2.71l4.44-.13c.67-.01,1.15-.07,1.43-.19.28-.12.42-.33.42-.64m2.91,1.41c0,.3-.19.45-.58.45h-8.75c-.06.58-.1,1.17-.1,1.79,0,1.72.41,3.03,1.22,3.95.81.92,1.97,1.38,3.47,1.38.76,0,1.52-.2,2.28-.61.77-.4,1.38-.92,1.85-1.55l.08-.03c.1,0,.19.06.28.18.09.12.14.26.14.41,0,.22-.34.69-1.02,1.4-.68.71-1.42,1.25-2.22,1.62-.8.37-1.63.56-2.51.56-1.92,0-3.53-.7-4.84-2.11s-1.96-3.13-1.96-5.17.64-3.85,1.92-5.3c1.28-1.45,2.91-2.17,4.88-2.17,1.65,0,3.04.54,4.16,1.62,1.12,1.08,1.68,2.28,1.68,3.59"/></g><polygon class="cls-1" points="50.33 15.05 18.49 49.22 18.49 55.91 56.56 15.05 50.33 15.05"/><polygon class="cls-1" points="133.41 69.45 139.65 69.45 171.19 35.61 171.19 28.92 133.41 69.45"/><g><path class="cls-2" d="m155.21,27.2v.39h-1.11v2.9h-.45v-2.9h-1.11v-.39h2.67Z"/><path class="cls-2" d="m155.71,27.2h.64l.95,2.79.94-2.79h.64v3.3h-.43v-1.95c0-.07,0-.18,0-.33,0-.16,0-.32,0-.5l-.94,2.78h-.44l-.95-2.78v.1c0,.08,0,.2,0,.37,0,.17,0,.29,0,.36v1.95h-.43v-3.3Z"/></g></svg>