<svg width="137" height="37" viewBox="0 0 137 37" fill="none" xmlns="http://www.w3.org/2000/svg">
<g clip-path="url(#clip0_894_2290)">
<path fill-rule="evenodd" clip-rule="evenodd" d="M46.28 30.459H46.427C46.801 30.459 47.2 30.409 47.2 29.869V24.432C47.2 23.89 46.801 23.842 46.427 23.842H46.281V23.525C46.689 23.525 47.314 23.568 47.827 23.568C48.349 23.568 48.975 23.525 49.465 23.525V23.841H49.319C48.944 23.841 48.546 23.891 48.546 24.431V29.868C48.546 30.41 48.944 30.459 49.319 30.459H49.465V30.772C48.965 30.772 48.337 30.732 47.815 30.732C47.303 30.732 46.689 30.772 46.281 30.772L46.28 30.459ZM56.64 28.727L56.66 28.707V24.815C56.66 23.964 56.065 23.841 55.75 23.841H55.522V23.526C56.012 23.526 56.494 23.568 56.984 23.568C57.411 23.568 57.841 23.526 58.267 23.526V23.841H58.113C57.673 23.841 57.181 23.921 57.181 25.157V29.88C57.181 30.243 57.193 30.605 57.245 30.927H56.848L51.47 24.971V29.245C51.47 30.151 51.646 30.459 52.45 30.459H52.628V30.772C52.18 30.772 51.73 30.732 51.28 30.732C50.813 30.732 50.331 30.772 49.862 30.772V30.459H50.008C50.728 30.459 50.948 29.974 50.948 29.142V24.772C50.948 24.191 50.466 23.841 49.998 23.841H49.862V23.526C50.257 23.526 50.665 23.568 51.061 23.568C51.376 23.568 51.68 23.526 51.991 23.526L56.64 28.727ZM59.831 24.046C59.047 24.046 59.019 24.233 58.861 24.99H58.548C58.591 24.7 58.641 24.41 58.674 24.107C58.714 23.817 58.737 23.526 58.737 23.227H58.987C59.072 23.538 59.332 23.526 59.614 23.526H65.003C65.283 23.526 65.546 23.516 65.567 23.206L65.815 23.248C65.777 23.526 65.735 23.808 65.702 24.088C65.681 24.368 65.681 24.648 65.681 24.928L65.369 25.045C65.348 24.659 65.294 24.045 64.595 24.045H62.883V29.568C62.883 30.369 63.249 30.459 63.75 30.459H63.947V30.772C63.541 30.772 62.809 30.731 62.245 30.731C61.62 30.731 60.887 30.772 60.48 30.772V30.459H60.678C61.254 30.459 61.544 30.409 61.544 29.59V24.046H59.831ZM66.15 30.459H66.296C66.671 30.459 67.068 30.409 67.068 29.869V24.432C67.068 23.89 66.671 23.842 66.296 23.842H66.15V23.525C66.785 23.525 67.875 23.568 68.75 23.568C69.628 23.568 70.713 23.525 71.42 23.525C71.403 23.973 71.414 24.66 71.445 25.116L71.129 25.199C71.079 24.525 70.954 23.986 69.857 23.986H68.409V26.702H69.648C70.276 26.702 70.412 26.352 70.473 25.792H70.785C70.765 26.196 70.755 26.6 70.755 27.005C70.755 27.4 70.765 27.794 70.785 28.187L70.473 28.25C70.412 27.627 70.38 27.222 69.658 27.222H68.408V29.64C68.408 30.315 69.012 30.315 69.678 30.315C70.934 30.315 71.486 30.232 71.799 29.049L72.091 29.123C71.955 29.674 71.831 30.22 71.736 30.773C71.069 30.773 69.866 30.731 68.927 30.731C67.987 30.731 66.745 30.772 66.15 30.772V30.459ZM74.838 27.035H75.348C76.393 27.035 76.956 26.642 76.956 25.416C76.956 24.495 76.361 23.901 75.432 23.901C75.116 23.901 74.983 23.934 74.838 23.943V27.035ZM73.502 24.627C73.502 23.869 73.084 23.84 72.76 23.84H72.57V23.526C72.904 23.526 73.552 23.568 74.19 23.568C74.815 23.568 75.317 23.526 75.872 23.526C77.185 23.526 78.354 23.879 78.354 25.355C78.354 26.288 77.73 26.858 76.904 27.183L78.692 29.837C78.983 30.277 79.19 30.399 79.702 30.459V30.772C79.358 30.772 79.024 30.731 78.68 30.731C78.354 30.731 78.021 30.772 77.698 30.772C76.894 29.725 76.204 28.602 75.526 27.408H74.838V29.629C74.838 30.431 75.213 30.459 75.692 30.459H75.882V30.772C75.285 30.772 74.68 30.731 74.085 30.731C73.585 30.731 73.093 30.772 72.57 30.772V30.459H72.76C73.144 30.459 73.502 30.285 73.502 29.899V24.627ZM86.792 28.727L86.812 28.707V24.815C86.812 23.964 86.217 23.841 85.905 23.841H85.675V23.526C86.166 23.526 86.644 23.568 87.137 23.568C87.567 23.568 87.993 23.526 88.422 23.526V23.841H88.267C87.827 23.841 87.336 23.921 87.336 25.157V29.88C87.336 30.243 87.345 30.605 87.396 30.927H87.002L81.624 24.971V29.245C81.624 30.151 81.802 30.459 82.606 30.459H82.785V30.772C82.335 30.772 81.884 30.732 81.435 30.732C80.965 30.732 80.485 30.772 80.016 30.772V30.459H80.16C80.883 30.459 81.1 29.974 81.1 29.142V24.772C81.1 24.191 80.62 23.841 80.152 23.841H80.016V23.526C80.411 23.526 80.822 23.568 81.216 23.568C81.528 23.568 81.831 23.526 82.145 23.526L86.792 28.727ZM91.627 24.69H91.607L90.635 27.627H92.586L91.627 24.69ZM90.104 29.288C89.998 29.64 89.87 29.913 89.87 30.096C89.87 30.409 90.312 30.459 90.655 30.459H90.771V30.771C90.351 30.751 89.924 30.731 89.505 30.731C89.129 30.731 88.755 30.751 88.38 30.771V30.459H88.44C88.848 30.459 89.195 30.22 89.347 29.785L91.02 25.024C91.155 24.638 91.346 24.121 91.407 23.734C91.741 23.621 92.159 23.414 92.357 23.289C92.39 23.278 92.407 23.27 92.441 23.27C92.471 23.27 92.491 23.27 92.514 23.3C92.545 23.383 92.576 23.476 92.609 23.56L94.529 28.988C94.654 29.351 94.78 29.736 94.914 30.048C95.041 30.337 95.261 30.459 95.605 30.459H95.666V30.771C95.198 30.751 94.727 30.731 94.227 30.731C93.717 30.731 93.193 30.751 92.662 30.771V30.459H92.777C93.015 30.459 93.423 30.42 93.423 30.16C93.423 30.024 93.33 29.744 93.212 29.412L92.805 28.208H90.435L90.105 29.288H90.104ZM96.128 24.046C95.343 24.046 95.313 24.233 95.156 24.99H94.841C94.884 24.7 94.937 24.41 94.968 24.107C95.01 23.817 95.031 23.526 95.031 23.227H95.281C95.364 23.538 95.626 23.526 95.907 23.526H101.296C101.577 23.526 101.836 23.516 101.858 23.206L102.109 23.248C102.069 23.526 102.029 23.808 101.995 24.088C101.969 24.368 101.969 24.648 101.969 24.928L101.659 25.045C101.642 24.659 101.587 24.045 100.889 24.045H99.175V29.568C99.175 30.369 99.541 30.459 100.043 30.459H100.24V30.772C99.834 30.772 99.103 30.731 98.538 30.731C97.913 30.731 97.18 30.772 96.771 30.772V30.459H96.971C97.548 30.459 97.841 30.409 97.841 29.59V24.046H96.128ZM102.494 30.459H102.64C103.018 30.459 103.413 30.409 103.413 29.869V24.432C103.413 23.89 103.018 23.842 102.64 23.842H102.494V23.525C102.901 23.525 103.527 23.568 104.038 23.568C104.561 23.568 105.187 23.525 105.681 23.525V23.841H105.535C105.156 23.841 104.758 23.891 104.758 24.431V29.868C104.758 30.41 105.156 30.459 105.535 30.459H105.681V30.772C105.178 30.772 104.551 30.732 104.029 30.732C103.516 30.732 102.901 30.772 102.494 30.772V30.459ZM110.001 30.471C112.03 30.471 112.38 28.696 112.38 27.183C112.38 25.666 111.559 23.829 109.824 23.829C107.998 23.829 107.454 25.448 107.454 26.837C107.454 28.696 108.311 30.471 110.001 30.471ZM109.845 23.372C112.07 23.372 113.845 24.742 113.845 26.954C113.845 29.341 112.123 30.927 109.898 30.927C107.681 30.927 105.994 29.435 105.994 27.2C105.994 25.045 107.675 23.372 109.845 23.372ZM120.883 28.727L120.904 28.707V24.815C120.904 23.964 120.308 23.841 119.992 23.841H119.767V23.526C120.255 23.526 120.737 23.568 121.227 23.568C121.658 23.568 122.085 23.526 122.512 23.526V23.841H122.356C121.915 23.841 121.424 23.921 121.424 25.157V29.88C121.424 30.243 121.436 30.605 121.488 30.927H121.09L115.713 24.971V29.245C115.713 30.151 115.89 30.459 116.695 30.459H116.872V30.772C116.423 30.772 115.975 30.732 115.525 30.732C115.055 30.732 114.574 30.772 114.103 30.772V30.459H114.251C114.974 30.459 115.188 29.974 115.188 29.142V24.772C115.188 24.191 114.711 23.841 114.238 23.841H114.103V23.526C114.501 23.526 114.907 23.568 115.306 23.568C115.618 23.568 115.921 23.526 116.234 23.526L120.883 28.727ZM125.715 24.69H125.695L124.722 27.627H126.679L125.715 24.69ZM124.19 29.288C124.088 29.64 123.961 29.913 123.961 30.096C123.961 30.409 124.403 30.459 124.743 30.459H124.86V30.771C124.441 30.751 124.014 30.731 123.596 30.731C123.216 30.731 122.843 30.751 122.47 30.771V30.459H122.527C122.937 30.459 123.284 30.22 123.438 29.785L125.111 25.024C125.247 24.638 125.433 24.121 125.496 23.734C125.83 23.621 126.247 23.414 126.446 23.289C126.478 23.278 126.499 23.27 126.531 23.27C126.561 23.27 126.58 23.27 126.603 23.3C126.635 23.383 126.665 23.476 126.7 23.56L128.62 28.988C128.742 29.351 128.87 29.736 129.006 30.048C129.129 30.337 129.351 30.459 129.695 30.459H129.757V30.771C129.288 30.751 128.817 30.731 128.317 30.731C127.804 30.731 127.281 30.751 126.748 30.771V30.459H126.865C127.103 30.459 127.513 30.42 127.513 30.16C127.513 30.024 127.417 29.744 127.302 29.412L126.897 28.208H124.528L124.19 29.288ZM132.39 29.755C132.39 30.17 132.68 30.295 133.015 30.337C133.442 30.368 133.912 30.368 134.395 30.317C134.831 30.266 135.209 30.015 135.395 29.755C135.562 29.525 135.654 29.237 135.72 29.007H136.023C135.906 29.599 135.76 30.182 135.633 30.772C134.716 30.772 133.796 30.731 132.88 30.731C131.96 30.731 131.04 30.772 130.122 30.772V30.459H130.265C130.645 30.459 131.051 30.409 131.051 29.764V24.431C131.051 23.89 130.645 23.841 130.265 23.841H130.122V23.526C130.675 23.526 131.219 23.568 131.77 23.568C132.304 23.568 132.826 23.526 133.36 23.526V23.841H133.097C132.701 23.841 132.39 23.851 132.39 24.401V29.755Z" fill="#231F20"/>
<mask id="mask0_894_2290" style="mask-type:luminance" maskUnits="userSpaceOnUse" x="134" y="23" width="3" height="3">
<path d="M134.794 23.2335H136.993V25.4175H134.794V23.2335Z" fill="#231F20"/>
</mask>
<g mask="url(#mask0_894_2290)">
<path fill-rule="evenodd" clip-rule="evenodd" d="M135.719 24.3285H135.849C135.99 24.3285 136.056 24.2225 136.056 24.0505C136.056 23.8755 135.951 23.8155 135.84 23.8155H135.72L135.719 24.3285ZM135.348 24.9055V24.8515C135.481 24.8325 135.508 24.8385 135.508 24.7525V23.9455C135.507 23.8305 135.494 23.7915 135.35 23.7975V23.7415H135.915C136.105 23.7415 136.285 23.8345 136.285 24.0315C136.285 24.1965 136.177 24.3135 136.025 24.3615L136.204 24.6135C136.29 24.7235 136.385 24.8335 136.448 24.8705V24.9055H136.236C136.133 24.9055 136.044 24.6895 135.841 24.4025H135.721V24.7645C135.721 24.8385 135.746 24.8325 135.879 24.8515V24.9055H135.348ZM135.894 25.2155C136.386 25.2155 136.764 24.7995 136.764 24.3285C136.764 23.8585 136.394 23.4365 135.894 23.4365C135.398 23.4365 135.022 23.8575 135.022 24.3285C135.022 24.7995 135.398 25.2155 135.894 25.2155ZM135.894 23.2335C136.523 23.2335 136.994 23.7155 136.994 24.3285C136.994 24.9425 136.523 25.4185 135.894 25.4185C135.266 25.4185 134.794 24.9425 134.794 24.3285C134.794 23.7155 135.266 23.2335 135.894 23.2335Z" fill="#231F20"/>
</g>
<path fill-rule="evenodd" clip-rule="evenodd" d="M112.243 9.50799H111.763C111.4 7.27799 109.806 6.38099 107.659 6.38099C105.449 6.38099 102.243 7.84899 102.243 12.424C102.243 16.28 105.013 19.046 107.965 19.046C109.865 19.046 111.439 17.75 111.823 15.746L112.263 15.859L111.823 18.645C111.017 19.143 108.846 19.655 107.579 19.655C103.089 19.655 100.251 16.776 100.251 12.485C100.251 8.57499 103.761 5.76999 107.524 5.76999C109.079 5.76999 110.574 6.26599 112.052 6.77999L112.243 9.50799ZM112.934 18.873H113.3C113.838 18.873 114.223 18.873 114.223 18.241V7.62299C114.223 6.38099 113.935 6.34299 113.205 6.13299V5.82799C113.971 5.57899 114.778 5.23799 115.182 5.00799C115.392 4.89299 115.547 4.79599 115.603 4.79599C115.72 4.79599 115.757 4.91099 115.757 5.06599V18.24C115.757 18.872 116.18 18.872 116.717 18.872H117.043V19.369C116.393 19.369 115.72 19.332 115.027 19.332C114.338 19.332 113.647 19.352 112.934 19.369V18.873ZM125.258 18.32C125.258 18.665 125.468 18.682 125.796 18.682C126.024 18.682 126.314 18.665 126.564 18.665V19.067C125.736 19.142 124.164 19.542 123.797 19.657L123.703 19.599V18.056C122.553 18.99 121.667 19.656 120.303 19.656C119.268 19.656 118.195 18.99 118.195 17.389V12.505C118.195 12.007 118.116 11.53 117.045 11.436V11.074C117.737 11.053 119.268 10.941 119.519 10.941C119.732 10.941 119.732 11.074 119.732 11.493V16.413C119.732 16.984 119.732 18.625 121.401 18.625C122.051 18.625 122.916 18.128 123.721 17.465V12.33C123.721 11.95 122.801 11.742 122.111 11.549V11.206C123.838 11.091 124.914 10.941 125.105 10.941C125.258 10.941 125.258 11.074 125.258 11.284V18.32ZM129.076 17.214C129.076 17.94 129.766 19.16 131.054 19.16C133.109 19.16 133.972 17.156 133.972 15.458C133.972 13.4 132.398 11.683 130.902 11.683C130.187 11.683 129.595 12.142 129.076 12.582V17.214ZM129.076 12.025C129.844 11.379 130.882 10.655 131.936 10.655C134.162 10.655 135.506 12.582 135.506 14.659C135.506 17.156 133.664 19.656 130.917 19.656C129.497 19.656 128.751 19.199 128.251 18.99L127.676 19.427L127.274 19.218C127.443 18.093 127.54 16.985 127.54 15.823V7.62299C127.54 6.38099 127.253 6.34199 126.524 6.13299V5.82699C127.294 5.57999 128.097 5.23899 128.501 5.00699C128.711 4.89299 128.865 4.79699 128.924 4.79699C129.039 4.79699 129.076 4.91099 129.076 5.06599V12.026V12.025ZM49.947 17.119C49.947 18.589 51.003 18.759 51.943 18.759C56.09 18.759 57.449 15.651 57.449 12.808C57.449 9.24299 55.148 6.66799 51.444 6.66799C50.657 6.66799 50.294 6.72299 49.947 6.74299V17.12V17.119ZM48.067 8.17199C48.067 6.45699 47.164 6.56999 46.302 6.54999V6.05799C47.049 6.09199 47.817 6.09199 48.566 6.09199C49.372 6.09199 50.466 6.05799 51.886 6.05799C56.856 6.05799 59.562 9.35499 59.562 12.733C59.562 14.621 58.45 19.37 51.656 19.37C50.68 19.37 49.775 19.333 48.874 19.333C48.01 19.333 47.164 19.353 46.302 19.37V18.873C47.451 18.759 48.01 18.721 48.067 17.424V8.17199ZM62.29 7.71599C61.788 7.71599 61.348 7.25799 61.348 6.76299C61.348 6.28499 61.808 5.84499 62.29 5.84499C62.786 5.84499 63.23 6.24599 63.23 6.76299C63.23 7.27699 62.807 7.71599 62.29 7.71599ZM60.235 18.873H60.599C61.136 18.873 61.519 18.873 61.519 18.241V13.075C61.519 12.236 61.234 12.121 60.521 11.742V11.436C61.424 11.167 62.499 10.808 62.577 10.748C62.711 10.674 62.825 10.654 62.922 10.654C63.017 10.654 63.055 10.767 63.055 10.92V18.241C63.055 18.873 63.479 18.873 64.015 18.873H64.341V19.37C63.688 19.37 63.017 19.333 62.327 19.333C61.636 19.333 60.945 19.353 60.235 19.37V18.873ZM66.165 13.189C66.165 12.485 65.954 12.294 65.053 11.933V11.568C65.877 11.301 66.663 11.052 67.585 10.654C67.643 10.654 67.699 10.691 67.699 10.842V12.085C68.794 11.301 69.736 10.654 71.022 10.654C72.652 10.654 73.229 11.834 73.229 13.324V18.242C73.229 18.874 73.652 18.874 74.188 18.874H74.533V19.37C73.859 19.37 73.188 19.333 72.5 19.333C71.808 19.333 71.117 19.353 70.426 19.37V18.874H70.772C71.31 18.874 71.691 18.874 71.691 18.242V13.305C71.691 12.216 71.021 11.684 69.926 11.684C69.312 11.684 68.335 12.178 67.699 12.599V18.242C67.699 18.874 68.125 18.874 68.662 18.874H69.007V19.37C68.335 19.37 67.661 19.333 66.969 19.333C66.281 19.333 65.589 19.353 64.899 19.37V18.874H65.245C65.782 18.874 66.165 18.874 66.165 18.242V13.189ZM79.39 13.495C79.868 13.495 79.924 13.247 79.924 13.019C79.924 12.044 79.33 11.263 78.256 11.263C77.086 11.263 76.28 12.12 76.049 13.495H79.39ZM75.993 14.107C75.953 14.278 75.953 14.563 75.993 15.212C76.105 17.025 77.278 18.512 78.812 18.512C79.868 18.512 80.696 17.939 81.404 17.234L81.673 17.501C80.789 18.664 79.697 19.655 78.124 19.655C75.07 19.655 74.458 16.718 74.458 15.499C74.458 11.76 76.99 10.654 78.331 10.654C79.887 10.654 81.559 11.625 81.577 13.646C81.577 13.764 81.577 13.876 81.559 13.992L81.384 14.107H75.993ZM82.017 18.873H82.537C83.074 18.873 83.455 18.873 83.455 18.241V12.884C83.455 12.294 82.747 12.179 82.459 12.025V11.742C83.859 11.149 84.629 10.654 84.802 10.654C84.916 10.654 84.973 10.709 84.973 10.902V12.617H85.014C85.492 11.875 86.298 10.654 87.469 10.654C87.949 10.654 88.561 10.976 88.561 11.664C88.561 12.179 88.2 12.639 87.661 12.639C87.064 12.639 87.064 12.179 86.394 12.179C86.068 12.179 84.992 12.617 84.992 13.764V18.241C84.992 18.873 85.376 18.873 85.913 18.873H86.988V19.37C85.932 19.352 85.128 19.333 84.303 19.333C83.514 19.333 82.709 19.353 82.017 19.37V18.873ZM89.405 16.719C89.657 17.977 90.424 19.047 91.825 19.047C92.957 19.047 93.377 18.359 93.377 17.692C93.377 15.442 89.197 16.164 89.197 13.095C89.197 12.025 90.061 10.655 92.172 10.655C92.785 10.655 93.61 10.825 94.358 11.206L94.493 13.152H94.053C93.861 11.951 93.187 11.262 91.959 11.262C91.191 11.262 90.463 11.702 90.463 12.522C90.463 14.755 94.914 14.068 94.914 17.062C94.914 18.32 93.897 19.656 91.615 19.656C90.845 19.656 89.943 19.39 89.272 19.009L89.061 16.815L89.405 16.719Z" fill="#231F20"/>
<mask id="mask1_894_2290" style="mask-type:luminance" maskUnits="userSpaceOnUse" x="0" y="0" width="43" height="37">
<path d="M0 0.370514H42.216V36.6375H0V0.370514Z" fill="#004C97"/>
</mask>
<g mask="url(#mask1_894_2290)">
<path fill-rule="evenodd" clip-rule="evenodd" d="M18.404 36.6375C8.309 36.6835 0 28.5565 0 18.6615C0 7.84751 8.309 0.367507 18.404 0.369507H23.136C33.111 0.367507 42.216 7.84351 42.216 18.6615C42.216 28.5515 33.111 36.6375 23.136 36.6375H18.404Z" fill="#004C97"/>
</g>
<mask id="mask2_894_2290" style="mask-type:luminance" maskUnits="userSpaceOnUse" x="0" y="0" width="38" height="37">
<path d="M0 0.370514H37.376V36.6375H0V0.370514Z" fill="#004C97"/>
</mask>
<g mask="url(#mask2_894_2290)">
<path fill-rule="evenodd" clip-rule="evenodd" d="M18.404 36.6375C8.309 36.6835 0 28.5565 0 18.6615C0 7.84751 8.309 0.367507 18.404 0.369507H18.669C28.643 0.367507 37.376 7.84351 37.376 18.6615C37.376 28.5515 28.643 36.6375 18.669 36.6375H18.404Z" fill="#004C97"/>
</g>
<path fill-rule="evenodd" clip-rule="evenodd" d="M18.445 1.87C9.21999 1.873 1.745 9.30299 1.745 18.472C1.745 27.639 9.21999 35.068 18.445 35.069C27.671 35.069 35.147 27.639 35.15 18.472C35.147 9.30199 27.67 1.872 18.445 1.87Z" fill="#FEFEFE"/>
<path fill-rule="evenodd" clip-rule="evenodd" d="M14.653 28.288V8.65199C10.683 10.172 7.868 13.99 7.858 18.472C7.868 22.952 10.684 26.772 14.653 28.288ZM29.034 18.472C29.026 13.988 26.207 10.165 22.233 8.64999V28.293C26.207 26.776 29.027 22.957 29.034 18.472Z" fill="#004C97"/>
</g>
<defs>
<clipPath id="clip0_894_2290">
<rect width="137" height="37" fill="white"/>
</clipPath>
</defs>
</svg>
