<svg width="145" height="31" viewBox="0 0 145 31" fill="none" xmlns="http://www.w3.org/2000/svg">
<path d="M38.5852 23V9.90909H46.4858V11.3153H40.1705V15.7386H46.0767V17.1449H40.1705V21.5938H46.5881V23H38.5852ZM49.9215 13.1818L52.2738 17.196L54.626 13.1818H56.3647L53.1942 18.0909L56.3647 23H54.626L52.2738 19.1903L49.9215 23H48.1829L51.3022 18.0909L48.1829 13.1818H49.9215ZM58.1752 26.6818V13.1818H59.6326V14.7415H59.8116C59.9224 14.571 60.0758 14.3537 60.2718 14.0895C60.4721 13.821 60.7576 13.5824 61.1283 13.3736C61.5033 13.1605 62.0104 13.054 62.6496 13.054C63.4763 13.054 64.205 13.2607 64.8357 13.674C65.4664 14.0874 65.9586 14.6733 66.3123 15.4318C66.666 16.1903 66.8428 17.0852 66.8428 18.1165C66.8428 19.1562 66.666 20.0575 66.3123 20.8203C65.9586 21.5788 65.4685 22.1669 64.8421 22.5845C64.2157 22.9979 63.4934 23.2045 62.6752 23.2045C62.0445 23.2045 61.5395 23.1001 61.1603 22.8913C60.781 22.6783 60.4891 22.4375 60.2846 22.169C60.08 21.8963 59.9224 21.6705 59.8116 21.4915H59.6837V26.6818H58.1752ZM59.6582 18.0909C59.6582 18.8324 59.7668 19.4865 59.9841 20.0533C60.2015 20.6158 60.5189 21.0568 60.9366 21.3764C61.3542 21.6918 61.8655 21.8494 62.4707 21.8494C63.1013 21.8494 63.6276 21.6832 64.0495 21.3509C64.4756 21.0142 64.7952 20.5625 65.0083 19.9957C65.2256 19.4247 65.3343 18.7898 65.3343 18.0909C65.3343 17.4006 65.2278 16.7784 65.0147 16.2244C64.8059 15.6662 64.4884 15.2251 64.0623 14.9013C63.6404 14.5732 63.1099 14.4091 62.4707 14.4091C61.857 14.4091 61.3414 14.5646 60.9238 14.8757C60.5062 15.1825 60.1908 15.6129 59.9778 16.1669C59.7647 16.7166 59.6582 17.358 59.6582 18.0909ZM72.9184 23.2045C71.9724 23.2045 71.1563 22.9957 70.4703 22.5781C69.7885 22.1562 69.2622 21.5682 68.8914 20.8139C68.525 20.0554 68.3417 19.1733 68.3417 18.1676C68.3417 17.1619 68.525 16.2756 68.8914 15.5085C69.2622 14.7372 69.7778 14.1364 70.4383 13.706C71.1031 13.2713 71.8787 13.054 72.765 13.054C73.2764 13.054 73.7814 13.1392 74.2799 13.3097C74.7785 13.4801 75.2323 13.7571 75.6414 14.1406C76.0505 14.5199 76.3765 15.0227 76.6194 15.6491C76.8623 16.2756 76.9838 17.0469 76.9838 17.9631V18.6023H69.4156V17.2983H75.4497C75.4497 16.7443 75.3389 16.25 75.1173 15.8153C74.9 15.3807 74.5889 15.0376 74.184 14.7862C73.7835 14.5348 73.3105 14.4091 72.765 14.4091C72.1642 14.4091 71.6443 14.5582 71.2054 14.8565C70.7707 15.1506 70.4362 15.5341 70.2018 16.0071C69.9674 16.4801 69.8502 16.9872 69.8502 17.5284V18.3977C69.8502 19.1392 69.9781 19.7678 70.2338 20.2834C70.4937 20.7947 70.8538 21.1847 71.314 21.4531C71.7742 21.7173 72.309 21.8494 72.9184 21.8494C73.3147 21.8494 73.6727 21.794 73.9923 21.6832C74.3162 21.5682 74.5953 21.3977 74.8296 21.1719C75.064 20.9418 75.2451 20.6562 75.373 20.3153L76.8304 20.7244C76.6769 21.2188 76.4191 21.6534 76.0569 22.0284C75.6947 22.3991 75.2473 22.6889 74.7146 22.8977C74.1819 23.1023 73.5832 23.2045 72.9184 23.2045ZM78.9365 23V13.1818H80.3939V14.6648H80.4962C80.6751 14.179 80.999 13.7848 81.4678 13.4822C81.9365 13.1797 82.4649 13.0284 83.053 13.0284C83.1638 13.0284 83.3023 13.0305 83.4685 13.0348C83.6347 13.0391 83.7604 13.0455 83.8456 13.054V14.5881C83.7945 14.5753 83.6773 14.5561 83.494 14.5305C83.3151 14.5007 83.1254 14.4858 82.9251 14.4858C82.4479 14.4858 82.0217 14.5859 81.6467 14.7862C81.276 14.9822 80.982 15.255 80.7646 15.6044C80.5516 15.9496 80.445 16.3437 80.445 16.7869V23H78.9365ZM85.2918 23V13.1818H86.8003V23H85.2918ZM86.0588 11.5455C85.7648 11.5455 85.5112 11.4453 85.2982 11.245C85.0894 11.0447 84.985 10.804 84.985 10.5227C84.985 10.2415 85.0894 10.0007 85.2982 9.80043C85.5112 9.60014 85.7648 9.5 86.0588 9.5C86.3529 9.5 86.6043 9.60014 86.8131 9.80043C87.0262 10.0007 87.1327 10.2415 87.1327 10.5227C87.1327 10.804 87.0262 11.0447 86.8131 11.245C86.6043 11.4453 86.3529 11.5455 86.0588 11.5455ZM93.3377 23.2045C92.3917 23.2045 91.5757 22.9957 90.8896 22.5781C90.2078 22.1562 89.6815 21.5682 89.3107 20.8139C88.9443 20.0554 88.761 19.1733 88.761 18.1676C88.761 17.1619 88.9443 16.2756 89.3107 15.5085C89.6815 14.7372 90.1971 14.1364 90.8576 13.706C91.5224 13.2713 92.298 13.054 93.1843 13.054C93.6957 13.054 94.2007 13.1392 94.6992 13.3097C95.1978 13.4801 95.6517 13.7571 96.0607 14.1406C96.4698 14.5199 96.7958 15.0227 97.0387 15.6491C97.2816 16.2756 97.4031 17.0469 97.4031 17.9631V18.6023H89.8349V17.2983H95.869C95.869 16.7443 95.7582 16.25 95.5366 15.8153C95.3193 15.3807 95.0082 15.0376 94.6034 14.7862C94.2028 14.5348 93.7298 14.4091 93.1843 14.4091C92.5835 14.4091 92.0636 14.5582 91.6247 14.8565C91.19 15.1506 90.8555 15.5341 90.6211 16.0071C90.3867 16.4801 90.2696 16.9872 90.2696 17.5284V18.3977C90.2696 19.1392 90.3974 19.7678 90.6531 20.2834C90.913 20.7947 91.2731 21.1847 91.7333 21.4531C92.1936 21.7173 92.7284 21.8494 93.3377 21.8494C93.734 21.8494 94.092 21.794 94.4116 21.6832C94.7355 21.5682 95.0146 21.3977 95.249 21.1719C95.4833 20.9418 95.6644 20.6562 95.7923 20.3153L97.2497 20.7244C97.0963 21.2188 96.8384 21.6534 96.4762 22.0284C96.114 22.3991 95.6666 22.6889 95.1339 22.8977C94.6012 23.1023 94.0025 23.2045 93.3377 23.2045ZM100.864 17.0938V23H99.3558V13.1818H100.813V14.7159H100.941C101.171 14.2173 101.521 13.8168 101.989 13.5142C102.458 13.2074 103.063 13.054 103.805 13.054C104.469 13.054 105.051 13.1903 105.55 13.4631C106.048 13.7315 106.436 14.1406 106.713 14.6903C106.99 15.2358 107.129 15.9261 107.129 16.7614V23H105.62V16.8636C105.62 16.0923 105.42 15.4915 105.019 15.0611C104.619 14.6264 104.069 14.4091 103.37 14.4091C102.888 14.4091 102.458 14.5135 102.079 14.7223C101.704 14.9311 101.408 15.2358 101.19 15.6364C100.973 16.0369 100.864 16.5227 100.864 17.0938ZM113.532 23.2045C112.611 23.2045 111.819 22.9872 111.154 22.5526C110.489 22.1179 109.978 21.5192 109.62 20.7564C109.262 19.9936 109.083 19.1222 109.083 18.142C109.083 17.1449 109.266 16.2649 109.633 15.5021C110.003 14.7351 110.519 14.1364 111.179 13.706C111.844 13.2713 112.62 13.054 113.506 13.054C114.197 13.054 114.819 13.1818 115.373 13.4375C115.927 13.6932 116.38 14.0511 116.734 14.5114C117.088 14.9716 117.307 15.5085 117.393 16.1222H115.884C115.769 15.6747 115.513 15.2784 115.117 14.9332C114.725 14.5838 114.197 14.4091 113.532 14.4091C112.944 14.4091 112.428 14.5625 111.985 14.8693C111.546 15.1719 111.203 15.6001 110.956 16.1541C110.713 16.7038 110.591 17.3494 110.591 18.0909C110.591 18.8494 110.711 19.5099 110.949 20.0724C111.192 20.6349 111.533 21.0717 111.972 21.3828C112.415 21.6939 112.935 21.8494 113.532 21.8494C113.924 21.8494 114.28 21.7812 114.599 21.6449C114.919 21.5085 115.189 21.3125 115.411 21.0568C115.633 20.8011 115.79 20.4943 115.884 20.1364H117.393C117.307 20.7159 117.096 21.2379 116.76 21.7024C116.427 22.1626 115.986 22.5291 115.437 22.8018C114.891 23.0703 114.256 23.2045 113.532 23.2045ZM123.372 23.2045C122.426 23.2045 121.61 22.9957 120.924 22.5781C120.242 22.1562 119.716 21.5682 119.345 20.8139C118.979 20.0554 118.796 19.1733 118.796 18.1676C118.796 17.1619 118.979 16.2756 119.345 15.5085C119.716 14.7372 120.232 14.1364 120.892 13.706C121.557 13.2713 122.333 13.054 123.219 13.054C123.73 13.054 124.235 13.1392 124.734 13.3097C125.232 13.4801 125.686 13.7571 126.095 14.1406C126.504 14.5199 126.83 15.0227 127.073 15.6491C127.316 16.2756 127.438 17.0469 127.438 17.9631V18.6023H119.869V17.2983H125.904C125.904 16.7443 125.793 16.25 125.571 15.8153C125.354 15.3807 125.043 15.0376 124.638 14.7862C124.237 14.5348 123.764 14.4091 123.219 14.4091C122.618 14.4091 122.098 14.5582 121.659 14.8565C121.225 15.1506 120.89 15.5341 120.656 16.0071C120.421 16.4801 120.304 16.9872 120.304 17.5284V18.3977C120.304 19.1392 120.432 19.7678 120.688 20.2834C120.948 20.7947 121.308 21.1847 121.768 21.4531C122.228 21.7173 122.763 21.8494 123.372 21.8494C123.769 21.8494 124.127 21.794 124.446 21.6832C124.77 21.5682 125.049 21.3977 125.284 21.1719C125.518 20.9418 125.699 20.6562 125.827 20.3153L127.284 20.7244C127.131 21.2188 126.873 21.6534 126.511 22.0284C126.149 22.3991 125.701 22.6889 125.168 22.8977C124.636 23.1023 124.037 23.2045 123.372 23.2045ZM135.082 9.90909L138.457 15.3551H138.56L141.935 9.90909H143.801L139.685 16.4545L143.801 23H141.935L138.56 17.6562H138.457L135.082 23H133.216L137.435 16.4545L133.216 9.90909H135.082Z" fill="white"/>
<path d="M16.2874 9.52954C15.9212 9.22988 15.9489 8.66144 16.3427 8.39894L28.7542 0.124626C29.4144 -0.315515 30.1849 0.503011 29.7058 1.13548L21.0867 12.5127C20.8457 12.8308 20.3887 12.8851 20.0798 12.6324L16.2874 9.52954Z" fill="#47D4B1"/>
<path d="M16.301 22.3951C15.9199 22.1411 15.8791 21.5965 16.218 21.2885L20.0674 17.789C20.3765 17.508 20.8607 17.5563 21.1081 17.8928L29.8569 29.7912C30.3236 30.4258 29.5547 31.2309 28.8993 30.794L16.301 22.3951Z" fill="#0088A6"/>
<path d="M9.99304 15.4109H19.256L1.14842 29.7461C0.504428 30.2559 -0.342532 29.4378 0.144705 28.7765L9.99304 15.4109Z" fill="#47D4B1"/>
<path d="M0.144702 2.04533C-0.342535 1.38408 0.504421 0.565944 1.14841 1.07577L19.256 15.4109H9.99304L0.144702 2.04533Z" fill="#0088A6"/>
</svg>
