<svg viewBox="0 0 375 290" fill="none" xmlns="http://www.w3.org/2000/svg">
<path d="M259.156 152.677C261.076 153.21 263.124 153.021 264.912 152.146C266.701 151.27 268.107 149.77 268.862 147.928C269.618 146.087 269.671 144.032 269.012 142.154C268.353 140.276 267.027 138.705 265.286 137.738L248.016 118.16L233.409 121.313L253.954 141.421C253.449 142.49 253.185 143.656 253.18 144.839C253.175 146.021 253.429 147.19 253.925 148.263C254.421 149.336 255.147 150.287 256.05 151.05C256.954 151.813 258.014 152.368 259.156 152.677Z" fill="#A0616A"/>
<path d="M202.338 82.5877L245.382 136.576L258.502 130.557L207.91 51.8519L202.338 82.5877Z" fill="#3F3D56"/>
<path d="M328.882 258.382C350.127 271.445 343.045 288.863 343.045 288.863L328.882 258.382Z" fill="#E6E6E6"/>
<path d="M370.634 276.238C353.914 276.132 351.754 288.546 351.754 288.546L370.634 276.238Z" fill="#E6E6E6"/>
<path d="M100.895 289.893C103.503 289.893 105.617 287.781 105.617 285.175C105.617 282.57 103.503 280.458 100.895 280.458C98.2881 280.458 96.1744 282.57 96.1744 285.175C96.1744 287.781 98.2881 289.893 100.895 289.893Z" fill="#3F3D56"/>
<path d="M104.329 190.184C104.329 190.184 115.488 156.304 116.346 153.945C117.205 151.586 126.217 155.446 128.578 156.089C130.939 156.733 130.295 159.091 130.295 159.091L118.278 193.829L121.926 195.544L133.084 160.592C139.522 153.945 134.801 153.516 134.801 153.516C134.801 153.516 121.067 148.799 115.917 148.37C110.767 147.941 112.698 154.159 112.698 154.159L100.252 187.181L104.329 190.184Z" fill="#3F3D56"/>
<path d="M131.153 198.332L131.151 198.33C129.568 196.061 127.319 194.338 124.715 193.4C124.623 193.366 124.516 193.327 124.393 193.284C118.481 191.219 77.2901 180.105 77.2901 180.105C77.2901 180.105 69.1357 177.103 65.4876 185.252C61.8395 193.4 40.1656 260.945 40.1656 260.945C40.1656 260.945 82.5563 283.597 94.9147 286.063C95.6777 286.247 96.4649 286.309 97.2473 286.247C99.348 285.956 101.416 285.463 103.421 284.774C105.639 284.052 107.749 283.033 109.694 281.744L133.728 209.911C133.728 209.911 137.162 201.977 131.153 198.332Z" fill="#15AABF"/>
<path d="M131.153 198.332L131.151 198.33C129.568 196.061 127.319 194.339 124.715 193.4C124.623 193.366 124.516 193.327 124.393 193.284C126.338 196.689 127.076 201.977 127.076 201.977C127.076 201.977 103.471 272.095 101.325 278.743C99.6894 283.809 96.3911 285.531 94.9147 286.063C95.6777 286.247 96.4649 286.309 97.2474 286.248C99.348 285.957 101.416 285.463 103.421 284.774C104.008 284.102 104.527 283.375 104.973 282.602C104.973 282.602 129.007 210.769 131.153 207.338C133.299 203.907 131.153 198.332 131.153 198.332Z" fill="#3F3D56"/>
<path d="M86.4104 290C89.0178 290 91.1315 287.888 91.1315 285.283C91.1315 282.677 89.0178 280.565 86.4104 280.565C83.803 280.565 81.6893 282.677 81.6893 285.283C81.6893 287.888 83.803 290 86.4104 290Z" fill="#3F3D56"/>
<path d="M40.5947 270.165C43.2021 270.165 45.3158 268.053 45.3158 265.448C45.3158 262.843 43.2021 260.73 40.5947 260.73C37.9873 260.73 35.8736 262.843 35.8736 265.448C35.8736 268.053 37.9873 270.165 40.5947 270.165Z" fill="#3F3D56"/>
<path d="M123.81 156.817C121.912 157.417 119.858 157.301 118.039 156.49C116.22 155.679 114.762 154.229 113.941 152.416C113.121 150.602 112.994 148.551 113.586 146.651C114.178 144.75 115.446 143.133 117.152 142.105L133.713 121.925L148.423 124.556L128.608 145.382C129.151 146.432 129.457 147.589 129.504 148.77C129.551 149.951 129.339 151.128 128.881 152.219C128.424 153.309 127.733 154.285 126.856 155.08C125.98 155.874 124.941 156.467 123.81 156.817Z" fill="#A0616A"/>
<path d="M236.683 245.611L246.942 245.45L245.708 280.388H236.685L236.683 245.611Z" fill="#A0616A"/>
<path d="M234.383 277.445L252.153 277.444H252.154C255.157 277.444 258.038 278.636 260.161 280.758C262.285 282.88 263.478 285.758 263.478 288.759V289.127L234.384 289.128L234.383 277.445Z" fill="#2F2E41"/>
<path d="M168.761 236.345L179.968 243.534L157.552 270.481L149.959 265.61L168.761 236.345Z" fill="#A0616A"/>
<path d="M149.613 261.89L164.567 271.483L164.568 271.483C167.095 273.105 168.874 275.663 169.513 278.595C170.153 281.527 169.601 284.593 167.979 287.119L167.78 287.428L143.297 271.722L149.613 261.89Z" fill="#2F2E41"/>
<path d="M164.769 129.66C164.769 129.66 189.668 47.025 197.67 45.9083C205.672 44.7917 218.565 67.1115 218.565 67.1115C235.281 88.423 252.518 157.456 252.518 157.456C252.518 157.456 223.783 159.252 202.778 170.419C181.773 181.586 156.984 169.854 156.984 169.854L164.769 129.66Z" fill="#3F3D56"/>
<path opacity="0.1" d="M164.769 129.66C164.769 129.66 189.668 47.025 197.67 45.9083C205.672 44.7916 215.29 67.338 215.29 67.338C223.62 101.74 252.518 157.456 252.518 157.456C252.518 157.456 223.783 159.252 202.778 170.419C181.773 181.586 156.984 169.854 156.984 169.854L164.769 129.66Z" fill="black"/>
<path d="M185.197 104.936V146.46L180.306 206.61L155.874 252.109L167.535 260.432L200.852 217.152L214.03 174.178L234.725 269.31L250.274 268.2L239.475 136.302L218.984 99.1755L185.197 104.936Z" fill="#2F2E41"/>
<path d="M210.301 64.7736C218.076 72.5417 210.857 80.8647 210.857 80.8647L219.741 100.84L184.758 110.273L172.532 55.6858L180.862 46.8079C197.521 46.2531 197.53 45.9081 197.53 45.9081C200.448 48.7622 210.301 64.7736 210.301 64.7736Z" fill="#CCCCCC"/>
<path d="M170.93 50.1729C168.038 52.2982 166.01 55.3939 165.217 58.8923C164.423 62.3908 164.919 66.0578 166.612 69.221C170.62 76.8659 174.931 88.7081 172.708 101.708C168.685 125.236 155.79 143.111 148.607 148.852C146.106 150.851 146.019 153.761 146.386 155.85C147.411 161.688 153.076 168.312 156.993 169.64C157.257 169.728 157.534 169.771 157.811 169.769C164.176 169.771 179.832 149.515 197.823 109.948C209.028 85.306 200.896 65.5477 192.101 53.3117C190.947 51.7107 189.486 50.3544 187.803 49.3216C186.12 48.2887 184.249 47.5998 182.298 47.2946C180.347 46.9895 178.355 47.0742 176.436 47.5438C174.518 48.0135 172.712 48.8587 171.124 50.0307L170.93 50.1729Z" fill="#3F3D56"/>
<path d="M187.525 73.9961L137.002 140.236L123.675 134.687L171.431 54.2312L187.525 73.9961Z" fill="#3F3D56"/>
<path d="M202.512 38.7165H167.762C167.047 38.7156 166.362 38.4316 165.856 37.9265C165.351 37.4214 165.067 36.7367 165.066 36.0224V21.0556C165.064 18.4209 165.582 15.8119 166.59 13.3774C167.599 10.9429 169.077 8.73077 170.941 6.86732C172.805 5.00387 175.018 3.52564 177.453 2.51709C179.889 1.50854 182.5 0.989441 185.137 0.989441C187.773 0.989441 190.384 1.50854 192.82 2.51709C195.256 3.52564 197.469 5.00387 199.333 6.86732C201.197 8.73077 202.675 10.9429 203.683 13.3774C204.691 15.8119 205.209 18.4209 205.208 21.0556V36.0224C205.207 36.7367 204.923 37.4214 204.417 37.9265C203.912 38.4316 203.226 38.7157 202.512 38.7165Z" fill="#2F2E41"/>
<path d="M202.173 30.7169C206.071 23.5913 203.451 14.6571 196.319 10.7618C189.188 6.86661 180.247 9.48539 176.349 16.611C172.451 23.7367 175.072 32.6709 182.203 36.5661C189.334 40.4614 198.275 37.8426 202.173 30.7169Z" fill="#A0616A"/>
<path d="M209.956 22.5523H188.707L188.489 19.5039L187.4 22.5523H184.128L183.696 16.5106L181.537 22.5523H175.206V22.2529C175.211 18.0468 176.885 14.0142 179.862 11.04C182.838 8.06581 186.874 6.39281 191.083 6.38806H194.079C198.288 6.39281 202.324 8.0658 205.3 11.04C208.277 14.0142 209.951 18.0468 209.956 22.2529V22.5523Z" fill="#2F2E41"/>
<path d="M188.533 41.5103C188.373 41.5101 188.214 41.4961 188.056 41.4682L172.497 38.7251V13.03H189.625L189.201 13.524C183.301 20.3994 187.746 31.548 190.92 37.5815C191.154 38.0234 191.259 38.5224 191.221 39.0209C191.184 39.5195 191.006 39.9973 190.709 40.3995C190.46 40.7434 190.133 41.0234 189.755 41.2165C189.377 41.4096 188.958 41.5103 188.533 41.5103Z" fill="#2F2E41"/>
<path d="M-42 289.445C-42 289.298 -41.9415 289.157 -41.8374 289.053C-41.7332 288.949 -41.592 288.89 -41.4447 288.89H429.445C429.592 288.89 429.733 288.949 429.837 289.053C429.942 289.157 430 289.298 430 289.445C430 289.592 429.942 289.733 429.837 289.837C429.733 289.942 429.592 290 429.445 290H-41.4447C-41.592 290 -41.7332 289.942 -41.8374 289.837C-41.9415 289.733 -42 289.592 -42 289.445Z" fill="#CBCBCB"/>
</svg>
