<svg width="342" height="304" viewBox="0 0 342 304" fill="none" xmlns="http://www.w3.org/2000/svg">
<g clip-path="url(#clip0_42_99919)">
<path d="M169.289 163.046H66.2236C63.5034 163.043 60.8956 161.96 58.9721 160.035C57.0486 158.11 55.9667 155.5 55.9636 152.778V99.259C55.9667 96.5366 57.0486 93.9266 58.9721 92.0017C60.8956 90.0767 63.5034 88.9939 66.2236 88.9908H169.289C172.009 88.9939 174.617 90.0767 176.54 92.0017C178.464 93.9266 179.546 96.5366 179.549 99.259V152.778C179.546 155.5 178.464 158.11 176.54 160.035C174.617 161.96 172.009 163.043 169.289 163.046Z" fill="#F2F2F2"/>
<path d="M305.002 163.046H201.937C199.217 163.043 196.609 161.96 194.685 160.035C192.762 158.11 191.68 155.5 191.677 152.778V99.259C191.68 96.5366 192.762 93.9266 194.685 92.0017C196.609 90.0767 199.217 88.9939 201.937 88.9908H305.002C307.722 88.9939 310.33 90.0767 312.253 92.0017C314.177 93.9266 315.259 96.5366 315.262 99.259V152.778C315.259 155.5 314.177 158.11 312.253 160.035C310.33 161.96 307.722 163.043 305.002 163.046Z" fill="#F2F2F2"/>
<path d="M179.549 252.037H55.9636V183.894C55.9667 181.171 57.0486 178.561 58.9721 176.636C60.8956 174.711 63.5034 173.628 66.2236 173.625H169.289C172.009 173.628 174.617 174.711 176.54 176.636C178.464 178.561 179.546 181.171 179.549 183.894V252.037Z" fill="#F2F2F2"/>
<path d="M315.262 252.037H191.677V183.894C191.68 181.171 192.762 178.561 194.685 176.636C196.609 174.711 199.217 173.628 201.937 173.625H305.002C307.722 173.628 310.33 174.711 312.253 176.636C314.177 178.561 315.259 181.171 315.262 183.894V252.037Z" fill="#F2F2F2"/>
<path d="M305.002 78.4115H201.937C199.217 78.4084 196.609 77.3256 194.685 75.4006C192.762 73.4756 191.68 70.8656 191.677 68.1433V10.2682C191.68 7.54582 192.762 4.93586 194.685 3.01087C196.609 1.08588 199.217 0.0030768 201.937 0H305.002C307.722 0.0030768 310.33 1.08588 312.253 3.01087C314.177 4.93586 315.259 7.54582 315.262 10.2682V68.1433C315.259 70.8656 314.177 73.4756 312.253 75.4006C310.33 77.3256 307.722 78.4084 305.002 78.4115Z" fill="#F2F2F2"/>
<path d="M169.289 78.4115H66.2236C63.5034 78.4084 60.8956 77.3256 58.9721 75.4006C57.0486 73.4756 55.9667 70.8656 55.9636 68.1433V10.2682C55.9667 7.54582 57.0486 4.93586 58.9721 3.01087C60.8956 1.08588 63.5034 0.0030768 66.2236 0H169.289C172.009 0.0030768 174.617 1.08588 176.54 3.01087C178.464 4.93586 179.546 7.54582 179.549 10.2682V68.1433C179.546 70.8656 178.464 73.4756 176.54 75.4006C174.617 77.3256 172.009 78.4084 169.289 78.4115Z" fill="#F2F2F2"/>
<path d="M311.842 255.148H61.8709C60.3042 255.148 58.8016 254.526 57.6938 253.417C56.586 252.308 55.9636 250.804 55.9636 249.236C55.9636 247.668 56.586 246.165 57.6938 245.056C58.8016 243.947 60.3042 243.324 61.8709 243.324H311.842C313.409 243.324 314.911 243.947 316.019 245.056C317.127 246.165 317.749 247.668 317.749 249.236C317.749 250.804 317.127 252.308 316.019 253.417C314.911 254.526 313.409 255.148 311.842 255.148Z" fill="#CCCCCC"/>
<path d="M175.975 248.925H73.9963V225.277C73.9963 211.743 79.3684 198.764 88.9307 189.194C98.493 179.624 111.462 174.248 124.985 174.248C138.509 174.248 151.478 179.624 161.04 189.194C170.602 198.764 175.975 211.743 175.975 225.277V248.925Z" fill="#CCCCCC"/>
<path d="M297.851 248.925H195.873V225.277C195.873 211.743 201.245 198.764 210.807 189.194C220.369 179.624 233.339 174.248 246.862 174.248C260.385 174.248 273.354 179.624 282.917 189.194C292.479 198.764 297.851 211.743 297.851 225.277V248.925Z" fill="#CCCCCC"/>
<path d="M242.198 303.378H250.282V251.103H242.198V303.378Z" fill="#CCCCCC"/>
<path d="M219.191 303.093C219.191 303.968 231.44 303.432 246.551 303.432C261.661 303.432 273.911 303.968 273.911 303.093C273.911 302.219 261.661 295.288 246.551 295.288C231.44 295.288 219.191 302.219 219.191 303.093Z" fill="#CCCCCC"/>
<path d="M120.322 303.378H128.405V251.103H120.322V303.378Z" fill="#CCCCCC"/>
<path d="M97.3146 303.093C97.3146 303.968 109.564 303.432 124.675 303.432C139.785 303.432 152.035 303.968 152.035 303.093C152.035 302.219 139.785 295.288 124.675 295.288C109.564 295.288 97.3146 302.219 97.3146 303.093Z" fill="#CCCCCC"/>
<path d="M160.695 296.252H168.319L171.945 266.824H160.694L160.695 296.252Z" fill="#A0616A"/>
<path d="M183.021 303.335L159.062 303.336L159.062 294.072L173.764 294.071C174.979 294.071 176.183 294.311 177.306 294.776C178.429 295.242 179.45 295.924 180.31 296.784C181.169 297.645 181.851 298.666 182.316 299.79C182.782 300.914 183.021 302.118 183.021 303.335Z" fill="#2F2E41"/>
<path d="M172.596 291.994L179.869 289.709L174.526 260.544L163.791 263.916L172.596 291.994Z" fill="#A0616A"/>
<path d="M196.016 292.063L173.156 299.242L170.385 290.403L184.412 285.997C186.755 285.262 189.293 285.488 191.469 286.625C193.646 287.762 195.281 289.719 196.016 292.063Z" fill="#2F2E41"/>
<path d="M167.495 278.449L153.55 241.813C150.421 242.548 124.183 248.358 115.396 238.995C112.384 235.785 111.797 231.135 113.65 225.174L118.778 218.724L118.938 218.733C120.877 218.835 166.467 221.392 169.592 235.155C172.227 246.758 177.039 268.39 178.451 274.744C178.594 275.402 178.496 276.09 178.175 276.682C177.854 277.274 177.331 277.731 176.701 277.969L171.093 280.074C170.78 280.192 170.449 280.252 170.115 280.252C169.548 280.252 168.993 280.08 168.526 279.758C168.058 279.436 167.699 278.979 167.495 278.449Z" fill="#2F2E41"/>
<path d="M159.412 282.805L145.466 246.169C142.337 246.904 116.1 252.714 107.312 243.351C104.3 240.141 103.713 235.492 105.566 229.53L110.695 223.081L110.854 223.089C112.793 223.191 158.383 225.748 161.508 239.511C164.143 251.114 168.955 272.746 170.367 279.1C170.51 279.758 170.413 280.446 170.091 281.038C169.77 281.63 169.247 282.087 168.618 282.326L163.009 284.43C162.697 284.548 162.366 284.608 162.032 284.608C161.464 284.608 160.91 284.436 160.442 284.114C159.974 283.792 159.615 283.336 159.412 282.805Z" fill="#2F2E41"/>
<path d="M146.867 211.726C144.801 211.725 142.769 211.187 140.972 210.165C139.176 209.143 137.675 207.671 136.617 205.894L132.188 198.385L142.715 192.627L147.185 198.76L177.513 195.562C177.661 195.295 177.827 195.039 178.01 194.795C178.592 194.028 179.329 193.393 180.172 192.93C181.016 192.468 181.947 192.188 182.906 192.11C183.869 192.027 184.838 192.152 185.749 192.475C186.66 192.798 187.491 193.313 188.187 193.984C189.302 195.055 190.023 196.471 190.233 198.003C190.443 199.536 190.13 201.094 189.343 202.425C188.851 203.255 188.19 203.971 187.402 204.527C186.614 205.083 185.718 205.466 184.772 205.651C183.826 205.836 182.852 205.819 181.913 205.601C180.974 205.383 180.092 204.969 179.324 204.386C179.146 204.25 178.975 204.104 178.812 203.95L149.764 211.362C148.817 211.604 147.844 211.726 146.867 211.726Z" fill="#A0616A"/>
<path d="M105.369 231.465C104.949 231.162 104.621 230.749 104.422 230.272C104.222 229.794 104.159 229.27 104.238 228.759C105.968 217.344 103.978 200.992 102.003 189.284C101.599 186.908 101.756 184.471 102.462 182.167C103.168 179.864 104.404 177.757 106.07 176.017C107.736 174.278 109.785 172.952 112.055 172.148C114.325 171.343 116.751 171.082 119.14 171.385C121.218 171.66 123.277 172.066 125.304 172.601C128.671 173.45 131.649 175.419 133.749 178.187C135.849 180.954 136.945 184.354 136.858 187.828C136.563 199.125 138.855 213.221 139.854 218.757C139.923 219.138 139.912 219.528 139.823 219.904C139.733 220.28 139.568 220.633 139.336 220.942C139.109 221.248 138.82 221.503 138.489 221.69C138.157 221.878 137.79 221.994 137.411 222.031C126.338 223.162 114.396 228.567 108.264 231.687C107.87 231.891 107.433 231.998 106.989 231.999C106.406 231.997 105.839 231.81 105.369 231.465Z" fill="#15AABF"/>
<path d="M135.26 202.022C134.918 201.888 134.606 201.687 134.342 201.43C134.078 201.174 133.867 200.868 133.722 200.53L127.547 186.253C127.173 185.39 126.972 184.462 126.957 183.522C126.941 182.582 127.111 181.648 127.457 180.774C127.802 179.899 128.316 179.101 128.97 178.426C129.624 177.751 130.404 177.211 131.266 176.837C132.128 176.464 133.056 176.264 133.995 176.249C134.935 176.235 135.868 176.405 136.741 176.752C137.615 177.098 138.411 177.614 139.086 178.268C139.76 178.923 140.299 179.704 140.671 180.568L146.847 194.845C147.141 195.527 147.152 196.297 146.879 196.987C146.606 197.678 146.071 198.231 145.391 198.527L137.402 201.988C137.065 202.135 136.702 202.214 136.334 202.22C135.967 202.226 135.602 202.159 135.26 202.022Z" fill="#15AABF"/>
<path d="M118.003 166.528C126.438 166.528 133.276 159.685 133.276 151.243C133.276 142.802 126.438 135.959 118.003 135.959C109.568 135.959 102.731 142.802 102.731 151.243C102.731 159.685 109.568 166.528 118.003 166.528Z" fill="#A0616A"/>
<path d="M108.774 164.823C108.557 165.072 108.293 165.276 107.997 165.422C107.7 165.568 107.377 165.653 107.048 165.672C106.718 165.691 106.387 165.644 106.076 165.533C105.765 165.422 105.479 165.249 105.235 165.026C101.83 162.267 99.129 158.737 97.3556 154.727C95.3701 149.991 95.0791 144.211 97.3388 139.771C99.249 136.018 102.678 133.629 106.101 131.677C107.414 130.849 108.852 130.241 110.36 129.876C111.121 129.703 111.91 129.691 112.676 129.842C113.443 129.993 114.169 130.302 114.808 130.751C115.486 131.267 116.011 131.959 116.327 132.751C116.642 133.544 116.736 134.407 116.598 135.249C118.164 133.184 120.275 131.599 122.693 130.671C124.176 130.032 125.834 129.92 127.39 130.356C129.588 131.09 131.216 133.312 132.121 135.699C132.853 137.527 133.122 139.507 132.902 141.464C132.806 142.398 132.521 143.303 132.065 144.124C131.608 144.945 130.99 145.664 130.247 146.238C128.454 147.476 126.144 147.351 124.058 146.802C121.973 146.254 119.949 145.325 117.827 145.066C115.705 144.807 113.353 145.369 112.089 147.263C111.199 148.597 110.989 150.354 110.807 152.029L109.862 160.74C109.796 161.987 109.527 163.214 109.068 164.374C108.99 164.536 108.891 164.687 108.774 164.823Z" fill="#2F2E41"/>
<path d="M141.421 227.686C140.513 227.368 139.682 226.863 138.982 226.203C138.282 225.542 137.728 224.742 137.358 223.854C137.272 223.646 137.198 223.435 137.134 223.219L104.6 213.951C103.202 213.547 101.971 212.703 101.09 211.543C100.21 210.384 99.7263 208.971 99.7115 207.515L99.6321 194.943L111.624 195.264L112.406 202.816L140.227 215.316C140.489 215.159 140.761 215.021 141.042 214.902C142.067 214.472 143.181 214.299 144.288 214.396C145.395 214.493 146.462 214.858 147.396 215.46C148.33 216.062 149.104 216.883 149.65 217.851C150.197 218.82 150.5 219.907 150.533 221.018C150.566 222.13 150.328 223.233 149.839 224.232C149.351 225.231 148.627 226.096 147.73 226.752C146.833 227.408 145.79 227.836 144.691 227.999C143.591 228.162 142.469 228.054 141.421 227.686Z" fill="#A0616A"/>
<path d="M99.8187 200.462C99.5744 200.187 99.3871 199.866 99.2676 199.518C99.1481 199.17 99.0987 198.802 99.1223 198.435L100.076 182.907C100.132 181.967 100.373 181.049 100.784 180.203C101.196 179.357 101.77 178.6 102.473 177.976C103.177 177.353 103.997 176.874 104.886 176.567C105.775 176.261 106.715 176.133 107.653 176.191C108.592 176.249 109.509 176.491 110.354 176.904C111.199 177.317 111.953 177.893 112.576 178.598C113.198 179.304 113.675 180.125 113.979 181.015C114.284 181.905 114.41 182.847 114.351 183.786L113.397 199.314C113.35 200.055 113.012 200.747 112.456 201.239C111.901 201.731 111.173 201.982 110.432 201.937L101.743 201.402C101.376 201.381 101.017 201.287 100.687 201.125C100.356 200.964 100.061 200.739 99.8187 200.462Z" fill="#15AABF"/>
<path d="M184.722 208.164H175.932C175.65 208.165 175.378 208.06 175.169 207.87C174.96 207.681 174.83 207.42 174.803 207.139L173.044 189.091H187.611L185.851 207.139C185.825 207.42 185.694 207.681 185.485 207.87C185.276 208.06 185.004 208.165 184.722 208.164Z" fill="#15AABF"/>
<path d="M187.587 191.361H173.067C172.766 191.361 172.478 191.241 172.265 191.028C172.053 190.816 171.933 190.527 171.933 190.226V187.501C171.933 187.2 172.053 186.912 172.265 186.699C172.478 186.486 172.766 186.366 173.067 186.366H187.587C187.888 186.366 188.177 186.486 188.389 186.699C188.602 186.912 188.721 187.2 188.722 187.501V190.226C188.721 190.527 188.602 190.816 188.389 191.028C188.177 191.241 187.888 191.361 187.587 191.361Z" fill="#3F3D56"/>
<path d="M52.5601 191.984H34.8301C34.3076 191.984 33.8065 192.191 33.4371 192.561C33.0676 192.931 32.86 193.432 32.86 193.955V231.415H35.8151V196.913C35.8151 196.39 36.0226 195.888 36.3921 195.518C36.7615 195.149 37.2626 194.941 37.7851 194.941H50.5901C51.1126 194.941 51.6137 195.149 51.9831 195.518C52.3526 195.888 52.5601 196.39 52.5601 196.913V231.415H55.5151V193.955C55.5151 193.432 55.3076 192.931 54.9381 192.561C54.5687 192.191 54.0676 191.984 53.5451 191.984H52.5601Z" fill="#3F3D56"/>
<path d="M64.3802 303.378H22.0251C19.8053 303.375 17.6771 302.492 16.1075 300.921C14.5379 299.35 13.655 297.22 13.6525 294.998V232.894C13.655 230.672 14.5379 228.542 16.1075 226.972C17.6771 225.401 19.8053 224.517 22.0251 224.515H64.3802C66.6 224.517 68.7281 225.401 70.2977 226.972C71.8674 228.542 72.7503 230.672 72.7527 232.894V294.998C72.7503 297.22 71.8674 299.35 70.2977 300.921C68.7281 302.492 66.6 303.375 64.3802 303.378Z" fill="#3F3D56"/>
<path d="M14.4242 276.197C11.5452 276.197 9.9917 270.229 9.9917 264.614C9.9917 258.998 11.5452 253.031 14.4242 253.031C17.3032 253.031 18.8567 258.998 18.8567 264.614C18.8567 270.229 17.3032 276.197 14.4242 276.197ZM14.4242 254.017C12.7935 254.017 10.9767 258.369 10.9767 264.614C10.9767 270.859 12.7935 275.211 14.4242 275.211C16.0549 275.211 17.8717 270.859 17.8717 264.614C17.8717 258.369 16.0549 254.017 14.4242 254.017Z" fill="#3F3D56"/>
<path d="M61.4252 266.411H53.5452C52.8923 266.41 52.2664 266.15 51.8047 265.688C51.3431 265.226 51.0834 264.6 51.0826 263.946V258.031C51.0834 257.378 51.3431 256.752 51.8047 256.29C52.2664 255.828 52.8923 255.568 53.5452 255.567H61.4252C62.0781 255.568 62.7039 255.828 63.1656 256.29C63.6272 256.752 63.8869 257.378 63.8877 258.031V263.946C63.8869 264.6 63.6272 265.226 63.1656 265.688C62.7039 266.15 62.0781 266.41 61.4252 266.411Z" fill="white"/>
<path d="M63.8877 299.202H18.8567C18.5955 299.202 18.3449 299.098 18.1602 298.913C17.9755 298.728 17.8717 298.477 17.8717 298.216V229.444C17.8717 229.182 17.9755 228.931 18.1602 228.747C18.3449 228.562 18.5955 228.458 18.8567 228.458H63.8877C64.1489 228.458 64.3995 228.562 64.5842 228.747C64.7689 228.931 64.8727 229.182 64.8727 229.444C64.8727 229.705 64.7689 229.956 64.5842 230.141C64.3995 230.326 64.1489 230.429 63.8877 230.429H19.8417V297.23H63.8877C64.1485 297.231 64.3984 297.335 64.5826 297.52C64.7668 297.704 64.8702 297.955 64.8702 298.216C64.8702 298.477 64.7668 298.727 64.5826 298.912C64.3984 299.097 64.1485 299.201 63.8877 299.202Z" fill="white"/>
<path d="M301.414 114.789C300.835 114.289 300.164 113.907 299.438 113.665C297.815 113.162 296.11 112.977 294.417 113.119C293.175 113.189 291.941 113.361 290.727 113.633L234.038 129.684C232.967 129.985 231.915 130.335 230.88 130.736C227.226 129.305 216.895 125.165 215.763 123.679L211.32 124.979L218.727 136.045C218.54 136.127 218.381 136.264 218.273 136.437C218.164 136.611 218.111 136.813 218.119 137.017C218.127 137.222 218.197 137.419 218.319 137.583C218.441 137.747 218.61 137.871 218.803 137.937C227.343 140.872 240.241 136.975 240.241 136.975L289.775 122.812C289.775 122.812 304.725 117.751 301.414 114.789Z" fill="white"/>
<path d="M273.325 123.664L241.131 132.364L239.229 136.171L273.325 123.664Z" fill="#F2F2F2"/>
<path d="M341.378 304H0.621818C0.456902 304 0.298749 303.934 0.182135 303.818C0.0655218 303.701 0 303.543 0 303.378C0 303.213 0.0655218 303.054 0.182135 302.938C0.298749 302.821 0.456902 302.755 0.621818 302.755H341.378C341.543 302.755 341.701 302.821 341.818 302.938C341.934 303.054 342 303.213 342 303.378C342 303.543 341.934 303.701 341.818 303.818C341.701 303.934 341.543 304 341.378 304Z" fill="#CCCCCC"/>
<path d="M272.667 54.4524C271.388 54.4521 270.123 54.716 268.951 55.2275C267.779 55.7391 266.725 56.4874 265.855 57.4255C264.818 57.0128 263.696 56.8607 262.587 56.9823C261.477 57.104 260.415 57.4958 259.492 58.1234C258.569 58.7511 257.813 59.5955 257.292 60.5828C256.77 61.5701 256.498 62.6703 256.5 63.7871H281.995C281.995 61.3114 281.012 58.9371 279.263 57.1865C277.513 55.4359 275.141 54.4524 272.667 54.4524Z" fill="white"/>
<path d="M135.867 23.959C134.588 23.9587 133.323 24.2226 132.151 24.7342C130.979 25.2458 129.925 25.9941 129.055 26.9322C128.018 26.5195 126.896 26.3673 125.787 26.489C124.677 26.6106 123.615 27.0024 122.692 27.6301C121.769 28.2578 121.013 29.1022 120.492 30.0895C119.97 31.0768 119.699 32.177 119.7 33.2937H145.195C145.195 30.818 144.212 28.4437 142.463 26.6931C140.713 24.9425 138.341 23.959 135.867 23.959Z" fill="white"/>
<path d="M93.5837 105.482C92.3048 105.482 91.0397 105.746 89.8675 106.257C88.6953 106.769 87.6412 107.517 86.7713 108.455C85.7344 108.043 84.6122 107.89 83.503 108.012C82.3937 108.134 81.3311 108.526 80.4081 109.153C79.4851 109.781 78.7298 110.625 78.2083 111.613C77.6868 112.6 77.4149 113.7 77.4164 114.817H102.911C102.911 113.591 102.67 112.377 102.201 111.245C101.732 110.112 101.045 109.083 100.179 108.216C99.3129 107.349 98.2847 106.662 97.1531 106.193C96.0214 105.724 94.8085 105.482 93.5837 105.482Z" fill="white"/>
</g>
<defs>
<clipPath id="clip0_42_99919">
<rect width="342" height="304" fill="white"/>
</clipPath>
</defs>
</svg>
