<svg width="24" height="24" viewBox="0 0 24 24" fill="none" xmlns="http://www.w3.org/2000/svg">
<g clip-path="url(#clip0_61_97375)">
<g clip-path="url(#clip1_61_97375)">
<path d="M17.5 8H18.5C19.5609 8 20.5783 8.42143 21.3284 9.17157C22.0786 9.92172 22.5 10.9391 22.5 12C22.5 13.0609 22.0786 14.0783 21.3284 14.8284C20.5783 15.5786 19.5609 16 18.5 16H17.5" stroke="currentColor" stroke-width="2" stroke-linecap="round" stroke-linejoin="round"/>
<path d="M1.5 8H17.5V17C17.5 18.0609 17.0786 19.0783 16.3284 19.8284C15.5783 20.5786 14.5609 21 13.5 21H5.5C4.43913 21 3.42172 20.5786 2.67157 19.8284C1.92143 19.0783 1.5 18.0609 1.5 17V8Z" stroke="currentColor" stroke-width="2" stroke-linecap="round" stroke-linejoin="round"/>
<path d="M5.5 1V4" stroke="currentColor" stroke-width="2" stroke-linecap="round" stroke-linejoin="round"/>
<path d="M9.5 1V4" stroke="currentColor" stroke-width="2" stroke-linecap="round" stroke-linejoin="round"/>
<path d="M13.5 1V4" stroke="currentColor" stroke-width="2" stroke-linecap="round" stroke-linejoin="round"/>
</g>
</g>
<defs>
<clipPath id="clip0_61_97375">
<rect width="24" height="24" fill="white"/>
</clipPath>
<clipPath id="clip1_61_97375">
<rect width="24" height="24" fill="white" transform="translate(-0.5)"/>
</clipPath>
</defs>
</svg>
