<svg viewBox="0 0 263 282" fill="none" xmlns="http://www.w3.org/2000/svg">
<g clip-path="url(#clip0_61_97184)">
<path d="M131.34 282C203.878 282 262.681 279.26 262.681 275.88C262.681 272.5 203.878 269.76 131.34 269.76C58.8031 269.76 0 272.5 0 275.88C0 279.26 58.8031 282 131.34 282Z" fill="#E6E6E6"/>
<path d="M194.502 182.606C192.855 182.606 191.257 183.172 189.977 184.209C188.697 185.246 187.811 186.692 187.467 188.304H197.499V213.495H187.467C187.838 215.234 188.838 216.775 190.276 217.82C191.715 218.865 193.489 219.34 195.256 219.154C197.024 218.967 198.66 218.133 199.849 216.811C201.038 215.489 201.696 213.774 201.695 211.996V189.803C201.695 188.858 201.509 187.922 201.148 187.049C200.786 186.176 200.257 185.382 199.589 184.714C198.921 184.045 198.128 183.515 197.255 183.154C196.382 182.792 195.447 182.606 194.502 182.606Z" fill="#3F3D56"/>
<path d="M113.622 138.521C110.193 138.525 106.906 139.889 104.481 142.315C102.057 144.741 100.693 148.031 100.689 151.461V250.937C100.693 254.368 102.057 257.657 104.481 260.083C106.906 262.509 110.193 263.874 113.622 263.878H176.474C179.903 263.874 183.19 262.509 185.614 260.083C188.039 257.657 189.403 254.368 189.407 250.937V151.461C189.403 148.031 188.039 144.741 185.614 142.315C183.19 139.889 179.903 138.525 176.474 138.521H113.622Z" fill="#3F3D56"/>
<path d="M106.983 275.574C110.625 275.574 113.577 272.62 113.577 268.976C113.577 265.332 110.625 262.378 106.983 262.378C103.341 262.378 100.389 265.332 100.389 268.976C100.389 272.62 103.341 275.574 106.983 275.574Z" fill="#3F3D56"/>
<path d="M180.715 275.574C184.357 275.574 187.309 272.62 187.309 268.976C187.309 265.332 184.357 262.378 180.715 262.378C177.073 262.378 174.121 265.332 174.121 268.976C174.121 272.62 177.073 275.574 180.715 275.574Z" fill="#3F3D56"/>
<path d="M115.375 137.621H111.779V264.178H115.375V137.621Z" fill="#4D4D4D"/>
<path d="M125.566 137.621H121.969V264.178H125.566V137.621Z" fill="#4D4D4D"/>
<path d="M135.756 137.621H132.16V264.178H135.756V137.621Z" fill="#4D4D4D"/>
<path d="M145.947 137.621H142.35V264.178H145.947V137.621Z" fill="#4D4D4D"/>
<path d="M156.138 137.621H152.541V264.178H156.138V137.621Z" fill="#4D4D4D"/>
<path d="M166.328 137.621H162.732V264.178H166.328V137.621Z" fill="#4D4D4D"/>
<path d="M176.519 137.621H172.922V264.178H176.519V137.621Z" fill="#4D4D4D"/>
<path d="M175.552 128.024C177.903 124.025 179.142 119.469 179.141 114.829H115.45C115.45 119.469 116.689 124.025 119.039 128.024H106.084C106.084 134.981 111.955 140.62 119.197 140.62H135.244C137.94 141.418 140.738 141.822 143.549 141.82H151.042C153.854 141.822 156.651 141.418 159.347 140.62H175.395C182.637 140.62 188.508 134.981 188.508 128.024H175.552Z" fill="#2F2E41"/>
<path d="M128.505 218.893C128.624 220.172 128.352 221.457 127.726 222.578C127.1 223.699 126.149 224.604 124.999 225.173L124.966 225.191C118.971 228.612 114.066 231.298 108.244 230.804C107.657 230.752 107.09 230.565 106.587 230.258C106.085 229.951 105.66 229.532 105.345 229.033C105.031 228.535 104.836 227.971 104.775 227.384C104.715 226.798 104.79 226.206 104.996 225.654L113.277 209.896C118.088 204.288 121.478 204.283 127.364 208.997L128.505 218.893Z" fill="#2F2E41"/>
<path d="M162.789 218.893C162.671 220.172 162.943 221.457 163.569 222.578C164.195 223.699 165.146 224.604 166.296 225.173L166.328 225.191C172.323 228.612 177.229 231.298 183.051 230.804C183.638 230.752 184.204 230.565 184.707 230.258C185.21 229.951 185.635 229.532 185.949 229.033C186.263 228.535 186.459 227.971 186.519 227.384C186.58 226.798 186.504 226.206 186.299 225.654L178.017 209.896C173.207 204.288 169.817 204.283 163.93 208.997L162.789 218.893Z" fill="#2F2E41"/>
<path d="M138.721 33.2569H115.678C114.634 33.2586 113.617 32.9238 112.778 32.302C111.94 31.6802 111.323 30.8045 111.021 29.8048C110.311 27.4385 109.395 25.1427 109.381 23.0604C109.324 14.979 109.726 9.83513 113.277 6.56606C125.111 -2.41199 133.685 -0.76052 141.751 8.66534C144.582 13.9313 143.856 21.7906 142.324 30.2363C142.172 31.0824 141.729 31.8483 141.07 32.4004C140.412 32.9524 139.58 33.2556 138.721 33.2569Z" fill="#2F2E41"/>
<path d="M126.765 43.4533C135.372 43.4533 142.35 36.4714 142.35 27.8587C142.35 19.246 135.372 12.264 126.765 12.264C118.157 12.264 111.179 19.246 111.179 27.8587C111.179 36.4714 118.157 43.4533 126.765 43.4533Z" fill="#A0616A"/>
<path d="M138.754 59.0483L117.173 59.648L115.375 36.256L136.356 35.6562L138.754 59.0483Z" fill="#A0616A"/>
<path d="M175.32 114.829L160.429 121.725C157.934 127.648 154.494 127.477 150.143 121.427C145.99 128.704 137.045 124.343 132.675 121.164C129.858 119.728 126.742 118.976 123.58 118.969C120.418 118.963 117.299 119.702 114.476 121.127L98.5908 50.6509C103.487 46.4389 110.012 43.7931 116.274 41.9539L128.563 57.2487L136.955 42.2538C142.788 37.5613 150.981 37.5527 159.734 38.655L164.845 65.9936C161.474 87.5591 166.543 98.3755 175.32 114.829Z" fill="#15AABF"/>
<path d="M126.165 207.797L113.577 208.997L94.9284 126.529C94.5043 124.619 94.5142 122.638 94.9575 120.733C95.4007 118.827 96.266 117.046 97.4894 115.52C98.7128 113.994 100.263 112.762 102.026 111.916C103.789 111.07 105.719 110.63 107.674 110.63C109.533 110.63 111.371 111.028 113.064 111.795C114.757 112.563 116.267 113.684 117.492 115.083C118.718 116.482 119.631 118.126 120.17 119.906C120.709 121.686 120.862 123.561 120.618 125.405L118.373 142.419L126.165 207.797Z" fill="#2F2E41"/>
<path d="M163.93 208.997L176.519 208.397L195.167 126.529C195.591 124.619 195.582 122.638 195.138 120.733C194.695 118.827 193.83 117.046 192.606 115.52C191.383 113.994 189.833 112.762 188.07 111.916C186.307 111.07 184.377 110.63 182.422 110.63C180.563 110.63 178.725 111.028 177.032 111.795C175.339 112.563 173.829 113.684 172.603 115.083C171.378 116.482 170.465 118.126 169.926 119.906C169.387 121.686 169.234 123.561 169.477 125.405L171.723 142.419L163.93 208.997Z" fill="#2F2E41"/>
<path d="M204.847 90.645L194.202 118.128C188.383 113.676 183.69 113.068 177.235 115.429C175.45 115.181 174.121 111.255 174.121 109.451C174.121 108.522 174.479 107.628 175.121 106.956C175.763 106.283 176.639 105.885 177.568 105.843L187.309 105.399C189.091 100.73 190.174 95.8231 190.523 90.8371C195.197 89.5101 200.139 89.4438 204.847 90.645Z" fill="#A0616A"/>
<path d="M205.892 91.4369L208.487 81.7482C209.62 78.2047 209.509 74.3801 208.171 70.9086C206.834 67.4371 204.351 64.5273 201.133 62.6617L159.734 38.655L159.135 65.046L189.707 78.2414C190.551 82.7316 190.825 87.3104 190.523 91.8694C195.292 90.4513 201.111 90.1503 205.892 91.4369Z" fill="#15AABF"/>
<path d="M142.051 19.1618L125.866 22.1607C124.37 22.1607 122.889 21.866 121.507 21.2933C120.125 20.7206 118.87 19.8811 117.812 18.8229C116.754 17.7647 115.915 16.5084 115.343 15.1257C114.771 13.7431 114.476 12.2612 114.476 10.7646H142.65L142.051 19.1618Z" fill="#2F2E41"/>
<path d="M112.378 25.1597C113.206 25.1597 113.877 23.817 113.877 22.1607C113.877 20.5044 113.206 19.1617 112.378 19.1617C111.55 19.1617 110.879 20.5044 110.879 22.1607C110.879 23.817 111.55 25.1597 112.378 25.1597Z" fill="#A0616A"/>
<path d="M161.832 69.8934H161.658V65.1218C161.658 64.7591 161.587 64.4 161.448 64.065C161.309 63.7299 161.106 63.4254 160.85 63.169C160.594 62.9125 160.289 62.7091 159.954 62.5703C159.62 62.4316 159.261 62.3601 158.898 62.3601H148.795C148.432 62.3601 148.073 62.4316 147.738 62.5703C147.404 62.7091 147.099 62.9125 146.843 63.169C146.587 63.4254 146.383 63.7299 146.245 64.065C146.106 64.4 146.035 64.7591 146.035 65.1218V91.2993C146.035 91.662 146.106 92.0211 146.245 92.3562C146.383 92.6913 146.587 92.9957 146.843 93.2522C147.099 93.5086 147.404 93.712 147.738 93.8508C148.073 93.9896 148.432 94.061 148.795 94.061H158.898C159.261 94.061 159.62 93.9896 159.954 93.8508C160.289 93.712 160.594 93.5086 160.85 93.2522C161.106 92.9957 161.309 92.6913 161.448 92.3562C161.587 92.0211 161.658 91.662 161.658 91.2993V73.29H161.832V69.8934Z" fill="#E6E6E6"/>
<path d="M153.44 72.5434C154.764 72.5434 155.838 71.4692 155.838 70.1442C155.838 68.8191 154.764 67.745 153.44 67.745C152.116 67.745 151.042 68.8191 151.042 70.1442C151.042 71.4692 152.116 72.5434 153.44 72.5434Z" fill="#15AABF"/>
<path d="M151.342 92.0367C139.011 101.722 126.649 109.783 117.473 110.93L115.975 94.4359C124.787 93.1649 136.569 87.3558 148.944 80.6406L154.997 77.4915C155.973 76.9837 157.059 76.7259 158.159 76.7411C159.259 76.7564 160.338 77.0442 161.3 77.5789C162.262 78.1137 163.076 78.8786 163.67 79.8052C164.263 80.7318 164.618 81.7913 164.703 82.8888C164.822 84.4453 164.392 85.9944 163.486 87.2654C162.58 88.5365 161.257 89.4488 159.747 89.8428L151.342 92.0367Z" fill="#A0616A"/>
<path d="M127.964 111.23L103.386 111.83C95.1165 95.5968 92.1153 78.2745 93.7953 59.9845C93.7953 58.03 94.2688 56.1047 95.1754 54.3734C96.082 52.6422 97.3945 51.1566 99.0005 50.0441L101.588 48.2517C112.652 64.685 119.514 79.9453 117.174 92.6365L124.367 92.0367C119.709 98.3275 121.865 104.743 127.964 111.23Z" fill="#15AABF"/>
<path d="M21.6207 182.065C21.6207 182.065 22.8905 154.738 48.9215 157.914L21.6207 182.065Z" fill="#E6E6E6"/>
<path d="M21.315 274.662C21.2824 274.376 18.21 245.901 30.6506 230.832C35.242 225.27 41.3943 222.155 48.9362 221.575L49.0192 222.648C41.7804 223.205 35.8798 226.189 31.4818 231.515C19.3322 246.23 22.3521 274.259 22.3837 274.54L21.315 274.662Z" fill="#E6E6E6"/>
<path d="M21.3461 154.125H20.2632V273.848H21.3461V154.125Z" fill="#E6E6E6"/>
<path d="M20.9563 155.494C25.8654 155.494 29.8449 151.512 29.8449 146.6C29.8449 141.688 25.8654 137.707 20.9563 137.707C16.0472 137.707 12.0677 141.688 12.0677 146.6C12.0677 151.512 16.0472 155.494 20.9563 155.494Z" fill="#15AABF"/>
<path d="M48.9778 230.949C53.8558 230.949 57.8102 226.992 57.8102 222.111C57.8102 217.23 53.8558 213.274 48.9778 213.274C44.0997 213.274 40.1453 217.23 40.1453 222.111C40.1453 226.992 44.0997 230.949 48.9778 230.949Z" fill="#E6E6E6"/>
</g>
<defs>
<clipPath id="clip0_61_97184">
<rect width="263" height="282" fill="white"/>
</clipPath>
</defs>
</svg>
