<svg  viewBox="0 0 21 18" fill="none" xmlns="http://www.w3.org/2000/svg">
<path d="M8.72313 1.85022L1.23668 14.3484C1.08244 14.6157 1.00084 14.9187 1.00001 15.2273C0.999174 15.5359 1.07914 15.8394 1.23194 16.1075C1.38474 16.3756 1.60507 16.5991 1.87101 16.7557C2.13695 16.9122 2.43925 16.9965 2.74784 17H17.7216C18.0302 16.9965 18.3325 16.9122 18.5984 16.7557C18.8644 16.5991 19.0847 16.3756 19.2375 16.1075C19.3903 15.8394 19.4703 15.5359 19.4694 15.2273C19.4686 14.9187 19.387 14.6157 19.2328 14.3484L11.7454 1.85022C11.5878 1.59065 11.3659 1.37606 11.1012 1.22715C10.8366 1.07823 10.538 1 10.2343 1C9.93059 1 9.63201 1.07823 9.36733 1.22715C9.10264 1.37606 8.88078 1.59065 8.72313 1.85022Z" stroke="#D42A54" stroke-width="2" stroke-linecap="round" stroke-linejoin="round"/>
<path d="M10.2877 6.33302V9.88868" stroke="#D42A54" stroke-width="2.75" stroke-linecap="round" stroke-linejoin="round"/>
<path d="M10.2877 13.4443H10.2966" stroke="#D42A54" stroke-width="2.75" stroke-linecap="round" stroke-linejoin="round"/>
</svg>
