<svg width="17" height="16" viewBox="0 0 17 16" fill="none" xmlns="http://www.w3.org/2000/svg">
<g clip-path="url(#clip0_4119_1132)">
<path fill-rule="evenodd" clip-rule="evenodd" d="M16.5 3.46667V12.5333C16.5009 12.9888 16.4119 13.44 16.238 13.8611C16.0641 14.2821 15.8088 14.6646 15.4867 14.9867C15.1646 15.3088 14.7821 15.5641 14.3611 15.738C13.94 15.9119 13.4888 16.0009 13.0333 16H3.96667C3.51117 16.0009 3.05997 15.9119 2.63896 15.738C2.21796 15.5641 1.83543 15.3088 1.51334 14.9867C1.19125 14.6646 0.935932 14.2821 0.762038 13.8611C0.588144 13.44 0.499097 12.9888 0.500007 12.5333V3.46667C0.499097 3.01117 0.588144 2.55997 0.762038 2.13896C0.935932 1.71796 1.19125 1.33543 1.51334 1.01334C1.83543 0.69125 2.21796 0.435932 2.63896 0.262038C3.05997 0.0881437 3.51117 -0.000903146 3.96667 6.90559e-06H13.0333C13.4888 -0.000903146 13.94 0.0881437 14.3611 0.262038C14.7821 0.435932 15.1646 0.69125 15.4867 1.01334C15.8088 1.33543 16.0641 1.71796 16.238 2.13896C16.4119 2.55997 16.5009 3.01117 16.5 3.46667Z" fill="url(#paint0_linear_4119_1132)"/>
<path fill-rule="evenodd" clip-rule="evenodd" d="M11.5134 9.19995H13.5001C13.6946 9.19995 13.8811 9.27721 14.0186 9.41474C14.1562 9.55227 14.2334 9.73879 14.2334 9.93328C14.2334 10.1278 14.1562 10.3143 14.0186 10.4518C13.8811 10.5894 13.6946 10.6666 13.5001 10.6666H11.5134V9.19995Z" fill="white"/>
<path fill-rule="evenodd" clip-rule="evenodd" d="M9.07327 9.19999C9.21183 9.19916 9.34917 9.22584 9.47734 9.27848C9.60551 9.33112 9.72196 9.40868 9.81993 9.50665C9.91791 9.60463 9.99547 9.72108 10.0481 9.84925C10.1007 9.97742 10.1274 10.1148 10.1266 10.2533C10.1271 10.395 10.1 10.5354 10.0466 10.6667H3.49993C3.30544 10.6667 3.11892 10.5894 2.98139 10.4519C2.84386 10.3143 2.7666 10.1278 2.7666 9.93332C2.7666 9.73883 2.84386 9.5523 2.98139 9.41478C3.11892 9.27725 3.30544 9.19999 3.49993 9.19999H9.07327ZM8.8866 4.37332V5.65332H8.03327L6.99327 3.86665C6.94759 3.78785 6.91789 3.70082 6.90587 3.61053C6.89386 3.52025 6.89976 3.42848 6.92324 3.34047C6.94673 3.25247 6.98733 3.16995 7.04273 3.09766C7.09813 3.02536 7.16723 2.96469 7.2461 2.91912C7.32497 2.87355 7.41204 2.84398 7.50235 2.8321C7.59265 2.82021 7.68441 2.82625 7.77238 2.84986C7.86035 2.87347 7.94281 2.91419 8.01503 2.96969C8.08725 3.02519 8.14781 3.09439 8.19327 3.17332L8.8866 4.37332ZM9.61993 5.61332L13.2599 11.92C13.3572 12.088 13.3837 12.2877 13.3337 12.4752C13.2837 12.6628 13.1612 12.8227 12.9933 12.92C12.8253 13.0172 12.6256 13.0438 12.438 12.9938C12.2505 12.9438 12.0905 12.8213 11.9933 12.6533L9.79327 8.82665C9.59327 8.45332 9.4466 8.15999 9.35327 7.99999C9.13415 7.62668 9.04172 7.1925 9.08979 6.76232C9.13785 6.33214 9.32383 5.92906 9.61993 5.61332Z" fill="white"/>
<path fill-rule="evenodd" clip-rule="evenodd" d="M6.63336 9.8667H4.94003L8.7667 3.24003C8.86394 3.07206 9.02393 2.9496 9.21147 2.89959C9.399 2.84958 9.59873 2.87612 9.7667 2.97336C9.93467 3.07061 10.0571 3.2306 10.1071 3.41813C10.1571 3.60567 10.1306 3.80539 10.0334 3.97336L6.63336 9.8667ZM5.74003 11.4L5.03336 12.64C4.98521 12.7232 4.92115 12.7961 4.84484 12.8545C4.76852 12.9129 4.68145 12.9557 4.58859 12.9805C4.49573 13.0052 4.39891 13.0115 4.30364 12.9988C4.20837 12.9861 4.11653 12.9548 4.03336 12.9067C3.95019 12.8585 3.87732 12.7945 3.81891 12.7182C3.76049 12.6419 3.71769 12.5548 3.69292 12.4619C3.66816 12.3691 3.66193 12.2722 3.67459 12.177C3.68725 12.0817 3.71854 11.9899 3.7667 11.9067L4.2867 11C4.44818 10.9197 4.62634 10.8786 4.8067 10.88C4.99481 10.8739 5.18106 10.919 5.34548 11.0106C5.5099 11.1022 5.64629 11.2368 5.74003 11.4Z" fill="white"/>
</g>
<defs>
<linearGradient id="paint0_linear_4119_1132" x1="8.49987" y1="16" x2="8.49987" y2="7.62939e-06" gradientUnits="userSpaceOnUse">
<stop stop-color="#1D6FF2"/>
<stop offset="1" stop-color="#1AC8FC"/>
</linearGradient>
<clipPath id="clip0_4119_1132">
<rect width="16" height="16" fill="white" transform="translate(0.5)"/>
</clipPath>
</defs>
</svg>
