<svg width="19" height="20" viewBox="0 0 19 20" fill="none" xmlns="http://www.w3.org/2000/svg">
<path d="M7.43992 2.48488C5.80992 10.0249 11.1899 14.8949 15.0999 16.2849C13.7099 17.3749 11.9799 17.9949 10.1699 17.9949C5.75992 17.9949 2.16992 14.4049 2.16992 9.99488C2.16992 6.54488 4.36992 3.59488 7.43992 2.48488ZM10.1599 0.00488281C4.56992 0.00488281 0.169922 4.53488 0.169922 9.99488C0.169922 15.5149 4.64992 19.9949 10.1699 19.9949C13.8799 19.9949 17.0999 17.9749 18.8299 14.9749C11.3199 14.7249 6.73992 6.54488 10.5099 0.00488281C10.3899 0.00488281 10.2799 0.00488281 10.1599 0.00488281Z" fill="#202020"/>
</svg>
