<svg width="12" height="14" viewBox="0 0 12 14" fill="none" xmlns="http://www.w3.org/2000/svg">
<path d="M2.66667 6.33301H4V7.66634H2.66667V6.33301ZM12 2.99967V12.333C12 13.0663 11.4 13.6663 10.6667 13.6663H1.33333C0.593333 13.6663 0 13.0663 0 12.333L0.00666666 2.99967C0.00666666 2.26634 0.593333 1.66634 1.33333 1.66634H2V0.333008H3.33333V1.66634H8.66667V0.333008H10V1.66634H10.6667C11.4 1.66634 12 2.26634 12 2.99967ZM1.33333 4.33301H10.6667V2.99967H1.33333V4.33301ZM10.6667 12.333V5.66634H1.33333V12.333H10.6667ZM8 7.66634H9.33333V6.33301H8V7.66634ZM5.33333 7.66634H6.66667V6.33301H5.33333V7.66634Z" fill="#0C8599"/>
</svg>
