<svg width="24" height="25" viewBox="0 0 24 25" fill="none" xmlns="http://www.w3.org/2000/svg">
<g id="chair">
<path id="Vector" d="M20 8.5V6.5C20 4.85 18.65 3.5 17 3.5H7C5.35 3.5 4 4.85 4 6.5V8.5C2.35 8.5 1 9.85 1 11.5V16.5C1 18.15 2.35 19.5 4 19.5V20.5C4 21.05 4.45 21.5 5 21.5C5.55 21.5 6 21.05 6 20.5V19.5H18V20.5C18 21.05 18.45 21.5 19 21.5C19.55 21.5 20 21.05 20 20.5V19.5C21.65 19.5 23 18.15 23 16.5V11.5C23 9.85 21.65 8.5 20 8.5ZM6 6.5C6 5.95 6.45 5.5 7 5.5H17C17.55 5.5 18 5.95 18 6.5V9.28C17.39 9.83 17 10.62 17 11.5V13.5H7V11.5C7 10.62 6.61 9.83 6 9.28V6.5ZM21 16.5C21 17.05 20.55 17.5 20 17.5H4C3.45 17.5 3 17.05 3 16.5V11.5C3 10.95 3.45 10.5 4 10.5C4.55 10.5 5 10.95 5 11.5V15.5H19V11.5C19 10.95 19.45 10.5 20 10.5C20.55 10.5 21 10.95 21 11.5V16.5Z" fill="#202020"/>
</g>
</svg>