<svg width="32" height="32" viewBox="0 0 32 32" fill="none" xmlns="http://www.w3.org/2000/svg">
<g clip-path="url(#clip0_343_4508)">
<path d="M23.3333 10.6667H24.6667C26.0812 10.6667 27.4377 11.2287 28.4379 12.2288C29.4381 13.229 30 14.5856 30 16.0001C30 17.4146 29.4381 18.7711 28.4379 19.7713C27.4377 20.7715 26.0812 21.3334 24.6667 21.3334H23.3333" stroke="black" stroke-width="2" stroke-linecap="round" stroke-linejoin="round"/>
<path d="M2 10.6667H23.3333V22.6667C23.3333 24.0812 22.7714 25.4378 21.7712 26.438C20.771 27.4382 19.4145 28.0001 18 28.0001H7.33333C5.91885 28.0001 4.56229 27.4382 3.5621 26.438C2.5619 25.4378 2 24.0812 2 22.6667V10.6667Z" stroke="black" stroke-width="2" stroke-linecap="round" stroke-linejoin="round"/>
<path d="M7.33334 1.33325V5.33325" stroke="black" stroke-width="2" stroke-linecap="round" stroke-linejoin="round"/>
<path d="M12.6667 1.33325V5.33325" stroke="black" stroke-width="2" stroke-linecap="round" stroke-linejoin="round"/>
<path d="M18 1.33325V5.33325" stroke="black" stroke-width="2" stroke-linecap="round" stroke-linejoin="round"/>
</g>
<defs>
<clipPath id="clip0_343_4508">
<rect width="32" height="32" fill="white"/>
</clipPath>
</defs>
</svg>
