<svg width="17" height="16" viewBox="0 0 17 16" fill="none" xmlns="http://www.w3.org/2000/svg">
<g clip-path="url(#clip0_1019_421)">
<path d="M15.4668 7.38662V7.99995C15.4659 9.43756 15.0004 10.8364 14.1396 11.9878C13.2789 13.1393 12.0689 13.9816 10.6903 14.3892C9.31171 14.7968 7.83826 14.7479 6.48974 14.2497C5.14121 13.7515 3.98986 12.8307 3.2074 11.6247C2.42493 10.4186 2.05328 8.99199 2.14787 7.55749C2.24246 6.12299 2.79823 4.7575 3.73228 3.66467C4.66632 2.57183 5.92861 1.81021 7.33088 1.49338C8.73315 1.17656 10.2003 1.32151 11.5134 1.90662" stroke="black" stroke-width="2" stroke-linecap="round" stroke-linejoin="round"/>
<path d="M15.4667 2.66663L8.80005 9.33996L6.80005 7.33996" stroke="black" stroke-width="2" stroke-linecap="round" stroke-linejoin="round"/>
</g>
<defs>
<clipPath id="clip0_1019_421">
<rect width="16" height="16" fill="white" transform="translate(0.800049)"/>
</clipPath>
</defs>
</svg>
