<svg viewBox="0 0 20 21" fill="none" xmlns="http://www.w3.org/2000/svg">
<path d="M4.375 16.125V16.1363M4.375 4.875V4.88625M15.625 4.875V4.88625M15.625 12.75H12.25V16.125M19 12.75V12.7613M12.25 19.5H15.625M15.625 16.125H19V19.5M2.125 1.5H6.625C7.24632 1.5 7.75 2.00368 7.75 2.625V7.125C7.75 7.74632 7.24632 8.25 6.625 8.25H2.125C1.50368 8.25 1 7.74632 1 7.125V2.625C1 2.00368 1.50368 1.5 2.125 1.5ZM13.375 1.5H17.875C18.4963 1.5 19 2.00368 19 2.625V7.125C19 7.74632 18.4963 8.25 17.875 8.25H13.375C12.7537 8.25 12.25 7.74632 12.25 7.125V2.625C12.25 2.00368 12.7537 1.5 13.375 1.5ZM2.125 12.75H6.625C7.24632 12.75 7.75 13.2537 7.75 13.875V18.375C7.75 18.9963 7.24632 19.5 6.625 19.5H2.125C1.50368 19.5 1 18.9963 1 18.375V13.875C1 13.2537 1.50368 12.75 2.125 12.75Z" stroke="#060118" stroke-width="2" stroke-linecap="round" stroke-linejoin="round"/>
</svg>
