<svg width="17" height="18" viewBox="0 0 17 18" fill="none" xmlns="http://www.w3.org/2000/svg">
<path d="M0.822305 0.369001C0.596107 0.640389 0.481718 0.987716 0.502382 1.3404V16.6618C0.482887 17.0144 0.597139 17.3613 0.822305 17.6332L0.874656 17.6856L9.45442 9.1V8.89641L0.874656 0.31665L0.822305 0.369001Z" fill="url(#paint0_linear_4119_1162)"/>
<path d="M12.3162 11.9619L9.45435 9.10004V8.89645L12.3162 6.04041L12.3802 6.07531L15.7714 8.00066C16.7428 8.54744 16.7428 9.44904 15.7714 10.0016L12.3802 11.927L12.3162 11.9619Z" fill="url(#paint1_linear_4119_1162)"/>
<path d="M12.3802 11.9269L9.47183 9.01855L0.822266 17.6332C1.02164 17.7971 1.26986 17.8901 1.52785 17.8975C1.78585 17.9048 2.03897 17.8262 2.24738 17.6739L12.3628 11.9269" fill="url(#paint2_linear_4119_1162)"/>
<path d="M12.3802 6.07528L2.24738 0.322475C2.04121 0.163968 1.78641 0.081955 1.52649 0.0904421C1.26657 0.0989293 1.01766 0.197391 0.822266 0.369009L9.45438 9.00112L12.3802 6.07528Z" fill="url(#paint3_linear_4119_1162)"/>
<path opacity="0.1" d="M12.3164 11.863L2.24749 17.5751C2.04665 17.7248 1.80286 17.8056 1.55239 17.8056C1.30192 17.8056 1.05813 17.7248 0.857283 17.5751L0.804932 17.6275L0.857283 17.6798C1.05813 17.8295 1.30192 17.9103 1.55239 17.9103C1.80286 17.9103 2.04665 17.8295 2.24749 17.6798L12.3629 11.9328L12.3164 11.863Z" fill="black"/>
<path opacity="0.07" d="M0.822376 17.5401C0.596833 17.2661 0.482628 16.9172 0.502453 16.5629V16.6618C0.482958 17.0143 0.597209 17.3612 0.822376 17.6332L0.874727 17.5808L0.822376 17.5401Z" fill="black"/>
<path opacity="0.07" d="M15.7713 9.89696L12.3162 11.863L12.3801 11.927L15.7713 9.97839C15.9702 9.89092 16.1424 9.75221 16.2701 9.57643C16.3979 9.40065 16.4767 9.19411 16.4984 8.97791C16.4587 9.17776 16.3721 9.36531 16.2457 9.5251C16.1193 9.6849 15.9567 9.81235 15.7713 9.89696Z" fill="black"/>
<path opacity="0.3" d="M2.24748 0.427184L15.7715 8.09953C15.9551 8.18205 16.1166 8.3067 16.2429 8.46336C16.3692 8.62001 16.4568 8.80426 16.4986 9.00113C16.478 8.78456 16.3997 8.57749 16.2718 8.40151C16.1439 8.22553 15.9711 8.0871 15.7715 8.00064L2.24748 0.322482C1.29352 -0.224296 0.502441 0.229414 0.502441 1.34042V1.43931C0.502441 0.334116 1.29352 -0.12541 2.24748 0.427184Z" fill="white"/>
<defs>
<linearGradient id="paint0_linear_4119_1162" x1="8.69824" y1="1.17754" x2="-2.92952" y2="12.8053" gradientUnits="userSpaceOnUse">
<stop stop-color="#008EFF"/>
<stop offset="0.01" stop-color="#008FFF"/>
<stop offset="0.26" stop-color="#00ACFF"/>
<stop offset="0.51" stop-color="#00C0FF"/>
<stop offset="0.76" stop-color="#00CDFF"/>
<stop offset="1" stop-color="#00D1FF"/>
</linearGradient>
<linearGradient id="paint1_linear_4119_1162" x1="15.8877" y1="9.00115" x2="-0.876267" y2="9.00115" gradientUnits="userSpaceOnUse">
<stop stop-color="#FFD800"/>
<stop offset="1" stop-color="#FF8A00"/>
</linearGradient>
<linearGradient id="paint2_linear_4119_1162" x1="10.7922" y1="10.5891" x2="-4.97125" y2="26.3526" gradientUnits="userSpaceOnUse">
<stop stop-color="#FF3A44"/>
<stop offset="1" stop-color="#B11162"/>
</linearGradient>
<linearGradient id="paint3_linear_4119_1162" x1="-1.35321" y1="-4.73231" x2="5.69092" y2="2.306" gradientUnits="userSpaceOnUse">
<stop stop-color="#328E71"/>
<stop offset="0.07" stop-color="#2D9571"/>
<stop offset="0.48" stop-color="#15BD74"/>
<stop offset="0.8" stop-color="#06D575"/>
<stop offset="1" stop-color="#00DE76"/>
</linearGradient>
</defs>
</svg>
