<svg width="25" height="24" viewBox="0 0 25 24" fill="none" xmlns="http://www.w3.org/2000/svg">
<path d="M14.6684 13.73L16.0684 11.31C16.1584 11.16 16.1184 10.97 15.9884 10.86L14.5084 9.7C14.5384 9.48 14.5584 9.25 14.5584 9.02C14.5584 8.79 14.5384 8.56 14.5084 8.33L15.9884 7.17C16.1184 7.06 16.1584 6.87 16.0684 6.72L14.6684 4.3C14.5784 4.15 14.3984 4.09 14.2384 4.15L12.4984 4.85C12.1384 4.57 11.7484 4.34 11.3184 4.16L11.0584 2.31C11.0284 2.15 10.8784 2.02 10.7084 2.02H7.90842C7.73842 2.02 7.58842 2.15 7.55842 2.32L7.29842 4.17C6.87842 4.35 6.47842 4.58 6.11842 4.86L4.37842 4.16C4.21842 4.1 4.03842 4.16 3.94842 4.31L2.54842 6.73C2.45842 6.88 2.49842 7.07 2.62842 7.18L4.10842 8.34C4.07842 8.56 4.05842 8.79 4.05842 9.02C4.05842 9.25 4.07842 9.48 4.10842 9.71L2.62842 10.87C2.49842 10.98 2.45842 11.17 2.54842 11.32L3.94842 13.74C4.03842 13.89 4.21842 13.95 4.37842 13.89L6.11842 13.19C6.47842 13.47 6.86842 13.7 7.29842 13.88L7.55842 15.73C7.58842 15.89 7.73842 16.02 7.90842 16.02H10.7084C10.8784 16.02 11.0284 15.89 11.0584 15.72L11.3184 13.87C11.7384 13.69 12.1384 13.46 12.4984 13.18L14.2384 13.88C14.3984 13.94 14.5784 13.88 14.6684 13.73ZM9.30842 11.02C8.20842 11.02 7.30842 10.12 7.30842 9.02C7.30842 7.92 8.20842 7.02 9.30842 7.02C10.4084 7.02 11.3084 7.92 11.3084 9.02C11.3084 10.12 10.4084 11.02 9.30842 11.02Z" fill="black"/>
<path d="M22.4184 18.69L21.4584 17.95C21.4784 17.81 21.4984 17.66 21.4984 17.51C21.4984 17.36 21.4884 17.21 21.4584 17.07L22.4084 16.33C22.4884 16.26 22.5184 16.14 22.4584 16.04L21.5584 14.49C21.5084 14.39 21.3884 14.36 21.2784 14.39L20.1684 14.84C19.9384 14.66 19.6884 14.51 19.4084 14.4L19.2384 13.22C19.2284 13.1 19.1284 13.02 19.0284 13.02H17.2384C17.1284 13.02 17.0284 13.1 17.0184 13.21L16.8484 14.39C16.5784 14.51 16.3184 14.65 16.0884 14.83L14.9784 14.38C14.8784 14.34 14.7584 14.38 14.6984 14.48L13.7984 16.03C13.7484 16.13 13.7584 16.25 13.8484 16.32L14.7984 17.06C14.7784 17.2 14.7684 17.35 14.7684 17.5C14.7684 17.65 14.7784 17.8 14.7984 17.94L13.8484 18.68C13.7684 18.75 13.7384 18.87 13.7984 18.97L14.6984 20.52C14.7484 20.62 14.8684 20.65 14.9784 20.62L16.0884 20.17C16.3184 20.35 16.5684 20.5 16.8484 20.61L17.0184 21.79C17.0384 21.9 17.1284 21.98 17.2384 21.98H19.0284C19.1384 21.98 19.2384 21.9 19.2484 21.79L19.4184 20.61C19.6884 20.49 19.9484 20.35 20.1684 20.17L21.2884 20.62C21.3884 20.66 21.5084 20.62 21.5684 20.52L22.4684 18.97C22.5284 18.88 22.4984 18.76 22.4184 18.69ZM18.1284 18.85C17.3884 18.85 16.7784 18.25 16.7784 17.5C16.7784 16.75 17.3784 16.15 18.1284 16.15C18.8784 16.15 19.4784 16.75 19.4784 17.5C19.4784 18.25 18.8684 18.85 18.1284 18.85Z" fill="black"/>
</svg>
