<svg width="17" height="16" viewBox="0 0 17 16" fill="none" xmlns="http://www.w3.org/2000/svg">
<g clip-path="url(#clip0_1019_643)">
<path d="M16.1334 2.66669V6.66669H12.1334" stroke="currentColor" stroke-width="2" stroke-linecap="round" stroke-linejoin="round"/>
<path d="M14.4601 9.99999C14.0267 11.2266 13.2064 12.2791 12.1228 12.999C11.0392 13.7188 9.75102 14.067 8.45233 13.991C7.15364 13.9151 5.91482 13.4191 4.92255 12.5778C3.93029 11.7365 3.23833 10.5955 2.95096 9.32669C2.66359 8.05792 2.79637 6.73011 3.32929 5.54337C3.86222 4.35662 4.76641 3.37523 5.90562 2.74708C7.04483 2.11893 8.35734 1.87806 9.64536 2.06075C10.9334 2.24345 12.1271 2.83981 13.0467 3.75999L16.1334 6.66666" stroke="currentColor" stroke-width="2" stroke-linecap="round" stroke-linejoin="round"/>
</g>
<defs>
<clipPath id="clip0_1019_643">
<rect width="16" height="16" fill="white" transform="translate(0.800049)"/>
</clipPath>
</defs>
</svg>
