<svg width="19" height="16" viewBox="0 0 19 16" fill="none" xmlns="http://www.w3.org/2000/svg">
<path d="M9.5 4C10.6046 4 11.5 3.10457 11.5 2C11.5 0.89543 10.6046 0 9.5 0C8.39543 0 7.5 0.89543 7.5 2C7.5 3.10457 8.39543 4 9.5 4Z" fill="#202020"/>
<path d="M18.5 12V10C16.26 10 14.34 9.04 12.9 7.32L11.56 5.72C11.18 5.26 10.62 5 10.03 5H8.98C8.39 5 7.83 5.26 7.45 5.72L6.11 7.32C4.66 9.04 2.74 10 0.5 10V12C3.27 12 5.69 10.83 7.5 8.75V11L3.62 12.55C2.95 12.82 2.5 13.48 2.5 14.21C2.5 15.2 3.3 16 4.29 16H6.5V15.5C6.5 14.12 7.62 13 9 13H12C12.28 13 12.5 13.22 12.5 13.5C12.5 13.78 12.28 14 12 14H9C8.17 14 7.5 14.67 7.5 15.5V16H14.71C15.7 16 16.5 15.2 16.5 14.21C16.5 13.48 16.05 12.82 15.38 12.55L11.5 11V8.75C13.31 10.83 15.73 12 18.5 12Z" fill="#202020"/>
</svg>
