<svg width="21" height="20" viewBox="0 0 21 20" fill="none" xmlns="http://www.w3.org/2000/svg">
<path d="M13.99 7.63C13.81 4.84 12.68 2.12 10.56 0C8.42 2.14 7.24 4.86 7.01 7.63C8.29 8.31 9.47 9.19 10.5 10.26C11.53 9.2 12.71 8.32 13.99 7.63ZM10.55 3.19C11.18 4.22 11.62 5.37 11.85 6.57C11.38 6.87 10.94 7.2 10.51 7.55C10.09 7.21 9.64 6.88 9.18 6.58C9.43 5.38 9.89 4.23 10.55 3.19ZM10.5 13.45C9.68 12.2 8.64 11.11 7.44 10.25C7.31 10.16 7.17 10.09 7.04 9.99C7.17 10.08 7.31 10.16 7.43 10.24C5.48 8.83 3.09 8 0.5 8C0.5 13.32 3.86 17.82 8.53 19.49C9.16 19.72 9.82 19.89 10.5 20C11.18 19.88 11.83 19.71 12.47 19.49C17.14 17.82 20.5 13.32 20.5 8C16.32 8 12.65 10.17 10.5 13.45ZM11.82 17.6C11.38 17.75 10.94 17.87 10.49 17.97C10.05 17.88 9.62 17.76 9.21 17.61C5.92 16.43 3.51 13.62 2.76 10.26C3.86 10.52 4.91 10.97 5.88 11.59L5.86 11.6C5.99 11.69 6.12 11.78 6.25 11.85L6.32 11.89C7.31 12.61 8.16 13.5 8.83 14.54L10.5 17.1L12.17 14.55C12.86 13.5 13.72 12.6 14.7 11.89L14.77 11.84C14.86 11.79 14.95 11.73 15.04 11.67L15.03 11.65C16.01 11 17.1 10.52 18.24 10.25C17.49 13.62 15.09 16.43 11.82 17.6ZM7.49 10.28C7.47 10.27 7.45 10.25 7.44 10.24C7.44 10.24 7.45 10.24 7.45 10.25C7.46 10.26 7.47 10.27 7.49 10.28Z" fill="#202020"/>
</svg>
