<svg viewBox="0 0 8 8" fill="none" xmlns="http://www.w3.org/2000/svg">
<path fill-rule="evenodd" clip-rule="evenodd" d="M4 0.727273C2.19252 0.727273 0.727273 2.19252 0.727273 4C0.727273 5.80748 2.19252 7.27273 4 7.27273C5.80748 7.27273 7.27273 5.80748 7.27273 4C7.27273 2.19252 5.80748 0.727273 4 0.727273ZM0 4C0 1.79086 1.79086 0 4 0C6.20914 0 8 1.79086 8 4C8 6.20914 6.20914 8 4 8C1.79086 8 0 6.20914 0 4Z"/>
<path fill-rule="evenodd" clip-rule="evenodd" d="M3.99999 3.63635C4.20082 3.63635 4.36363 3.79916 4.36363 3.99999V5.45453C4.36363 5.65537 4.20082 5.81817 3.99999 5.81817C3.79916 5.81817 3.63635 5.65537 3.63635 5.45453V3.99999C3.63635 3.79916 3.79916 3.63635 3.99999 3.63635Z" />
<path fill-rule="evenodd" clip-rule="evenodd" d="M3.63635 2.5454C3.63635 2.34457 3.79916 2.18176 3.99999 2.18176H4.00363C4.20446 2.18176 4.36726 2.34457 4.36726 2.5454C4.36726 2.74623 4.20446 2.90904 4.00363 2.90904H3.99999C3.79916 2.90904 3.63635 2.74623 3.63635 2.5454Z" />
</svg>
