<svg width="60" height="60" viewBox="0 0 60 60" fill="none" xmlns="http://www.w3.org/2000/svg">
<path d="M32.5748 18.493C31.8423 17.9114 31.8979 16.8083 32.6854 16.2989L57.5083 0.241848C58.8288 -0.612285 60.3699 0.976139 59.4116 2.20351L42.1735 24.282C41.6914 24.8993 40.7774 25.0048 40.1596 24.5144L32.5748 18.493Z" fill="#20C997"/>
<path d="M32.602 43.4598C31.8399 42.9668 31.7582 41.9101 32.4359 41.3122L40.1349 34.5211C40.7529 33.9759 41.7215 34.0697 42.2163 34.7227L59.7139 57.8125C60.6472 59.0441 59.1094 60.6065 57.7985 59.7585L32.602 43.4598Z" fill="#0C8599"/>
<path d="M19.9861 29.9063H38.512L2.29684 57.725C1.00886 58.7144 -0.685065 57.1267 0.28941 55.8435L19.9861 29.9063Z" fill="#20C997"/>
<path d="M0.289405 3.96915C-0.68507 2.68593 1.00884 1.09827 2.29683 2.08764L38.512 29.9063H19.9861L0.289405 3.96915Z" fill="#0C8599"/>
</svg>
