<svg width="343" height="145" viewBox="0 0 343 145" fill="none" xmlns="http://www.w3.org/2000/svg">
<g clip-path="url(#clip0_416_1950)">
<path d="M131.397 95.9912L132.393 122.332H129.968V125.314H136.746V122.332H134.769L134.91 95.9912H131.397Z" fill="#03070A"/>
<path d="M128.781 118.107C129.813 118.107 130.649 118.942 130.649 119.971V127.675C130.649 128.704 129.813 129.538 128.781 129.538C127.749 129.538 126.913 128.704 126.913 127.675V119.971C126.913 118.942 127.75 118.107 128.781 118.107Z" fill="#03070A"/>
<path d="M138.246 118.107C139.278 118.107 140.114 118.942 140.114 119.971V127.675C140.114 128.704 139.278 129.538 138.246 129.538C137.214 129.538 136.378 128.704 136.378 127.675V119.971C136.378 118.942 137.214 118.107 138.246 118.107Z" fill="#03070A"/>
<path d="M153.441 79.5794L115.081 77.8399L121.059 75.1064L154.686 75.6034L153.441 79.5794Z" fill="#0C8599"/>
<path d="M0.5 83.4426L5.13267 81.7031L148.957 85.4306L154.936 82.6971L152.445 99.5949L38.1983 87.4501L0.5 83.4426Z" fill="#0C8599"/>
<path d="M37.4902 93.2584L38.1988 87.4502L152.445 99.595L151.822 108.168L37.4902 93.2584Z" fill="#03070A"/>
<path d="M114.334 110.404C120.868 110.404 126.165 104.785 126.165 97.8548C126.165 90.9241 120.868 85.3057 114.334 85.3057C107.799 85.3057 102.502 90.9241 102.502 97.8548C102.502 104.785 107.799 110.404 114.334 110.404Z" fill="#03070A"/>
<path d="M114.334 104.316C119.149 104.316 123.052 100.422 123.052 95.6183C123.052 90.8149 119.149 86.9209 114.334 86.9209C109.519 86.9209 105.616 90.8149 105.616 95.6183C105.616 100.422 109.519 104.316 114.334 104.316Z" fill="#0C8599"/>
<path d="M211.603 95.9912L210.607 122.332H213.032V125.314H206.254V122.332H208.231L208.09 95.9912H211.603Z" fill="#03070A"/>
<path d="M214.219 118.107H214.219C213.187 118.107 212.351 118.942 212.351 119.971V127.675C212.351 128.704 213.187 129.538 214.219 129.538H214.219C215.251 129.538 216.087 128.704 216.087 127.675V119.971C216.087 118.942 215.251 118.107 214.219 118.107Z" fill="#03070A"/>
<path d="M204.754 118.107H204.754C203.722 118.107 202.886 118.942 202.886 119.971V127.675C202.886 128.704 203.722 129.538 204.754 129.538H204.754C205.786 129.538 206.622 128.704 206.622 127.675V119.971C206.622 118.942 205.786 118.107 204.754 118.107Z" fill="#03070A"/>
<path d="M189.559 79.5794L227.919 77.8399L221.941 75.1064L188.313 75.6034L189.559 79.5794Z" fill="#0C8599"/>
<path d="M175.829 74.2257L174.086 35.957L171.346 41.921L171.844 75.4681L175.829 74.2257Z" fill="#0C8599"/>
<path d="M342.5 83.4426L337.867 81.7031L194.043 85.4306L188.064 82.6971L190.555 99.5949L304.802 87.4501L342.5 83.4426Z" fill="#0C8599"/>
<path d="M305.511 93.2584L304.802 87.4502L190.556 99.595L191.178 108.168L305.511 93.2584Z" fill="#03070A"/>
<path d="M228.666 110.404C235.2 110.404 240.497 104.785 240.497 97.8548C240.497 90.9241 235.2 85.3057 228.666 85.3057C222.131 85.3057 216.834 90.9241 216.834 97.8548C216.834 104.785 222.131 110.404 228.666 110.404Z" fill="#03070A"/>
<path d="M228.666 104.316C233.481 104.316 237.385 100.422 237.385 95.6183C237.385 90.8149 233.481 86.9209 228.666 86.9209C223.851 86.9209 219.948 90.8149 219.948 95.6183C219.948 100.422 223.851 104.316 228.666 104.316Z" fill="#0C8599"/>
<path d="M193.233 74.8127L192.668 78.9693L192.374 101.344C192.352 103.009 192.15 104.654 191.771 106.249C190.68 110.896 188.132 115.123 184.368 118.187C180.953 120.97 176.295 123.078 170.13 122.705C153.69 121.711 152.238 107.753 152.238 107.753L152.859 82.4408L152.943 78.9693L153.69 72.7055C153.69 72.7055 155.683 55.0621 174.116 55.5591C192.548 56.0561 193.233 74.8127 193.233 74.8127Z" fill="#0C8599"/>
<path d="M157.676 68.9784L161.412 63.0144L166.145 61.5234H182.336L186.321 63.0144L189.938 68.9784L183.332 65.9964H164.801L157.676 68.9784Z" fill="#E6E6E6"/>
<path d="M171.378 111.855L172.017 128.753H170.461V130.666H174.809V128.753H173.541L173.632 111.855H171.378Z" fill="#03070A"/>
<path d="M169.699 126.043C170.361 126.043 170.898 126.578 170.898 127.239V132.18C170.898 132.841 170.361 133.376 169.699 133.376C169.038 133.376 168.501 132.841 168.501 132.18V127.239C168.501 126.578 169.038 126.043 169.699 126.043Z" fill="#03070A"/>
<path d="M175.772 126.043C176.434 126.043 176.97 126.578 176.97 127.239V132.18C176.97 132.841 176.434 133.376 175.772 133.376C175.11 133.376 174.573 132.841 174.573 132.18V127.239C174.573 126.578 175.11 126.043 175.772 126.043Z" fill="#03070A"/>
<path d="M166.741 57.8604L163.3 70.2207L163.963 70.4044L167.404 58.0441L166.741 57.8604Z" fill="#0C8599"/>
<path d="M182.345 59.8324L181.67 59.9648L184.149 72.5524L184.825 72.42L182.345 59.8324Z" fill="#0C8599"/>
<path d="M314.847 35.9981C314.847 36.2305 314.586 36.4171 314.261 36.4171H213.586C213.261 36.4171 213 36.2305 213 35.9981C213 35.7657 213.261 35.5791 213.586 35.5791H314.261C314.586 35.5791 314.847 35.7657 314.847 35.9981Z" fill="url(#paint0_linear_416_1950)"/>
<path d="M274.865 39.9268C272.394 39.9268 270.391 37.9285 270.391 35.4634C270.391 32.9983 272.394 31 274.865 31C277.336 31 279.339 32.9983 279.339 35.4634C279.339 37.9285 277.336 39.9268 274.865 39.9268Z" fill="#445C75"/>
<path d="M28.1162 53.9981C28.1162 54.2305 28.3774 54.4171 28.7027 54.4171H129.377C129.702 54.4171 129.963 54.2305 129.963 53.9981C129.963 53.7657 129.702 53.5791 129.377 53.5791H28.7027C28.3774 53.5791 28.1162 53.7657 28.1162 53.9981Z" fill="url(#paint1_linear_416_1950)"/>
<path d="M68.0981 57.9268C70.569 57.9268 72.5721 55.9285 72.5721 53.4634C72.5721 50.9983 70.569 49 68.0981 49C65.6271 49 63.624 50.9983 63.624 53.4634C63.624 55.9285 65.6271 57.9268 68.0981 57.9268Z" fill="#445C75"/>
</g>
<defs>
<linearGradient id="paint0_linear_416_1950" x1="314.963" y1="35.9999" x2="212.963" y2="35.9999" gradientUnits="userSpaceOnUse">
<stop stop-color="#445C75" stop-opacity="0"/>
<stop offset="0.499999" stop-color="#445C75"/>
<stop offset="1" stop-color="#445C75" stop-opacity="0"/>
</linearGradient>
<linearGradient id="paint1_linear_416_1950" x1="28" y1="53.9999" x2="130" y2="53.9999" gradientUnits="userSpaceOnUse">
<stop stop-color="#445C75" stop-opacity="0"/>
<stop offset="0.499999" stop-color="#445C75"/>
<stop offset="1" stop-color="#445C75" stop-opacity="0"/>
</linearGradient>
<clipPath id="clip0_416_1950">
<rect width="342" height="145" fill="white" transform="translate(0.5)"/>
</clipPath>
</defs>
</svg>

