<svg viewBox="0 0 1567 1323" fill="none" xmlns="http://www.w3.org/2000/svg">
<path d="M514 120.933C580 186.666 667.067 273.466 707.333 313.6L780.8 386.8L974 194.133L1167.33 1.46645H780.667L394 1.33312L514 120.933Z" fill="#DB0011"/>
<path d="M372 21.733C355.733 37.4663 193.067 197.866 120 270C92.5333 297.2 54.5333 334.666 35.6 353.333L1.19995 387.333L39.6 425.333C60.6666 446.266 124.133 508.933 180.667 564.666C237.2 620.4 306.4 688.666 334.667 716.666L386 767.333L386.4 577.733C386.533 473.466 386.533 302.666 386.4 198.133L386 8.13297L372 21.733Z" fill="#DB0011"/>
<path d="M1180 389.333V771.333L1193.07 758.666C1200.13 751.733 1242.27 710 1286.67 666C1468.93 485.066 1519.2 435.333 1541.87 413.066L1565.73 389.733L1476.53 301.2C1427.47 252.533 1349.6 175.2 1303.33 129.333C1257.2 83.4663 1210.53 37.1996 1199.73 26.6663L1180 7.4663V389.333Z" fill="#DB0011"/>
<path d="M587.333 580.666L394 773.2H780.667L1167.33 773.333L1042 648.4C973.067 579.733 886.133 493.066 848.667 455.866L780.667 388.133L587.333 580.666Z" fill="#DB0011"/>
<path d="M625.333 934.133C605.6 936 588.667 941.2 575.067 949.466C552.8 962.933 538.4 980.8 530.4 1004.8C527.733 1012.67 527.333 1016.67 527.467 1032C527.467 1047.87 527.867 1051.2 531.067 1060.13C536.133 1074.8 543.2 1086 554.533 1097.33C565.867 1108.53 578.267 1116.93 632.667 1150.53C691.733 1187.07 696.267 1190 704.4 1198.27C709.333 1203.2 714 1209.6 717.067 1215.87C721.867 1225.47 722 1226.4 722 1239.87C722 1252.93 721.733 1254.67 717.733 1262.93C707.067 1285.6 686 1298 655.2 1299.6C612.933 1302 579.2 1284.8 560 1251.2C553.467 1239.73 546.533 1220.8 543.2 1205.6L540.933 1194.67H535.733H530.667V1258V1321.33H535.733C540.533 1321.33 540.8 1321.07 542.4 1315.47C543.2 1312.27 545.333 1307.87 547.2 1305.73C552.133 1300.13 560.933 1300.67 586.667 1308.4C625.733 1320 650.533 1323.33 675.067 1320C702 1316.4 722.933 1306.13 742.133 1287.33C752.133 1277.47 755.333 1273.33 759.867 1264C766.8 1249.87 769.2 1241.2 770.133 1226C771.733 1204 766.933 1186.13 754.533 1166.53C741.467 1146.13 719.733 1129.6 674.8 1106C622.4 1078.53 592.133 1058 581.2 1042.4C573.6 1031.47 570.667 1023.2 570.667 1012.27C570.667 1000.13 573.467 991.2 580.4 981.733C587.467 972.266 597.733 965.066 610.8 960.4C628.8 954.133 655.067 956 675.467 965.333C707.067 979.6 726.267 1007.47 734.133 1050.27L736.4 1062.67H741.467H746.667V998V933.333H741.6C736.667 933.333 736.533 933.6 734.933 939.466C733.867 943.2 731.467 947.466 728.8 950.133C722.133 956.8 716.133 956.4 695.2 948C674.667 939.866 662.667 936.533 648 934.666C636.933 933.333 634.8 933.333 625.333 934.133Z" fill="black"/>
<path d="M1358.93 934.666C1302 940.533 1254.8 970.133 1222.13 1020.4C1202.4 1050.67 1192.53 1083.47 1191.07 1124C1189.33 1174.27 1200.13 1214.4 1224.67 1248.67C1259.33 1296.93 1300 1318.67 1360 1320.93C1402 1322.53 1434.67 1313.47 1465.2 1291.87C1483.47 1279.07 1504.93 1254.93 1518.4 1232.13L1521.47 1226.93L1517.6 1224.13L1513.73 1221.47L1505.07 1232.4C1476.67 1268.13 1453.6 1286 1426 1293.6C1416.8 1296 1411.87 1296.53 1390.67 1296.53C1368.93 1296.67 1364.53 1296.27 1354.13 1293.47C1313.6 1282.93 1284 1258.4 1268.67 1223.07C1257.47 1197.2 1253.07 1172.4 1252.93 1134.67C1252.93 1086.93 1260 1051.47 1276.4 1018.8C1294.53 982.4 1316.67 964.4 1352.67 956.533C1368.53 953.066 1395.87 953.466 1411.2 957.2C1452.67 967.333 1482.13 997.2 1500 1047.6C1504.27 1059.87 1504.4 1060 1508.8 1060C1511.33 1060 1513.33 1059.33 1513.33 1058.53C1513.33 1054.67 1505.2 944 1504.53 938.933C1503.87 933.6 1503.6 933.333 1499.47 933.333C1495.33 933.333 1495.07 933.733 1492.8 940.933C1491.07 946.266 1488.53 950.4 1484.67 954.266C1476.67 962.266 1473.2 962 1451.87 952C1419.47 936.933 1390.4 931.466 1358.93 934.666Z" fill="black"/>
<path d="M101.333 947.2V951.6L113.467 952.266C123.867 952.933 126.8 953.733 135.333 957.866C146.667 963.466 150.133 967.6 152 977.466C152.8 981.733 153.333 1038 153.333 1125.33C153.333 1274.93 153.067 1280.53 147.067 1290.8C145.6 1293.2 141.733 1296.27 137.333 1298.4C131.067 1301.47 127.867 1302 115.733 1302.53L101.333 1302.93V1308.13V1313.33H180H258.667V1308V1302.67H248.133C233.6 1302.67 222.133 1299.07 215.467 1292.13C206.4 1282.8 206.267 1281.6 205.6 1203.6L205.2 1134.67L290.933 1134.93L376.667 1135.33L376.533 1201.33C376.533 1259.33 376.267 1268.53 374.267 1276.67C369.333 1296.13 361.733 1301.6 338.4 1302.4L324 1302.93V1308.13V1313.33H402.667H481.333V1308.13V1303.07L466.4 1302.4C439.467 1301.33 432 1294.13 429.333 1266.93C427.6 1248.8 427.6 1004.93 429.333 990.933C432.8 963.2 442.4 954 468.8 952.4L481.467 951.6L481.067 947.466L480.667 943.333L402.4 942.933L324 942.666V947.066V951.6L336.133 952.4C346.267 953.066 349.867 954 358 957.733C368.533 962.8 372.4 966.933 374.8 976.133C375.733 980 376.533 1004.4 376.933 1048.27L377.6 1114.67H291.467H205.333V1056.8C205.333 1022.8 205.867 994.533 206.8 988.4C210.267 963.066 220.267 953.866 246.267 952.4L258.8 951.6L258.4 947.466L258 943.333L179.733 942.933L101.333 942.666V947.2Z" fill="black"/>
<path d="M810.667 945.867C810.667 947.733 810.667 949.733 810.667 950.267C810.667 950.933 815.6 951.733 821.733 952.267C836.133 953.333 842.4 955.067 849.2 960.133C856 964.933 859.333 971.867 861.333 984.8C862.267 991.067 862.667 1038.8 862.4 1133.33C862 1264.8 861.867 1273.07 859.467 1280C856 1290.4 853.067 1294 844.4 1298.27C838 1301.33 834.667 1302 823.733 1302.4L810.667 1302.93V1308.27V1313.47L919.733 1312.93C1036.4 1312.4 1043.33 1312 1066 1305.2C1100.53 1294.8 1128.27 1267.73 1136.67 1236C1139.87 1224.13 1140.53 1207.47 1138.13 1194.67C1132.27 1161.87 1108.67 1138.93 1069.2 1127.47C1063.2 1125.73 1058.8 1124 1059.6 1123.6C1060.27 1123.2 1064.13 1121.6 1068.13 1120C1086.93 1112.67 1105.6 1096.8 1113.2 1081.47C1120.13 1067.87 1121.87 1059.6 1121.87 1041.33C1122 1015.07 1115.87 997.867 1101.07 981.867C1083.47 963.2 1059.6 952.8 1019.87 946.4C1003.2 943.733 995.6 943.6 906.4 943.067L810.667 942.4V945.867ZM981.333 961.333C1004.27 963.733 1020.8 969.867 1038.27 982.133C1057.2 995.6 1066.67 1014.8 1066.67 1040C1066.67 1076.13 1048.13 1098.53 1009.6 1109.07C997.2 1112.4 995.333 1112.53 962.667 1112.53C944 1112.4 926 1111.87 922.667 1111.2L916.667 1109.87L916.267 1038.4L916 966.8L925.733 964.667C944.133 960.533 963.067 959.467 981.333 961.333ZM985.2 1133.33C1003.07 1135.2 1021.73 1140 1034.4 1146.13C1047.47 1152.4 1062.93 1167.33 1069.2 1179.6C1079.73 1200.53 1080.13 1230.67 1070.13 1250.4C1062.67 1265.07 1046.53 1278.13 1027.2 1285.2C1009.47 1291.6 992.4 1293.87 966.133 1292.93C946 1292.27 920.4 1289.2 917.2 1287.2C916.533 1286.8 916 1252.4 916 1210.67V1134.8L923.067 1134.13C942 1132 968.533 1131.73 985.2 1133.33Z" fill="black"/>
</svg>

