<svg width="187" height="80" viewBox="0 0 187 80" fill="none" xmlns="http://www.w3.org/2000/svg">
<g clip-path="url(#clip0_3899_30)">
<path d="M92.2823 52.4237H96.5759V53.1448H73.0435V52.4237H77.4172C78.9631 52.4237 79.8492 52.2022 80.41 51.7969C80.9709 51.3916 81.3149 50.7647 81.4422 49.9258C81.5694 49.0821 81.6354 47.3053 81.6354 44.5858L81.6448 44.6047V4.52458H73.0482V3.78462H73.741C81.4705 3.78462 85.5331 0.919062 87.9038 0.0612793V44.5906C87.9038 47.3147 87.9698 49.0963 88.0971 49.9352C88.2243 50.7741 88.5684 51.401 89.1292 51.8063C89.6901 52.2163 90.7458 52.419 92.2917 52.419" fill="#827127"/>
<path d="M96.5759 53.1448C95.3269 53.1448 92.6358 53.1212 91.8204 52.5274C91.1323 52.0231 90.7034 51.2643 90.5526 50.2698C90.4206 49.3885 90.3546 47.6164 90.3546 44.8403V0H91.5235V44.8356C91.5235 47.5174 91.5847 49.2848 91.7073 50.0954C91.811 50.7836 92.0702 51.269 92.5038 51.5848C92.8714 51.8534 94.9169 52.4237 96.5712 52.4237V53.1495L96.5759 53.1448Z" fill="#827127"/>
<path d="M90.5856 26.5818V25.8466H92.2163C97.5987 25.8466 105.738 26.0587 105.738 12.4614C105.738 0.523153 98.6497 0.744668 93.9554 0.744668H90.5856V0H96.4817C113.076 0 113.92 10.9721 113.92 13.1731C113.92 17.6222 111.879 21.3597 108.175 23.6927C103.613 26.5818 97.6222 26.5818 94.7425 26.5818H90.5856Z" fill="#827127"/>
<path d="M3.63379 74.7072H3.34158C3.20961 74.7072 3.08236 74.7072 2.95982 74.6978V77.4408C2.95982 77.7896 2.95982 78.0818 2.94568 78.3316C2.93626 78.5766 2.9174 78.784 2.89384 78.9443L4.64239 78.85V79.6936H0V79.0715C0.358195 79.0621 0.626841 78.9961 0.805939 78.8783C0.985036 78.7605 1.11229 78.6002 1.1877 78.3975C1.26311 78.1949 1.30081 77.9498 1.30081 77.6717C1.30081 77.3937 1.30553 77.0826 1.30553 76.7527V68.5566C1.30553 68.2974 1.30553 68.0523 1.31967 67.8214C1.32909 67.5904 1.34794 67.3783 1.37151 67.1898L0.00471309 67.2747V66.431C0.669259 66.4169 1.35737 66.4122 2.05962 66.4074C2.76187 66.4074 3.48769 66.4074 4.23236 66.4074C6.07046 66.4074 7.47025 66.7185 8.42229 67.3312C9.44503 68.0005 9.95876 68.9855 9.95876 70.2816C9.95876 70.5455 9.93048 70.8425 9.86921 71.163C9.81266 71.4834 9.69011 71.8134 9.51102 72.1574C9.33192 72.4968 9.08684 72.8267 8.77578 73.1377C8.46471 73.4488 8.07352 73.7222 7.60221 73.9531C7.13091 74.184 6.56534 74.3679 5.91493 74.5092C5.25981 74.6459 4.501 74.7166 3.63851 74.7166L3.63379 74.7072ZM2.95982 73.9107C3.19548 73.9437 3.39814 73.9578 3.57724 73.9672C3.75162 73.972 3.959 73.9767 4.19465 73.9767C4.73194 73.9767 5.23624 73.8965 5.71698 73.7363C6.193 73.5761 6.61247 73.3451 6.96595 73.0388C7.31943 72.7324 7.60222 72.3648 7.80959 71.9265C8.01697 71.4882 8.12065 70.9933 8.12065 70.4371C8.12065 69.8386 8.02639 69.3296 7.83316 68.9148C7.63992 68.4953 7.37599 68.156 7.02722 67.8921C6.68316 67.6328 6.26841 67.4396 5.78768 67.3218C5.30694 67.204 4.77436 67.1474 4.19465 67.1474C3.85531 67.1474 3.6008 67.204 3.43113 67.3076C3.26146 67.416 3.13892 67.5669 3.06822 67.7648C2.99753 67.9628 2.95982 68.1984 2.95982 68.4718V73.9107Z" fill="#363534"/>
<path d="M18.0888 73.7693C17.8767 73.7834 17.6646 73.7881 17.4526 73.7834C17.2358 73.7834 17.019 73.7693 16.8069 73.7504V77.4408C16.8069 77.7896 16.8069 78.0818 16.7927 78.3316C16.7833 78.5766 16.7644 78.784 16.7409 78.9443L18.1124 78.8688V79.6936H13.847V79.0715C14.2052 79.0621 14.4739 78.9961 14.653 78.8783C14.8321 78.7605 14.9593 78.6002 15.0347 78.3975C15.1102 78.1949 15.1479 77.9498 15.1479 77.6717C15.1479 77.3937 15.1526 77.0826 15.1526 76.7527V68.5566C15.1526 68.2974 15.1526 68.0523 15.1667 67.8214C15.1761 67.5904 15.195 67.3783 15.2186 67.1898L13.8518 67.2747V66.431C14.5681 66.4169 15.2845 66.4074 16.0056 66.4027C16.7267 66.398 17.4573 66.4027 18.1878 66.4122C19.1021 66.431 19.8845 66.5206 20.5349 66.6761C21.1853 66.8316 21.7179 67.0578 22.1374 67.3453C22.5521 67.6376 22.8585 67.9863 23.0517 68.4011C23.2449 68.8158 23.3439 69.2824 23.3439 69.8056C23.3439 70.1779 23.2968 70.555 23.1978 70.9414C23.0988 71.3279 22.9197 71.6908 22.6511 72.0396C22.3872 72.3836 22.0243 72.6947 21.5624 72.9633C21.1005 73.2367 20.5114 73.4441 19.7903 73.5902C20.0353 73.7693 20.2616 74.0002 20.4548 74.2736C20.6527 74.5517 20.8696 74.8769 21.1052 75.2492L22.4013 77.2805C22.5615 77.535 22.7171 77.7707 22.8632 77.9875C23.014 78.209 23.1743 78.3975 23.3486 78.5578C23.523 78.718 23.721 78.8453 23.9425 78.9396C24.1593 79.0338 24.4185 79.0762 24.7154 79.0762V79.6984H22.3259C22.1421 79.5381 21.9724 79.3779 21.8263 79.2176C21.6802 79.0574 21.5388 78.8924 21.4068 78.718C21.2749 78.5437 21.1476 78.3693 21.0251 78.1855C20.9025 78.0064 20.7706 77.8084 20.6339 77.5963L19.3661 75.5697C19.2812 75.433 19.1917 75.2869 19.0974 75.1314C19.0032 74.9758 18.9042 74.8156 18.8005 74.6553C18.6968 74.4951 18.5837 74.3396 18.4659 74.1888C18.348 74.0379 18.2255 73.9013 18.0935 73.7787L18.0888 73.7693ZM16.8022 73.0293C17.0001 73.0435 17.1886 73.0529 17.3724 73.0623C17.5562 73.0718 17.7589 73.0718 17.9804 73.0623C18.4989 73.0435 18.9702 72.9775 19.3991 72.8644C19.828 72.7513 20.1956 72.5722 20.5114 72.3318C20.8224 72.0914 21.0628 71.7804 21.2372 71.4033C21.4116 71.0216 21.4964 70.5597 21.4964 70.0082C21.4964 69.0562 21.223 68.3398 20.6763 67.8591C20.1296 67.3736 19.2765 67.1333 18.1077 67.1333C17.7495 67.1333 17.4808 67.1898 17.3017 67.2935C17.1226 67.4019 16.9954 67.5527 16.92 67.7507C16.8446 67.9486 16.8069 68.1843 16.8022 68.4623C16.8022 68.7404 16.8022 69.0468 16.8022 69.3861V73.0293Z" fill="#363534"/>
<path d="M30.8519 68.5472C30.8519 68.288 30.8519 68.0429 30.8661 67.8119C30.8755 67.581 30.8896 67.3689 30.9179 67.1757L29.5464 67.2605V66.4263H33.8117V67.0437C33.4535 67.0579 33.1849 67.1238 33.0058 67.2417C32.8267 67.3642 32.6994 67.5244 32.6288 67.7271C32.5533 67.9298 32.5156 68.1701 32.5109 68.4482C32.5109 68.7263 32.5109 69.0373 32.5109 69.3767V77.4361C32.5109 77.7801 32.5062 78.0771 32.4968 78.3269C32.4874 78.5719 32.4685 78.7793 32.4449 78.9396L33.8117 78.8641V79.6889H29.5464V79.0668C29.9046 79.0574 30.1732 78.9914 30.3523 78.8736C30.5314 78.7557 30.6587 78.5955 30.7294 78.3928C30.8048 78.1902 30.8425 77.9451 30.8425 77.667C30.8425 77.3842 30.8472 77.0779 30.8472 76.7433V68.5425L30.8519 68.5472Z" fill="#363534"/>
<path d="M38.5579 73.0576C38.5579 72.525 38.6144 71.9877 38.7322 71.4363C38.8501 70.8896 39.0292 70.357 39.2695 69.8386C39.5099 69.3248 39.8115 68.8394 40.1745 68.3917C40.5374 67.9439 40.9615 67.548 41.4517 67.2087C41.9419 66.8693 42.4933 66.6007 43.106 66.4074C43.7234 66.2142 44.4021 66.1152 45.1515 66.1152C45.9009 66.1152 46.622 66.2142 47.2535 66.4122C47.8851 66.6101 48.4506 66.874 48.9502 67.2134C49.4498 67.548 49.8834 67.9439 50.251 68.3964C50.6187 68.8488 50.925 69.3343 51.1654 69.848C51.4105 70.3617 51.5896 70.8943 51.7121 71.4457C51.8346 71.9972 51.8912 72.5297 51.8912 73.0576C51.8912 73.5855 51.8299 74.1181 51.7121 74.6648C51.5943 75.2115 51.4152 75.7394 51.1748 76.2578C50.9392 76.7715 50.6375 77.257 50.2746 77.7094C49.9117 78.1619 49.4828 78.5578 48.9926 78.8971C48.5025 79.2365 47.9511 79.5051 47.3384 79.7031C46.7256 79.901 46.047 80 45.2976 80C44.4964 80 43.7705 79.9057 43.1296 79.7125C42.4839 79.5193 41.9136 79.26 41.414 78.9301C40.9144 78.6002 40.4855 78.2137 40.1226 77.766C39.7644 77.3183 39.4675 76.8375 39.2365 76.3285C39.0056 75.8195 38.8359 75.2822 38.7228 74.7261C38.6097 74.1652 38.5579 73.6138 38.5579 73.067V73.0576ZM40.4195 72.7089C40.4195 73.1802 40.462 73.6656 40.5515 74.1652C40.6363 74.6695 40.7683 75.1597 40.9427 75.6404C41.1171 76.1211 41.3386 76.583 41.6072 77.0166C41.8759 77.4549 42.1917 77.832 42.5593 78.1572C42.9269 78.4824 43.3416 78.7369 43.7988 78.9301C44.256 79.1234 44.7697 79.2176 45.34 79.2176C45.8584 79.2176 46.3345 79.1375 46.7634 78.982C47.197 78.8264 47.5834 78.6096 47.9275 78.3316C48.2715 78.0582 48.5732 77.733 48.8324 77.3607C49.0916 76.9883 49.3084 76.5877 49.4828 76.1588C49.6572 75.7299 49.7844 75.2728 49.874 74.7826C49.9635 74.2972 50.006 73.84 50.006 73.4111C50.006 72.9539 49.9541 72.4496 49.8551 71.8935C49.7562 71.3373 49.6101 70.8189 49.4215 70.3334C49.2283 69.848 48.9974 69.3955 48.7193 68.9714C48.4412 68.5472 48.1207 68.1796 47.7578 67.8685C47.3949 67.5574 46.9896 67.3124 46.5418 67.1333C46.0941 66.9542 45.6086 66.8646 45.0855 66.8646C44.3078 66.8646 43.6244 67.039 43.04 67.3831C42.4556 67.7271 41.9654 68.1796 41.579 68.7357C41.1925 69.2919 40.9003 69.9187 40.707 70.6115C40.5138 71.3044 40.4148 72.0066 40.4148 72.7089H40.4195Z" fill="#363534"/>
<path d="M60.4124 73.7693C60.2003 73.7834 59.9882 73.7881 59.7761 73.7834C59.5593 73.7834 59.3425 73.7693 59.1257 73.7504V77.4408C59.1257 77.7896 59.1257 78.0818 59.1116 78.3316C59.1021 78.5766 59.0833 78.784 59.0597 78.9443L60.4312 78.8688V79.6936H56.1659V79.0715C56.5241 79.0621 56.7927 78.9961 56.9718 78.8783C57.1509 78.7605 57.2782 78.6002 57.3489 78.3975C57.4243 78.1949 57.462 77.9498 57.4667 77.6717C57.4667 77.3937 57.4667 77.0826 57.4667 76.7527V68.5566C57.4667 68.2974 57.4667 68.0523 57.4808 67.8214C57.4903 67.5904 57.5091 67.3783 57.5327 67.1898L56.1659 67.2747V66.431C56.8823 66.4169 57.5987 66.4074 58.3198 66.4027C59.0409 66.398 59.7667 66.4027 60.5019 66.4122C61.4163 66.431 62.1939 66.5206 62.8491 66.6761C63.4995 66.8316 64.032 67.0578 64.4515 67.3453C64.8663 67.6376 65.1726 67.9863 65.3658 68.4011C65.5591 68.8158 65.6581 69.2824 65.6581 69.8056C65.6581 70.1779 65.6109 70.555 65.5072 70.9414C65.4083 71.3279 65.2292 71.6908 64.9605 72.0396C64.6966 72.3836 64.3337 72.6947 63.8718 72.9633C63.4146 73.2367 62.8208 73.4441 62.0997 73.5902C62.3448 73.7693 62.571 74.0002 62.7642 74.2736C62.9622 74.5517 63.179 74.8769 63.4146 75.2492L64.7107 77.2805C64.871 77.535 65.0265 77.7707 65.1726 77.9875C65.3187 78.209 65.4837 78.3975 65.6581 78.5578C65.8324 78.718 66.0304 78.8453 66.2519 78.9396C66.4687 79.0338 66.7279 79.0762 67.0249 79.0762V79.6984H64.6353C64.4515 79.5381 64.2866 79.3779 64.1357 79.2176C63.9849 79.0574 63.8482 78.8924 63.7163 78.718C63.5843 78.5437 63.457 78.3693 63.3345 78.1855C63.212 78.0064 63.08 77.8084 62.9433 77.5963L61.6755 75.5697C61.5907 75.433 61.5011 75.2869 61.4068 75.1314C61.3126 74.9758 61.2136 74.8156 61.1099 74.6553C61.0062 74.4951 60.8931 74.3396 60.7753 74.1888C60.6575 74.0379 60.5349 73.9013 60.4077 73.7787L60.4124 73.7693ZM59.1257 73.0293C59.3237 73.0435 59.5122 73.0529 59.696 73.0623C59.8798 73.0718 60.0825 73.0718 60.304 73.0623C60.8224 73.0435 61.2937 72.9775 61.7226 72.8644C62.1515 72.7513 62.5191 72.5722 62.8302 72.3318C63.1413 72.0914 63.3864 71.7804 63.556 71.4033C63.7304 71.0216 63.8152 70.5597 63.8152 70.0082C63.8152 69.0562 63.5419 68.3398 62.9952 67.8591C62.4484 67.3736 61.5954 67.1333 60.4265 67.1333C60.0683 67.1333 59.7997 67.1898 59.6206 67.2935C59.4415 67.4019 59.3142 67.5527 59.2435 67.7507C59.1681 67.9486 59.1304 68.1843 59.1257 68.4623C59.1257 68.7404 59.1257 69.0468 59.1257 69.3861V73.0293Z" fill="#363534"/>
<path d="M73.1754 68.5472C73.1754 68.288 73.1754 68.0429 73.1895 67.8119C73.199 67.581 73.2178 67.3689 73.2414 67.1757L71.8699 67.2605V66.4263H76.1352V67.0437C75.777 67.0579 75.5084 67.1238 75.3293 67.2417C75.1502 67.3642 75.0229 67.5244 74.9475 67.7271C74.8721 67.9298 74.8344 68.1701 74.8344 68.4482C74.8344 68.7263 74.8344 69.0373 74.8344 69.3767V77.4361C74.8344 77.7801 74.8344 78.0771 74.8203 78.3269C74.8108 78.5719 74.792 78.7793 74.7684 78.9396L76.1399 78.8641V79.6889H71.8746V79.0668C72.2328 79.0574 72.5014 78.9914 72.6805 78.8736C72.8596 78.7557 72.9869 78.5955 73.0576 78.3928C73.133 78.1902 73.1707 77.9451 73.1754 77.667C73.1754 77.3842 73.1754 77.0779 73.1754 76.7433V68.5425V68.5472Z" fill="#363534"/>
<path d="M91.9477 70.4324C91.9336 69.8716 91.8911 69.3814 91.8157 68.9667C91.7403 68.5519 91.6131 68.2031 91.4293 67.9298C91.2455 67.6564 90.9957 67.449 90.6799 67.3171C90.3641 67.1804 89.9635 67.1144 89.478 67.1144L87.8756 67.1238L87.8473 77.4502C87.8473 78.1289 87.8285 78.6285 87.7908 78.949L89.3649 78.8736V79.6984H84.9158V79.0762C85.2693 79.0668 85.5332 78.9961 85.7123 78.8736C85.8914 78.751 86.0186 78.5861 86.0893 78.3787C86.1647 78.1713 86.2024 77.931 86.2024 77.6529V76.7527L86.2307 67.1427L84.2701 67.1521C83.8695 67.1521 83.5301 67.2181 83.2568 67.3501C82.9834 67.482 82.7572 67.6847 82.5875 67.9581C82.4131 68.2314 82.2906 68.5708 82.2105 68.9808C82.135 69.3908 82.0926 69.8763 82.0926 70.4371H81.3904L81.5035 66.431H92.551L92.6641 70.4371H91.9524L91.9477 70.4324Z" fill="#363534"/>
<path d="M102.279 74.5799L98.9937 69.3673C98.6685 68.863 98.4282 68.4388 98.2726 68.0947C98.1171 67.7507 98.0181 67.4585 97.9663 67.2181L96.7927 67.2652V66.4216H101.675V67.0484C101.237 67.0484 100.903 67.1003 100.676 67.1992C100.45 67.3029 100.299 67.4443 100.238 67.6234C100.172 67.8072 100.181 68.024 100.266 68.2738C100.351 68.5283 100.488 68.8017 100.676 69.108C100.912 69.4851 101.133 69.8386 101.341 70.1779C101.553 70.5125 101.76 70.8472 101.972 71.1724C102.18 71.4976 102.401 71.8322 102.623 72.1716C102.849 72.5109 103.094 72.8691 103.367 73.2461H103.405C104.819 70.555 105.658 68.9667 105.931 68.4718C106.2 67.9769 106.379 67.6658 106.469 67.5386C106.554 67.4113 106.643 67.2935 106.737 67.1945L105.239 67.2605V66.4169H109.108V67.0437C108.792 67.0626 108.514 67.1238 108.264 67.2275C108.019 67.3312 107.784 67.4867 107.572 67.6847C107.355 67.8826 107.147 68.1371 106.945 68.4341C106.742 68.7357 105.738 70.588 103.924 74.0049C103.919 74.6177 103.914 75.3388 103.909 76.1777C103.909 77.0166 103.909 77.4314 103.914 77.4314C103.914 78.11 103.895 78.6096 103.858 78.9301L105.432 78.8547V79.6795H100.983V79.0574C101.336 79.048 101.6 78.9773 101.779 78.8547C101.958 78.7322 102.086 78.5672 102.156 78.3598C102.232 78.1525 102.269 77.9121 102.269 77.634V76.7338L102.279 74.5658V74.5799Z" fill="#363534"/>
<path d="M127.984 74.7072H127.692C127.56 74.7072 127.433 74.7072 127.305 74.6978V77.4408C127.305 77.7896 127.305 78.0818 127.291 78.3316C127.282 78.5766 127.263 78.784 127.239 78.9443L128.988 78.85V79.6936H124.341V79.0715C124.699 79.0621 124.968 78.9961 125.147 78.8783C125.326 78.7605 125.453 78.6002 125.524 78.3975C125.599 78.1949 125.637 77.9498 125.642 77.6717C125.642 77.3937 125.646 77.0826 125.646 76.7527V68.5566C125.646 68.2974 125.646 68.0523 125.66 67.8214C125.67 67.5904 125.689 67.3783 125.712 67.1898L124.341 67.2747V66.431C125.005 66.4169 125.693 66.4122 126.396 66.4074C127.098 66.4074 127.824 66.4074 128.568 66.4074C130.407 66.4074 131.802 66.7185 132.758 67.3312C133.781 68.0052 134.295 68.9855 134.295 70.2816C134.295 70.5455 134.267 70.8378 134.205 71.163C134.149 71.4834 134.026 71.8134 133.847 72.1574C133.668 72.5015 133.423 72.8267 133.112 73.1377C132.801 73.4488 132.41 73.7222 131.938 73.9531C131.467 74.184 130.901 74.3679 130.251 74.5092C129.596 74.6459 128.837 74.7166 127.975 74.7166L127.984 74.7072ZM127.31 73.9107C127.546 73.9437 127.748 73.9578 127.927 73.9672C128.102 73.972 128.309 73.9767 128.545 73.9767C129.082 73.9767 129.586 73.8965 130.067 73.7363C130.543 73.5761 130.963 73.3451 131.316 73.0388C131.67 72.7324 131.952 72.3648 132.16 71.9265C132.367 71.4882 132.471 70.9933 132.471 70.4371C132.471 69.8386 132.377 69.3296 132.183 68.9148C131.99 68.4953 131.722 68.156 131.377 67.8921C131.033 67.6328 130.619 67.4396 130.138 67.3218C129.657 67.204 129.125 67.1474 128.545 67.1474C128.206 67.1474 127.951 67.1992 127.781 67.3076C127.612 67.416 127.489 67.5669 127.418 67.7648C127.348 67.9628 127.31 68.1984 127.31 68.4718V73.9107Z" fill="#363534"/>
<path d="M138.607 77.634C138.555 77.7848 138.513 77.9168 138.475 78.0346C138.438 78.1525 138.4 78.2609 138.362 78.3598C138.324 78.4588 138.287 78.5531 138.249 78.6473C138.211 78.7416 138.174 78.8406 138.131 78.9443L139.611 78.8689V79.6936H136.067V79.0715C136.35 79.0715 136.581 79.015 136.76 78.9019C136.939 78.7887 137.09 78.6238 137.212 78.4164C137.335 78.2043 137.448 77.9592 137.552 77.667C137.655 77.3795 137.768 77.059 137.9 76.7055L141.803 66.0681H142.255L146.483 76.8611C146.539 76.993 146.596 77.1486 146.652 77.3277C146.709 77.5115 146.766 77.6953 146.817 77.8885C146.869 78.0818 146.912 78.2656 146.935 78.4541C146.964 78.6379 146.973 78.8029 146.968 78.9443L148.264 78.8689V79.6936H143.924V79.0715C144.272 79.0668 144.532 79.0008 144.701 78.8783C144.866 78.7557 144.975 78.6049 145.017 78.4258C145.059 78.2467 145.059 78.0535 145.017 77.8508C144.975 77.6482 144.918 77.4549 144.852 77.2758L144.188 75.4943L139.258 75.6074C139.121 75.9986 139.003 76.3568 138.895 76.6773C138.791 77.0025 138.692 77.323 138.598 77.6387L138.607 77.634ZM140.903 70.9744C140.61 71.7898 140.356 72.5062 140.139 73.1236C139.922 73.741 139.724 74.2972 139.55 74.7826H143.938L142.585 71.1535L141.732 68.8206H141.694L140.898 70.965L140.903 70.9744Z" fill="#363534"/>
<path d="M152.605 79.8398H151.625L151.512 75.8053H152.242C152.28 76.3662 152.398 76.8564 152.605 77.2805C152.808 77.7047 153.076 78.0535 153.406 78.341C153.736 78.6238 154.123 78.8406 154.556 78.982C154.995 79.1281 155.461 79.1988 155.961 79.1988C156.333 79.1988 156.682 79.1469 157.012 79.048C157.342 78.949 157.634 78.7934 157.884 78.5955C158.134 78.3975 158.332 78.1478 158.478 77.8508C158.624 77.5539 158.694 77.2146 158.694 76.8328C158.694 76.3709 158.591 75.975 158.388 75.6404C158.185 75.3058 157.917 75.0135 157.577 74.759C157.243 74.5045 156.856 74.2736 156.432 74.0662C156.003 73.8588 155.565 73.6515 155.122 73.4441C154.679 73.2367 154.241 73.0199 153.812 72.789C153.383 72.558 153.001 72.2894 152.666 71.983C152.332 71.6767 152.058 71.3232 151.856 70.9132C151.653 70.5031 151.549 70.0224 151.549 69.4615C151.549 69.2447 151.573 69.0138 151.625 68.7687C151.672 68.5236 151.757 68.2738 151.87 68.0287C151.983 67.7837 152.134 67.5433 152.322 67.3124C152.511 67.0814 152.747 66.8788 153.029 66.6997C153.312 66.5206 153.651 66.3839 154.038 66.2802C154.424 66.1765 154.877 66.1247 155.391 66.1247C155.636 66.1247 155.9 66.1388 156.178 66.1718C156.456 66.2048 156.739 66.2566 157.026 66.3273C157.314 66.4027 157.596 66.5017 157.884 66.629C158.167 66.7562 158.44 66.9165 158.699 67.105L158.624 66.2896H159.585V70.4466H158.902C158.874 69.9894 158.784 69.5464 158.638 69.1128C158.492 68.6792 158.28 68.3021 158.006 67.9722C157.728 67.6423 157.384 67.3736 156.979 67.1757C156.574 66.973 156.093 66.874 155.537 66.874C155.141 66.874 154.792 66.9353 154.49 67.0531C154.189 67.1757 153.934 67.3359 153.732 67.5386C153.529 67.7413 153.373 67.9769 153.27 68.2456C153.166 68.5142 153.114 68.797 153.114 69.0939C153.114 69.5275 153.218 69.8999 153.425 70.2203C153.633 70.5408 153.906 70.8236 154.245 71.0687C154.585 71.3138 154.971 71.54 155.4 71.7474C155.834 71.95 156.272 72.1574 156.724 72.3601C157.177 72.5675 157.615 72.789 158.049 73.0246C158.482 73.2603 158.864 73.5384 159.203 73.8494C159.543 74.1605 159.816 74.5234 160.024 74.9381C160.231 75.3529 160.335 75.8383 160.335 76.3992C160.335 76.9224 160.236 77.4078 160.038 77.8461C159.84 78.2891 159.552 78.6662 159.175 78.982C158.798 79.2978 158.336 79.5475 157.785 79.7266C157.233 79.9057 156.607 79.9953 155.9 79.9953C155.617 79.9953 155.325 79.9764 155.023 79.934C154.726 79.8916 154.429 79.835 154.137 79.7549C153.845 79.6748 153.562 79.5711 153.289 79.4486C153.015 79.326 152.761 79.1846 152.525 79.0244L152.619 79.8398H152.605Z" fill="#363534"/>
<path d="M165.712 79.8398H164.732L164.619 75.8053H165.349C165.387 76.3662 165.505 76.8564 165.712 77.2805C165.915 77.7047 166.184 78.0535 166.514 78.341C166.843 78.6238 167.225 78.8406 167.664 78.982C168.102 79.1281 168.568 79.1988 169.068 79.1988C169.44 79.1988 169.789 79.1469 170.119 79.048C170.449 78.949 170.741 78.7934 170.986 78.5955C171.236 78.3975 171.434 78.1478 171.58 77.8508C171.726 77.5539 171.797 77.2146 171.797 76.8328C171.797 76.3709 171.693 75.975 171.491 75.6404C171.288 75.3058 171.019 75.0135 170.68 74.759C170.345 74.5045 169.959 74.2736 169.535 74.0662C169.106 73.8588 168.667 73.6515 168.224 73.4441C167.781 73.2367 167.343 73.0199 166.914 72.789C166.485 72.558 166.104 72.2894 165.769 71.983C165.434 71.6767 165.161 71.3232 164.958 70.9132C164.756 70.5031 164.652 70.0224 164.652 69.4615C164.652 69.2447 164.675 69.0138 164.727 68.7687C164.774 68.5236 164.859 68.2738 164.972 68.0287C165.085 67.7837 165.236 67.5433 165.425 67.3124C165.613 67.0814 165.849 66.8788 166.132 66.6997C166.415 66.5206 166.749 66.3839 167.14 66.2802C167.527 66.1765 167.979 66.1247 168.493 66.1247C168.738 66.1247 169.002 66.1388 169.28 66.1718C169.558 66.2048 169.841 66.2566 170.129 66.3273C170.416 66.4027 170.699 66.5017 170.986 66.629C171.269 66.7562 171.542 66.9165 171.802 67.105L171.726 66.2896H172.688V70.4466H172.004C171.976 69.9894 171.886 69.5464 171.74 69.1128C171.594 68.6839 171.387 68.3021 171.109 67.9722C170.831 67.6423 170.491 67.3736 170.081 67.1757C169.676 66.973 169.195 66.874 168.639 66.874C168.243 66.874 167.894 66.9353 167.593 67.0531C167.291 67.1757 167.037 67.3359 166.834 67.5386C166.631 67.7413 166.476 67.9769 166.372 68.2456C166.268 68.5142 166.217 68.797 166.217 69.0939C166.217 69.5275 166.32 69.8999 166.528 70.2203C166.735 70.5408 167.008 70.8236 167.348 71.0687C167.687 71.3138 168.074 71.54 168.502 71.7474C168.936 71.95 169.374 72.1574 169.827 72.3601C170.279 72.5675 170.718 72.789 171.151 73.0246C171.585 73.2603 171.967 73.5384 172.306 73.8494C172.645 74.1605 172.919 74.5234 173.126 74.9381C173.333 75.3529 173.437 75.8383 173.437 76.3992C173.437 76.9224 173.338 77.4078 173.14 77.8461C172.942 78.2891 172.655 78.6662 172.278 78.982C171.901 79.2978 171.439 79.5475 170.883 79.7266C170.331 79.9057 169.704 79.9953 168.997 79.9953C168.715 79.9953 168.422 79.9764 168.125 79.934C167.829 79.8916 167.532 79.835 167.239 79.7549C166.947 79.6748 166.664 79.5711 166.386 79.4486C166.113 79.326 165.858 79.1846 165.623 79.0244L165.717 79.8398H165.712Z" fill="#363534"/>
<path d="M181.091 66.299L181.124 67.581H180.752C180.752 67.2794 180.69 67.0531 180.568 66.9023C180.445 66.7515 180.276 66.6761 180.054 66.6761H179.785V69.3296C179.785 69.3814 179.785 69.4332 179.785 69.4804C179.785 69.5322 179.785 69.5793 179.785 69.6218C179.785 69.6689 179.785 69.7066 179.781 69.7443C179.781 69.782 179.776 69.8103 179.771 69.8339L180.224 69.815V70.2533H178.574V69.881C178.636 69.881 178.692 69.8716 178.744 69.8621C178.796 69.8527 178.838 69.8339 178.871 69.8009C178.904 69.7679 178.932 69.7207 178.951 69.6595C178.97 69.5935 178.98 69.5039 178.98 69.3908V66.6808H178.716C178.499 66.6808 178.329 66.7515 178.207 66.8976C178.084 67.0437 178.018 67.2699 178.018 67.5763H177.646L177.679 66.2943H181.105L181.091 66.299Z" fill="#363534"/>
<path d="M185.696 67.2181L184.536 70.3146H184.008L183.25 68.4529C183.226 68.4011 183.198 68.3304 183.165 68.2408C183.132 68.1513 183.094 68.0523 183.056 67.9392C183.019 67.8261 182.981 67.7035 182.948 67.5763C182.91 67.4443 182.877 67.3124 182.849 67.1757H182.844C182.849 67.3878 182.854 67.5857 182.858 67.7742C182.858 67.9628 182.858 68.1371 182.858 68.3115L182.849 69.3343C182.849 69.3861 182.849 69.438 182.849 69.4851C182.849 69.5369 182.849 69.5841 182.844 69.6265C182.844 69.6736 182.84 69.7113 182.835 69.749C182.835 69.7867 182.83 69.815 182.825 69.8386L183.254 69.8197V70.258H181.963V69.8857C182.024 69.8857 182.081 69.8763 182.133 69.8669C182.184 69.8574 182.222 69.8386 182.26 69.8056C182.293 69.7726 182.321 69.7255 182.34 69.6642C182.359 69.5982 182.368 69.5087 182.368 69.3955L182.401 67.2275C182.401 67.1757 182.401 67.1238 182.401 67.0767C182.401 67.0249 182.401 66.9777 182.406 66.9353C182.411 66.8929 182.406 66.8505 182.411 66.8128C182.411 66.7751 182.415 66.7468 182.42 66.7232L181.991 66.7421V66.3038H183.24L184.098 68.4953C184.121 68.5613 184.15 68.6367 184.183 68.7169C184.211 68.8017 184.244 68.8818 184.272 68.9667C184.301 69.0515 184.329 69.1269 184.352 69.2023C184.376 69.2777 184.395 69.339 184.414 69.3861H184.418C184.466 69.2542 184.513 69.1269 184.55 69.0044C184.588 68.8818 184.635 68.7593 184.682 68.6367L185.554 66.299H186.86V66.6714C186.794 66.6714 186.737 66.6808 186.685 66.6902C186.634 66.6997 186.591 66.7185 186.553 66.7515C186.516 66.7845 186.492 66.8316 186.473 66.8929C186.454 66.9589 186.45 67.0484 186.454 67.1615L186.539 69.3296C186.539 69.3814 186.539 69.4332 186.539 69.4804C186.539 69.5322 186.539 69.5794 186.539 69.6218C186.539 69.6689 186.539 69.7066 186.53 69.7443C186.53 69.782 186.52 69.8103 186.52 69.8339L186.945 69.815V70.2533H185.375V69.881C185.436 69.881 185.493 69.8716 185.545 69.8621C185.597 69.8527 185.639 69.8339 185.677 69.8009C185.715 69.7679 185.738 69.7207 185.757 69.6595C185.776 69.5935 185.781 69.5039 185.776 69.3908L185.729 68.1937C185.729 68.1607 185.729 68.1089 185.719 68.0335C185.71 67.9581 185.71 67.8779 185.705 67.7837C185.705 67.6894 185.696 67.5951 185.691 67.4962C185.686 67.3972 185.682 67.3029 185.677 67.2181H185.672H185.696Z" fill="#363534"/>
</g>
<defs>
<clipPath id="clip0_3899_30">
<rect width="186.964" height="80" fill="white"/>
</clipPath>
</defs>
</svg>
