<svg  viewBox="0 0 124 44" fill="none" xmlns="http://www.w3.org/2000/svg">
<path d="M32.4088 31.4062H17.2351L19.9209 43.9528H37.7272L32.4088 31.4062Z" fill="#3E23A9"/>
<path d="M13.1886 12.5215H0L4.4041 31.4237H17.2351L13.1886 12.5215Z" fill="#AE9AFF"/>
<path d="M4.40405 31.4062L19.9208 43.9528L17.2351 31.4062H4.40405Z" fill="#251293"/>
<path d="M32.3669 12.5042L37.6439 0H10.5121L13.1885 12.5042H32.3669Z" fill="#6D4BF6"/>
<path d="M10.5121 0L0 12.5042H13.1886L10.5121 0Z" fill="#4127D6"/>
<g clip-path="url(#clip0_749_13145)">
<path d="M47.4583 21.9489C47.4583 16.8042 51.3225 13.6482 55.9037 13.6482C57.9149 13.6482 60.0878 14.3111 61.4115 15.3201V17.5224C60.1136 16.355 58.3671 15.4269 55.9037 15.4269C52.249 15.4269 49.6569 17.9716 49.6569 21.9489C49.6569 25.9262 52.2527 28.4709 55.9037 28.4709C58.3671 28.4709 60.1136 27.5429 61.4115 26.3755V28.5777C60.0878 29.5868 57.9186 30.2497 55.9037 30.2497C51.3225 30.2497 47.4583 27.0936 47.4583 21.9489Z" fill="#1D1D1B"/>
<path d="M63.4484 24.0961C63.4484 20.4097 66.1765 18.1301 68.9819 18.1301C71.7872 18.1301 73.8535 19.9862 73.8535 22.5862C73.8535 22.9839 73.7726 23.4884 73.6954 23.8861H65.4338C65.2757 25.9006 66.228 28.5816 69.8827 28.5816C71.1805 28.5816 72.7689 27.9444 73.644 27.0974V28.8725C72.5593 29.749 70.8643 30.224 69.1951 30.224C65.8346 30.224 63.452 27.6535 63.452 24.0997L63.4484 24.0961ZM71.9196 22.4794C72.1586 20.94 70.9416 19.721 69.0591 19.721C67.445 19.721 65.9633 20.5975 65.6176 22.4794H71.9196Z" fill="#1D1D1B"/>
<path d="M76.6294 18.4468H78.3758L78.5082 20.6491C79.2509 19.2423 81.0231 18.1301 82.9571 18.1301V20.3029C80.7878 19.9052 78.6406 21.1499 78.6406 23.087V29.9036H76.6294V18.4468Z" fill="#1D1D1B"/>
<path d="M85.3139 33.9875V32.183C87.0604 33.2436 88.2517 33.6671 90.2628 33.6671C92.274 33.6671 94.0756 32.4739 94.0756 29.1043V28.0952C93.1233 29.3952 91.535 30.2165 89.7591 30.2165C86.6082 30.2165 84.3065 27.5134 84.3065 24.1695C84.3065 20.8256 86.6082 18.1226 89.7591 18.1226C91.6379 18.1226 93.3072 19.0506 94.2594 20.5089L94.3403 18.4393H96.0868V28.887C96.0868 34.1901 92.7777 35.3059 90.0238 35.3059C88.3289 35.3059 86.5824 34.724 85.3103 33.9801L85.3139 33.9875ZM94.208 24.1769C94.208 21.4186 92.4358 19.7466 90.2628 19.7466C88.0899 19.7466 86.3177 21.4186 86.3177 24.1769C86.3177 26.9352 88.0899 28.6034 90.2628 28.6034C92.4358 28.6034 94.208 26.9315 94.208 24.1769Z" fill="#1D1D1B"/>
<path d="M98.734 24.0961C98.734 20.4097 101.462 18.1301 104.267 18.1301C107.073 18.1301 109.139 19.9862 109.139 22.5862C109.139 22.9839 109.058 23.4884 108.981 23.8861H100.719C100.561 25.9006 101.514 28.5816 105.168 28.5816C106.466 28.5816 108.055 27.9444 108.93 27.0974V28.8725C107.845 29.749 106.15 30.224 104.481 30.224C101.12 30.224 98.7377 27.6535 98.7377 24.0997L98.734 24.0961ZM107.205 22.4794C107.444 20.94 106.227 19.721 104.345 19.721C102.731 19.721 101.249 20.5975 100.903 22.4794H107.205Z" fill="#1D1D1B"/>
<path d="M111.257 24.1771C111.257 20.8369 113.559 18.1301 116.71 18.1301C118.588 18.1301 120.258 19.0582 121.21 20.5165L121.291 18.4468H123.037V29.9036H121.291L121.21 27.834C120.258 29.2923 118.588 30.2203 116.71 30.2203C113.559 30.2203 111.257 27.5173 111.257 24.1734V24.1771ZM121.158 24.1771C121.158 21.4188 119.386 19.7468 117.213 19.7468C115.04 19.7468 113.268 21.4188 113.268 24.1771C113.268 26.9354 115.04 28.6036 117.213 28.6036C119.386 28.6036 121.158 26.9317 121.158 24.1771Z" fill="#1D1D1B"/>
</g>
<defs>
<clipPath id="clip0_749_13145">
<rect width="75.579" height="21.6652" fill="white" transform="translate(47.4583 13.6482)"/>
</clipPath>
</defs>
</svg>

